<svg width="249" height="245" viewBox="0 0 249 245" fill="none" xmlns="http://www.w3.org/2000/svg">
<g clip-path="url(#clip0_1_161)">
<mask id="mask0_1_161" style="mask-type:luminance" maskUnits="userSpaceOnUse" x="0" y="0" width="249" height="245">
<path d="M0 0H219C222.94 0 226.841 0.775973 230.48 2.28361C234.12 3.79125 237.427 6.00104 240.213 8.7868C242.999 11.5726 245.209 14.8797 246.716 18.5195C248.224 22.1593 249 26.0603 249 30V245H0V0Z" fill="white"/>
</mask>
<g mask="url(#mask0_1_161)">
<g opacity="0.2">
<g opacity="0.25">
<path d="M247.203 232.607C355.913 232.607 444.039 210.202 444.039 182.563C444.039 154.924 355.913 132.519 247.203 132.519C138.493 132.519 50.367 154.924 50.367 182.563C50.367 210.202 138.493 232.607 247.203 232.607Z" fill="#151F42"/>
</g>
<path d="M218.838 222.516C224.25 221.452 227.916 216.923 227.027 212.402C226.137 207.881 221.029 205.079 215.617 206.144C210.205 207.209 206.539 211.737 207.429 216.258C208.318 220.779 213.426 223.581 218.838 222.516Z" fill="#131313"/>
<path d="M216.519 226.437C214.126 226.451 211.768 225.862 209.662 224.724C208.177 223.94 206.883 222.839 205.872 221.499C204.861 220.159 204.157 218.613 203.811 216.97C203.51 215.317 203.577 213.618 204.006 211.993C204.436 210.369 205.217 208.859 206.295 207.57C208.487 204.93 211.533 203.14 214.905 202.509C222.305 201.055 229.362 205.16 230.64 211.675C230.94 213.328 230.872 215.028 230.442 216.652C230.012 218.276 229.23 219.786 228.151 221.075C225.961 223.715 222.916 225.506 219.544 226.136C218.548 226.335 217.535 226.435 216.519 226.437ZM217.897 209.612C217.37 209.612 216.844 209.664 216.327 209.765C214.651 210.069 213.13 210.941 212.021 212.234C211.629 212.682 211.339 213.21 211.17 213.781C211.001 214.353 210.958 214.953 211.043 215.543C211.185 216.123 211.452 216.664 211.825 217.131C212.197 217.597 212.667 217.976 213.201 218.243C214.718 219.017 216.455 219.246 218.12 218.891C219.796 218.586 221.316 217.714 222.426 216.422C222.818 215.974 223.108 215.446 223.277 214.874C223.446 214.303 223.489 213.702 223.404 213.113C222.997 211.023 220.633 209.612 217.897 209.612Z" fill="#030504"/>
<path d="M231.731 115.047C231.451 115.046 231.172 115.013 230.9 114.947L184.859 104.3C183.905 104.079 183.078 103.488 182.56 102.657C182.041 101.827 181.874 100.824 182.094 99.87C182.202 99.3975 182.402 98.9509 182.682 98.5558C182.963 98.1607 183.319 97.8249 183.73 97.5676C184.14 97.3103 184.598 97.1365 185.076 97.0562C185.554 96.976 186.043 96.9909 186.515 97.1L232.557 107.745C233.511 107.968 234.337 108.559 234.856 109.39C235.374 110.221 235.542 111.224 235.322 112.178C235.136 112.992 234.68 113.719 234.028 114.24C233.376 114.761 232.566 115.045 231.731 115.047Z" fill="#030504"/>
<path d="M229.333 121.096C228.787 121.097 228.247 120.976 227.753 120.742C227.26 120.508 226.824 120.166 226.479 119.743L221.195 113.275C220.67 112.633 220.376 111.833 220.361 111.003C220.345 110.174 220.609 109.364 221.109 108.702L226.618 101.411C226.91 101.024 227.275 100.699 227.692 100.454C228.11 100.209 228.572 100.048 229.052 99.9818C229.531 99.9154 230.019 99.9443 230.488 100.067C230.956 100.189 231.396 100.403 231.782 100.696C232.562 101.289 233.074 102.167 233.207 103.138C233.34 104.108 233.083 105.092 232.492 105.873L228.737 110.845L232.183 115.059C232.803 115.818 233.097 116.791 233 117.766C232.903 118.74 232.424 119.637 231.667 120.259C231.01 120.801 230.185 121.097 229.333 121.096Z" fill="#030504"/>
<path d="M167.975 184.887C167.861 184.887 167.751 184.887 167.638 184.872L157.695 183.972C156.812 183.891 155.988 183.495 155.373 182.857C154.758 182.219 154.394 181.38 154.346 180.495L150.652 113.308C150.597 112.331 150.933 111.372 151.585 110.642C152.237 109.912 153.153 109.471 154.13 109.415C154.615 109.384 155.101 109.45 155.561 109.61C156.02 109.769 156.443 110.018 156.804 110.343C157.166 110.668 157.459 111.061 157.667 111.501C157.875 111.94 157.993 112.416 158.015 112.902L161.531 176.902L168.3 177.516C169.275 177.607 170.174 178.08 170.8 178.833C171.427 179.585 171.729 180.555 171.642 181.53C171.559 182.446 171.137 183.297 170.458 183.918C169.78 184.539 168.895 184.885 167.975 184.887Z" fill="#030504"/>
<path d="M112.69 194.383C112.284 194.383 111.882 194.315 111.498 194.183L102.052 190.944C101.215 190.655 100.509 190.075 100.063 189.309C99.6169 188.543 99.4605 187.643 99.622 186.772L111.885 120.616C111.973 120.139 112.154 119.684 112.417 119.278C112.681 118.871 113.022 118.52 113.422 118.246C113.821 117.971 114.271 117.778 114.745 117.677C115.219 117.576 115.708 117.57 116.185 117.659C117.147 117.839 117.999 118.394 118.552 119.202C119.106 120.009 119.316 121.003 119.137 121.966L107.452 184.985L113.884 187.185C114.81 187.503 115.573 188.176 116.004 189.056C116.435 189.935 116.5 190.95 116.184 191.877C115.937 192.608 115.467 193.242 114.84 193.692C114.213 194.141 113.461 194.383 112.69 194.383Z" fill="#030504"/>
<path d="M130.966 19.2549C130.966 19.2549 122.166 9.98798 116.441 15.285C110.716 20.582 110.72 22.785 110.72 22.785C110.72 22.785 103.241 14.405 97.96 20.139C92.679 25.873 93.118 30.727 93.118 30.727C93.118 30.727 83.875 25.87 80.356 28.965C76.837 32.06 75.0739 38.673 75.0739 38.673C73.8096 38.454 72.5113 38.5392 71.2866 38.9218C70.0618 39.3044 68.9458 39.9733 68.0309 40.873C64.9519 43.963 62.749 52.346 62.749 52.346C62.749 52.346 58.792 49.695 55.711 55.436C52.63 61.177 59.2299 64.701 59.2299 64.701C59.2299 64.701 52.188 68.675 53.509 74.409C54.83 80.143 57.028 82.792 57.028 82.792C57.028 82.792 50.869 85.436 52.628 91.1769C53.8665 94.8949 55.8087 98.3399 58.3489 101.324C58.3489 101.324 49.5489 103.973 50.4279 109.709C51.3069 115.445 53.508 115.884 53.508 115.884C53.508 115.884 52.626 116.769 53.508 121.184C54.0832 123.868 55.6558 126.233 57.908 127.802C57.908 127.802 49.983 133.979 58.788 136.628C67.593 139.277 71.988 138.392 71.988 138.392C71.988 138.392 64.946 143.692 72.869 144.57C78.137 145.086 83.4429 145.086 88.711 144.57C88.711 144.57 85.6289 158.689 92.2299 154.278C98.8309 149.867 101.03 150.749 101.03 150.749C101.03 150.749 103.23 160.016 105.43 156.049C107.63 152.082 111.586 156.928 111.586 156.928C111.586 156.928 117.31 165.313 119.512 161.785C121.714 158.257 126.112 165.755 127.873 161.342L131.392 159.137C131.392 159.137 144.157 166.194 145.477 160.899L146.801 155.606C146.801 155.606 155.601 162.222 158.239 157.811C160.877 153.4 166.6 153.841 166.6 153.841C166.6 153.841 179.365 159.141 182 151.192C184.635 143.243 190.361 146.782 190.361 146.782C190.361 146.782 203.561 148.103 200.044 143.251C196.527 138.399 199.164 141.487 199.164 141.487L197.844 136.633C197.844 136.633 208.409 135.312 205.327 128.691C202.245 122.07 201.365 119.865 201.365 119.865C201.365 119.865 206.21 116.339 204.007 114.131C201.804 111.923 200.046 105.749 200.046 105.749C200.046 105.749 206.205 100.007 203.123 97.361C201.339 95.8993 200.099 93.8783 199.606 91.625C199.606 91.625 207.084 86.771 203.566 83.683C201.421 81.7144 200.022 79.0648 199.606 76.183C199.606 76.183 206.206 72.211 203.566 69.126C201.945 67.1889 200.746 64.9349 200.046 62.508C200.046 62.508 207.527 55.887 201.365 53.241C197.348 51.3309 193.87 48.4518 191.243 44.863C191.243 44.863 189.486 36.917 186.843 37.355C184.655 37.6468 182.45 37.7941 180.243 37.796C180.243 37.796 179.362 29.414 175.843 30.737C173.581 31.5509 171.204 31.9976 168.801 32.06C168.801 32.06 170.561 22.351 164.401 23.234C160.821 23.711 157.377 24.9132 154.278 26.767C154.278 26.767 159.115 21.91 152.956 21.033C146.797 20.156 144.595 24.12 144.595 24.12C144.595 24.12 145.475 21.033 143.718 19.71C141.961 18.387 137.118 19.71 136.234 21.033C135.35 22.356 133.607 13.5239 130.966 19.2549Z" fill="#DED8BE"/>
<path d="M127.555 161.985C127.463 162.122 127.357 162.248 127.238 162.362C127.218 162.381 127.197 162.399 127.174 162.414C127.072 162.506 126.956 162.582 126.83 162.638L126.771 162.663C126.647 162.715 126.516 162.748 126.382 162.763H126.353C126.214 162.773 126.074 162.767 125.936 162.748H125.904C125.755 162.723 125.607 162.686 125.464 162.637C125.442 162.633 125.421 162.627 125.4 162.62C125.248 162.57 125.099 162.511 124.953 162.445C124.929 162.432 124.903 162.421 124.877 162.413C124.726 162.339 124.577 162.268 124.424 162.189L124.404 162.179C123.694 159.708 121.369 155.006 120.556 152.31C120.301 151.36 120.281 150.362 120.497 149.402C120.712 148.443 121.158 147.55 121.795 146.8C121.795 146.8 125.208 143.676 123.426 142.784C121.644 141.892 119.121 136.984 119.121 136.984C119.121 136.984 121.2 138.322 121.795 138.77C122.39 139.218 124.464 142.042 124.611 139.512C124.701 137.99 125.002 136.488 125.504 135.049C124.156 133.387 122.721 131.798 121.204 130.289C119.572 128.798 118.237 125.228 118.237 125.228C118.237 125.228 122.537 129.693 123.429 126.569C124.321 123.445 127.581 121.36 127.581 121.36C127.581 121.36 126.099 117.494 123.581 116.008C122.854 115.582 122.252 114.973 121.836 114.241C121.419 113.51 121.202 112.681 121.207 111.839C122.337 112.715 123.527 113.512 124.768 114.222C126.847 115.409 127.144 112.586 127.29 110.501C127.436 108.416 128.032 105.294 128.032 105.294C125.484 104.69 122.999 103.842 120.613 102.763C117.645 101.277 120.913 97.263 120.913 97.263C121.494 98.4676 122.189 99.6135 122.989 100.685C123.729 101.429 125.809 100.535 125.809 98.751C125.809 96.967 128.923 93.84 128.923 93.84L126.107 88.631C126.107 88.631 123.437 89.375 119.132 90.122C118.6 90.2561 118.044 90.27 117.506 90.1628C116.968 90.0557 116.46 89.8301 116.019 89.5024C115.579 89.1747 115.217 88.7532 114.96 88.2683C114.703 87.7834 114.557 87.2474 114.532 86.699C114.532 86.699 120.32 76.434 121.358 76.283C123.356 75.8316 125.395 75.5823 127.443 75.539C129.37 75.687 141.39 78.959 144.654 79.558C147.918 80.157 160.085 98.152 159.495 102.914C158.918 107.514 154.33 139.059 149.201 157.155C147.989 156.448 147.101 155.807 146.876 155.644L146.856 155.629L146.824 155.604L145.499 160.897C144.18 166.197 131.415 159.135 131.415 159.135L127.885 161.338C127.805 161.54 127.707 161.735 127.592 161.92C127.578 161.941 127.566 161.962 127.555 161.985Z" fill="#CDC7AC"/>
<path d="M105.441 156.042C103.241 160.014 101.041 150.747 101.041 150.747C101.041 150.747 98.8409 149.865 92.2409 154.275C85.6409 158.685 88.722 144.567 88.722 144.567C83.4539 145.083 78.148 145.083 72.8799 144.567C64.9569 143.685 71.999 138.39 71.999 138.39C71.999 138.39 67.599 139.274 58.799 136.625C49.999 133.976 57.919 127.799 57.919 127.799C55.6669 126.23 54.0943 123.865 53.519 121.181C52.637 116.77 53.519 115.881 53.519 115.881C53.519 115.881 51.319 115.44 50.439 109.706C49.559 103.972 58.3599 101.321 58.3599 101.321C55.8198 98.3369 53.8775 94.8919 52.639 91.174C50.879 85.433 57.039 82.789 57.039 82.789C57.039 82.789 54.839 80.14 53.52 74.407C52.201 68.674 59.2409 64.699 59.2409 64.699C59.2409 64.699 52.641 61.173 55.722 55.434C58.803 49.695 62.76 52.344 62.76 52.344C62.76 52.344 64.9599 43.961 68.0419 40.871C68.9568 39.9713 70.0728 39.3025 71.2975 38.9199C72.5223 38.5373 73.8207 38.452 75.085 38.671C75.085 38.671 75.199 38.24 75.424 37.557C79.78 38.412 82.924 39.09 82.924 39.09L64.924 52.218C64.924 52.218 57.394 53.199 57.394 56.153C57.394 59.107 61.975 62.387 62.957 62.715C63.7031 62.9267 64.4744 63.037 65.2499 63.043C65.2499 63.043 59.0299 64.687 60.3399 70.921C61.6499 77.155 64.5939 79.454 64.5939 79.454L69.1769 79.782L60.3399 82.406C60.3399 82.406 54.776 89.3 57.066 92.252C59.356 95.204 63.94 100.122 65.249 99.141C66.1647 98.4855 67.1516 97.9356 68.191 97.502C68.191 97.502 64.918 103.408 62.956 102.423C61.9468 101.867 60.8307 101.531 59.6819 101.44C59.6819 101.44 54.4479 105.045 55.4279 108.327C56.4079 111.609 61.9749 112.597 61.9749 112.597C61.9749 112.597 64.268 115.551 61.648 115.879C59.028 116.207 56.0839 116.537 56.0839 116.537C56.0839 116.537 56.0839 122.111 60.0109 122.111H65.575C65.575 122.111 57.723 129.986 60.665 131.957C63.607 133.928 68.522 134.584 71.14 134.257C73.758 133.93 81.612 129.334 81.612 129.334C81.612 129.334 72.7769 139.828 79.6509 140.816C83.2192 141.402 86.8381 141.621 90.451 141.469L93.398 135.237C93.398 135.237 89.798 149.018 93.071 150.004C96.344 150.99 99.9429 147.704 99.9429 147.704L103.499 140.585C103.138 141.312 100.891 146.24 104.527 148.361C108.456 150.661 111.074 148.361 111.074 148.361C111.074 148.361 107.806 152.301 113.04 153.94C118.274 155.579 120.24 153.94 120.568 152.299C120.896 150.658 128.417 143.441 131.693 144.424C134.274 145.2 138.86 152.309 137.171 161.711C135.195 160.98 133.272 160.115 131.415 159.122L127.896 161.327C126.136 165.74 121.734 158.237 119.535 161.77C117.336 165.303 111.609 156.913 111.609 156.913C111.609 156.913 107.638 152.071 105.441 156.042Z" fill="#CDC7AC"/>
<path d="M145.487 160.892L146.812 155.599C146.812 155.599 155.612 162.215 158.25 157.804C160.888 153.393 166.611 153.834 166.611 153.834C166.611 153.834 179.375 159.134 182.011 151.185C184.647 143.236 190.372 146.775 190.372 146.775C190.372 146.775 203.299 148.788 200.589 143.441C200.233 142.741 199.829 142.067 199.379 141.423L197.855 136.623C197.855 136.623 208.421 135.302 205.338 128.682C202.255 122.062 201.378 119.856 201.378 119.856C201.378 119.856 206.221 116.33 204.019 114.122C201.817 111.914 200.058 105.739 200.058 105.739C200.058 105.739 206.216 99.998 203.134 97.351C201.35 95.8889 200.111 93.868 199.618 91.615C199.618 91.615 207.097 86.761 203.578 83.674C201.433 81.7052 200.034 79.0557 199.618 76.174C199.618 76.174 206.218 72.202 203.578 69.117C201.957 67.1798 200.759 64.9257 200.059 62.499C200.059 62.499 207.539 55.878 201.379 53.232C197.362 51.3227 193.883 48.4438 191.256 44.855C190.789 42.7616 190.036 40.7426 189.018 38.855C172.418 51.786 157.118 65.53 157.118 65.53C157.118 65.53 131.884 77.409 128.452 82.569C125.02 87.729 132.058 94.269 132.058 94.269C130.8 94.7524 129.637 95.452 128.62 96.336C127.763 97.366 126.561 102.016 130.68 103.05C134.799 104.084 132.226 108.55 132.226 108.55L129.306 111.477C128.106 112.684 128.453 115.607 129.137 118.189C129.524 119.671 129.987 121.131 130.525 122.565C128.426 123.675 126.618 125.262 125.244 127.198C122.601 130.675 128.383 135.307 128.383 135.307C127.384 136.392 126.649 137.692 126.235 139.107C125.574 141.426 128.213 143.739 128.213 143.739C126.994 144.812 125.667 145.755 124.254 146.555C121.285 148.373 123.981 154.674 123.981 154.674C123.981 154.674 114.821 154.555 120.904 160.804C123.226 160.567 126.441 164.936 127.881 161.324L131.4 159.119C131.4 159.119 144.168 166.187 145.487 160.892Z" fill="#E6E6D2"/>
<path d="M187.845 146.007C188.981 145.555 190.246 145.547 191.388 145.985C194.696 146.971 198.004 143.885 197.075 142.259C196.146 140.633 193.809 130.087 193.809 130.087L197.309 134.695C197.309 134.695 202.561 131.839 202.34 128.116C202.119 124.393 196.434 116.271 196.434 116.271L199.934 118.025C199.934 118.025 201.903 115.174 200.591 112.762C199.233 109.693 198.064 106.544 197.091 103.332H198.406C199.716 103.332 201.028 100.481 199.5 98.066C198.343 95.9187 197.461 93.6339 196.875 91.266L194.247 88.637C195.927 88.7572 197.615 88.6838 199.278 88.418C201.249 87.979 201.684 85.786 200.378 83.372C199.342 81.1204 198.535 78.7702 197.969 76.357L194.469 74.164C196.572 73.2677 198.498 72.0044 200.158 70.433C202.564 68.023 192.719 60.784 192.719 60.784L192.746 53.205C192.746 53.205 194.884 52.155 197.411 50.948C198.649 51.8515 199.983 52.6167 201.388 53.23C207.549 55.876 200.068 62.497 200.068 62.497C200.768 64.9237 201.966 67.1777 203.587 69.115C206.226 72.2 199.628 76.172 199.628 76.172C200.044 79.0536 201.442 81.7031 203.587 83.672C207.106 86.759 199.628 91.613 199.628 91.613C200.121 93.8663 201.361 95.8873 203.145 97.349C206.227 99.996 200.068 105.737 200.068 105.737C200.068 105.737 201.825 111.909 204.03 114.12C206.235 116.331 201.388 119.854 201.388 119.854C201.388 119.854 202.268 122.062 205.349 128.68C208.43 135.298 197.866 136.621 197.866 136.621L199.389 141.421C199.839 142.065 200.243 142.739 200.599 143.439C203.309 148.786 190.382 146.773 190.382 146.773C189.603 146.334 188.737 146.073 187.845 146.007Z" fill="#F3FAFA"/>
<path d="M68.036 40.877C68.9509 39.9773 70.0669 39.3085 71.2916 38.9259C72.5164 38.5433 73.8147 38.458 75.079 38.677C75.079 38.677 76.839 32.0541 80.36 28.969C83.881 25.884 93.1231 30.731 93.1231 30.731C93.1231 30.731 92.681 25.874 97.964 20.143C103.247 14.412 110.725 22.789 110.725 22.789C110.725 22.789 110.725 20.581 116.446 15.289C122.167 9.997 130.97 19.259 130.97 19.259C133.613 13.528 135.37 22.351 136.252 21.028C137.134 19.705 141.973 18.377 143.736 19.705C145.499 21.033 144.613 24.115 144.613 24.115C144.613 24.115 146.813 20.143 152.974 21.028C159.135 21.913 154.297 26.762 154.297 26.762C157.396 24.9085 160.84 23.7064 164.419 23.229C170.478 22.364 168.883 31.701 168.827 32.029C169.914 30.8082 171.374 29.9807 172.979 29.675C174.585 29.3694 176.247 29.6029 177.706 30.339C181.892 32.275 181.106 35.486 180.206 37.307C180.216 37.407 180.228 37.485 180.236 37.554C181.248 36.586 183.219 35.447 186.623 36.1C192.134 37.16 191.269 44.86 191.269 44.86C193.896 48.4489 197.374 51.328 201.391 53.238C207.552 55.884 200.072 62.505 200.072 62.505C200.505 64.0188 201.136 65.4687 201.949 66.817C197.517 66.901 193.671 62.503 193.671 62.503C193.671 62.503 188.908 62.059 188.908 66.953C188.908 71.847 180.333 66.953 180.333 66.953C180.333 66.953 172.717 66.064 176.524 72.734C180.331 79.404 163.189 75.4 163.189 75.4C163.189 75.4 155.568 74.9571 156.996 80.7371C158.424 86.5171 145.568 82.516 145.568 82.516C145.568 82.516 141.279 81.181 138.901 87.853C136.523 94.525 127.942 84.741 127.942 84.741C127.942 84.741 124.607 85.1851 118.416 88.2971C112.225 91.409 112.7 80.292 112.7 80.292C112.7 80.292 107.463 79.8491 101.746 79.8491C96.029 79.8491 99.367 75.8491 99.367 75.8491C99.367 75.8491 94.125 75.4031 88.8829 74.5131C83.6409 73.6231 90.792 66.5131 90.792 66.5131C90.792 66.5131 90.1189 66.432 88.9559 66.331C84.339 65.934 79.7007 65.8468 75.072 66.07C66.972 66.513 69.83 55.839 69.83 55.839C69.83 55.839 63.6391 55.839 63.1651 51.839C63.1351 51.6 63.135 51.349 63.117 51.107C63.854 48.636 65.687 43.225 68.036 40.877Z" fill="#F3FAFA"/>
<path d="M131.434 28.064C131.434 28.064 165.258 41.864 172.569 47.034L179.453 50.486C179.453 50.486 183.753 53.933 179.881 56.52C176.009 59.107 142.257 73.68 132.365 75.402C132.365 75.402 127.838 77.649 117.52 72.902C107.202 68.155 82.248 53.502 82.248 53.502C82.248 53.502 77.519 50.05 84.398 45.738C91.277 41.426 118.965 29.791 118.965 29.791C118.965 29.791 126.272 26.773 131.434 28.064Z" fill="#1E3216"/>
<path d="M131.859 30.965C131.859 30.965 161.999 42.704 168.519 47.107L174.653 50.046C174.653 50.046 178.485 52.978 175.032 55.176C171.579 57.374 141.503 69.783 132.687 71.247C132.687 71.247 128.654 73.159 119.452 69.123C110.25 65.087 88.016 52.612 88.016 52.612C88.016 52.612 83.802 49.673 89.934 46.003C96.066 42.333 120.734 32.438 120.734 32.438C120.734 32.438 127.258 29.868 131.859 30.965Z" fill="#4B1414"/>
<path d="M112.123 35.964C117.023 33.929 120.736 32.438 120.736 32.438C120.736 32.438 127.257 29.868 131.857 30.965C131.857 30.965 161.997 42.704 168.517 47.107L174.651 50.046C174.651 50.046 178.482 52.978 175.029 55.176C173.235 56.327 164.206 60.24 154.729 63.936C142.706 63.836 130.312 60.775 121.399 54.918C113.364 49.642 112.105 40.983 112.123 35.964Z" fill="#F77A16"/>
<path d="M112.123 35.964C112.461 35.826 112.779 35.69 113.105 35.555C113.388 38.855 114.244 44.036 115.484 46.916C117.013 50.464 134.902 60.249 140.739 61.498C145.332 62.481 154.951 62.39 158.839 62.309C157.489 62.849 156.112 63.396 154.724 63.935C142.701 63.835 130.307 60.774 121.394 54.917C113.364 49.642 112.105 40.983 112.123 35.964Z" fill="#D15815"/>
<path d="M89.934 46.002C93.149 44.083 101.444 40.451 108.622 37.432C110.035 39.773 114.768 47.961 115.228 53.17C115.676 58.27 111.849 61.326 104.884 61.812C96.3269 57.27 88.017 52.612 88.017 52.612C88.017 52.612 83.802 49.671 89.934 46.002Z" fill="#C9DA82"/>
<path d="M114.079 57.842C112.497 60.124 109.338 61.504 104.879 61.812C96.3221 57.271 88.013 52.612 88.013 52.612C88.013 52.612 84.665 50.257 88.339 47.137C88.29 48.411 88.305 50.724 89.111 51.666C90.211 52.947 99.6 57.612 102.247 58.893C104.894 60.174 112.282 57.429 112.282 57.429L114.079 57.842Z" fill="#9FBE78"/>
<path d="M89.9331 46.002C93.1481 44.083 101.442 40.451 108.621 37.432C110.611 40.7217 112.333 44.1662 113.771 47.732C113.891 49.294 113.971 50.376 113.971 50.376C113.971 50.376 107.66 41.106 107.283 40.788C106.906 40.47 104.655 40.667 102.53 41.734C100.405 42.801 92.2811 45.615 89.0941 48.246C88.014 49.0806 87.3053 50.3065 87.1211 51.659C86.3451 50.506 85.8981 48.412 89.9331 46.002Z" fill="#EBE995"/>
<path d="M107.058 62.962C108.174 62.6541 109.261 62.2481 110.306 61.749C113.619 60.165 117.406 58.11 122.606 58.588C127.806 59.066 137.906 63.169 141.22 64.753C141.803 65.1301 142.305 65.6191 142.697 66.1918C143.09 66.7644 143.365 67.4093 143.506 68.089C139.978 69.3977 136.361 70.4524 132.683 71.245C132.683 71.245 128.65 73.157 119.449 69.121C116.35 67.76 111.766 65.441 107.058 62.962Z" fill="#A43637"/>
<path d="M107.058 62.962C107.531 62.831 108.058 62.662 108.613 62.462C110.773 63.371 113.524 64.793 115.568 65.934C118.855 67.765 124.782 70.229 129.068 70.505C132.009 70.5458 134.949 70.3538 137.86 69.931C136.161 70.4702 134.432 70.9096 132.682 71.247C132.682 71.247 128.649 73.159 119.448 69.123C116.35 67.76 111.766 65.441 107.058 62.962Z" fill="#8C1F2D"/>
<path d="M171.34 51.369C168.44 49.915 130.755 32.061 128.273 32.061C126.3 32.061 116.233 36.12 112.181 37.788C112.142 37.145 112.122 36.529 112.124 35.964C117.024 33.929 120.737 32.438 120.737 32.438C120.737 32.438 127.258 29.868 131.858 30.965C131.858 30.965 161.998 42.704 168.518 47.107L174.652 50.046C174.652 50.046 178.484 52.978 175.03 55.176C173.236 56.327 164.207 60.24 154.73 63.936C154.302 63.936 153.875 63.897 153.444 63.887C158.703 61.056 166.265 56.987 168.236 55.938C171.34 54.274 174.24 52.823 171.34 51.369Z" fill="#FD992F"/>
<path d="M150.612 42.895C149.5 45.744 148.685 48.6999 148.179 51.716C147.881 54.8398 147.943 57.9876 148.366 61.097C148.366 61.097 149.866 50.775 150.802 47.961C151.738 45.147 152.861 40.83 152.302 41.202C151.691 41.7162 151.125 42.2827 150.612 42.895Z" fill="#FFB155"/>
<path d="M139.472 38.376C138.359 41.224 137.542 44.1793 137.036 47.195C136.737 50.3188 136.801 53.4668 137.225 56.576C137.225 56.576 138.725 46.257 139.654 43.438C140.583 40.619 141.716 36.312 141.154 36.684C140.544 37.1966 139.981 37.7629 139.472 38.376Z" fill="#FFB155"/>
<path d="M126.78 33.789C125.668 36.6378 124.853 39.5938 124.347 42.61C124.048 45.7354 124.11 48.885 124.534 51.996C124.534 51.996 126.034 41.669 126.967 38.858C127.9 36.047 129.026 31.725 128.467 32.102C127.856 32.6138 127.292 33.1783 126.78 33.789Z" fill="#FFB155"/>
<path d="M165.432 50.06C165.432 50.06 169.27 51.339 169.145 52.66C169.02 53.981 166.506 54.73 166.338 54.36C166.17 53.99 167.412 53.118 166.338 52.25C165.264 51.382 163.699 50.015 165.432 50.06Z" fill="#FD992F"/>
<path d="M154.458 44.598C154.458 44.598 157.178 45.298 157.058 46.128C156.938 46.958 155.2 46.828 154.539 46.335C153.878 45.842 153.138 44.97 154.458 44.598Z" fill="#FD992F"/>
<path d="M145.877 40.338C145.877 40.338 149.504 42.198 149.377 42.738C149.25 43.278 149.997 44.35 148.596 43.647C147.195 42.944 145.708 42.035 145.008 41.703C144.308 41.371 144.557 40.421 145.877 40.338Z" fill="#FD992F"/>
<path d="M135.523 35.912C135.523 35.912 139.234 36.777 138.863 37.568C138.492 38.359 138.905 38.847 137.295 38.351C135.685 37.855 133.127 36.614 133.377 36.158C133.627 35.702 135.523 35.912 135.523 35.912Z" fill="#FD992F"/>
<path d="M125.618 33.8C125.618 33.8 125.535 35.084 124.75 35.372C123.965 35.66 120.378 36.158 121.121 35.621C122.437 34.6355 123.987 34.008 125.618 33.8Z" fill="#FD992F"/>
<path d="M113.696 53.52C113.445 50.304 108.348 40.65 106.984 38.12C107.532 37.891 108.084 37.656 108.621 37.432C110.034 39.773 114.768 47.961 115.227 53.17C115.674 58.27 111.847 61.326 104.883 61.812C104.295 61.504 103.708 61.186 103.125 60.878C109.659 59.823 113.937 56.624 113.696 53.52Z" fill="#2E6234"/>
<path d="M118.275 59.94C115.609 60.3628 112.973 60.9536 110.381 61.709C113.672 60.132 117.44 58.109 122.605 58.587C127.813 59.058 137.905 63.167 141.219 64.752C141.802 65.1293 142.304 65.6183 142.696 66.191C143.089 66.7636 143.363 67.4084 143.505 68.088C142.694 68.369 141.932 68.625 141.162 68.876C141.002 68.625 140.845 68.376 140.69 68.129C139.361 66.034 137.653 65.083 133.473 63.366C129.293 61.649 122.556 59.372 118.275 59.94Z" fill="#CC4E4B"/>
<path d="M131.877 64.714C131.877 64.714 138.328 66.914 138.503 67.525C138.678 68.136 138.67 68.656 136.649 68.988C134.628 69.32 133.395 69.045 134.067 68.426C134.739 67.807 135.642 67.303 135.246 66.849C134.85 66.395 129.806 65.446 131.877 64.714Z" fill="#CC4E4B"/>
<path d="M119.25 60.885C119.25 60.885 128.063 62.745 128.734 63.477C129.405 64.209 126.041 63.023 124.584 62.799C123.127 62.575 120.877 61.616 119.87 61.616C118.863 61.616 117.452 60.885 119.25 60.885Z" fill="#CC4E4B"/>
<path d="M110.154 48.557C110.154 48.557 112.96 53.621 112.175 54.806C111.39 55.991 110.826 56.156 110.826 55.427C110.826 54.698 111.555 54.747 111.108 52.889C110.661 51.031 108.865 48.052 110.154 48.557Z" fill="#EBE995"/>
<path d="M117.36 91.949C117.29 93.2836 117.512 94.6174 118.011 95.857C118.874 98.457 115.628 95.64 115.411 93.686C115.194 91.732 117.36 91.949 117.36 91.949Z" fill="#E8E2C6"/>
<path d="M65.128 66.409C65.128 66.409 59.714 69.009 63.611 71.401C67.508 73.793 67.942 71.837 67.942 71.187C67.942 70.537 64.476 68.363 65.128 66.409Z" fill="#E8E2C6"/>
<path d="M61.66 55.118C61.66 55.118 58.846 57.725 61.878 58.593C64.91 59.461 64.9109 58.159 64.9109 58.159L61.66 55.118Z" fill="#E8E2C6"/>
<path d="M61.8789 85.086C61.2499 84.928 57.7599 86.823 59.2789 89.428C60.7979 92.033 61.8789 91.384 62.5299 88.78C63.1809 86.176 62.7449 85.306 61.8789 85.086Z" fill="#E8E2C6"/>
<path d="M59.7149 105.501C59.7149 105.501 57.329 107.891 58.847 108.975C60.365 110.059 62.0959 109.192 62.0959 108.542C62.0959 107.892 61.2259 104.414 59.7149 105.501Z" fill="#E8E2C6"/>
<path d="M67.0769 126.571C64.9119 127.653 61.008 129.612 64.044 129.395C67.08 129.178 69.244 127.219 70.112 126.571C70.98 125.923 67.0769 126.571 67.0769 126.571Z" fill="#E8E2C6"/>
<path d="M117.756 149.809C116.864 150.851 116.237 153.5 114.939 151.763C113.641 150.026 113.423 149.163 114.723 148.508C116.023 147.853 119.054 148.289 117.756 149.809Z" fill="#E8E2C6"/>
<path d="M123.185 106.536C122.534 109.143 123.401 112.403 121.233 110.013C119.065 107.623 119.068 108.273 119.068 105.013C119.068 101.753 123.185 106.536 123.185 106.536Z" fill="#E8E2C6"/>
<path d="M78.06 120.987C78.06 120.987 77.8601 128.793 82.2501 130.787C84.5428 131.939 87.0674 132.554 89.633 132.587C89.633 132.587 82.8451 129.787 81.8501 126.787C80.978 124.625 79.6903 122.654 78.06 120.987Z" fill="#CDC7AC"/>
<path d="M66.8841 106.582C66.8841 106.582 64.692 109.982 67.284 112.782C69.876 115.582 74.47 113.582 74.47 113.582C74.47 113.582 69.683 112.982 68.685 110.582C67.687 108.182 66.8841 106.582 66.8841 106.582Z" fill="#CDC7AC"/>
<path d="M112.58 136.192C112.58 136.192 112.38 140.992 107.591 140.392C102.802 139.792 101.604 137.392 101.604 137.392C101.604 137.392 106.989 139.398 108.987 138.192C110.985 136.986 112.58 136.192 112.58 136.192Z" fill="#CDC7AC"/>
<path d="M94.4189 122.389C94.4189 122.389 94.4239 126.589 96.8189 128.589C99.2139 130.589 102.801 130.189 102.801 130.189C102.801 130.189 98.414 134.189 95.421 129.989C92.428 125.789 94.4189 122.389 94.4189 122.389Z" fill="#CDC7AC"/>
<path fill-rule="evenodd" clip-rule="evenodd" d="M148.472 125.851C146.707 126.132 145.134 125.543 144.972 124.535C144.81 123.527 146.123 122.483 147.89 122.199C149.657 121.915 151.225 122.505 151.384 123.51C151.543 124.515 150.239 125.565 148.472 125.851Z" fill="#E94153"/>
<path fill-rule="evenodd" clip-rule="evenodd" d="M186.834 117.2C185.082 117.58 183.481 117.077 183.268 116.081C183.055 115.085 184.303 113.965 186.053 113.587C187.803 113.209 189.402 113.71 189.614 114.705C189.826 115.7 188.576 116.823 186.834 117.2Z" fill="#E94153"/>
<path d="M189.546 44.679C189.546 44.679 191.659 42.679 196.698 45.152C201.737 47.625 198.224 53.263 198.224 53.263L190.839 49.853L189.546 44.679Z" fill="#F3FAFA"/>
<path d="M120.585 13.649C125.642 13.649 130.966 19.255 130.966 19.255C131.627 17.823 132.229 17.299 132.782 17.299C134.274 17.299 135.362 21.16 136.049 21.16C136.091 21.1565 136.132 21.1422 136.167 21.1184C136.202 21.0946 136.23 21.062 136.249 21.024C136.874 20.088 139.475 19.149 141.568 19.149C142.33 19.1023 143.087 19.2953 143.734 19.701C145.491 21.024 144.61 24.112 144.61 24.112C144.61 24.112 146.392 20.896 151.236 20.896C151.817 20.8974 152.397 20.9402 152.971 21.024C159.13 21.901 154.294 26.758 154.294 26.758C157.393 24.9041 160.838 23.7016 164.417 23.224C164.667 23.19 164.919 23.172 165.172 23.17C165.272 23.17 165.372 23.17 165.472 23.182C165.551 23.1909 165.629 23.2049 165.706 23.224C165.929 23.2454 166.15 23.2876 166.365 23.35C166.436 23.374 166.495 23.416 166.565 23.45C166.75 23.519 166.928 23.6064 167.096 23.711C167.15 23.7507 167.201 23.7935 167.25 23.839C167.408 23.9556 167.556 24.085 167.693 24.226C167.729 24.268 167.759 24.326 167.793 24.366C167.927 24.5248 168.048 24.6936 168.155 24.871C168.179 24.918 168.199 24.965 168.221 25.009C168.328 25.2066 168.424 25.4107 168.506 25.62C168.523 25.664 168.533 25.706 168.548 25.751C168.631 25.9759 168.7 26.2053 168.757 26.438C168.764 26.477 168.769 26.514 168.779 26.554C168.836 26.798 168.884 27.044 168.92 27.298C168.927 27.327 168.929 27.362 168.934 27.392C168.966 27.651 168.995 27.912 169.013 28.166V28.247C169.027 28.508 169.038 28.767 169.038 29.018V29.08C169.038 29.336 169.038 29.58 169.031 29.819L169.026 29.878C169.015 30.11 169.001 30.334 168.986 30.543V30.592C168.969 30.792 168.949 30.986 168.932 31.154L168.927 31.203C168.91 31.366 168.893 31.508 168.874 31.627L168.869 31.674C168.849 31.795 168.838 31.883 168.832 31.937V31.962L168.823 32.026C169.522 31.266 170.367 30.6537 171.306 30.2253C172.246 29.797 173.262 29.5612 174.294 29.532C175.475 29.5477 176.638 29.8208 177.702 30.332C181.888 32.269 181.102 35.479 180.202 37.3C180.212 37.4 180.224 37.478 180.232 37.547C181.445 36.4291 183.052 35.8373 184.7 35.901C185.344 35.9047 185.987 35.969 186.619 36.093C190.991 36.933 191.347 41.94 191.308 43.978C191.594 43.936 191.884 43.9156 192.173 43.917C193.757 43.9771 195.306 44.3992 196.702 45.151C200.197 46.859 199.582 50.089 198.874 51.917C199.007 51.996 199.137 52.08 199.274 52.159C199.411 52.238 199.55 52.307 199.682 52.383C199.882 52.494 200.082 52.61 200.297 52.718C200.653 52.898 201.017 53.073 201.391 53.23C207.552 55.876 200.071 62.497 200.071 62.497C200.078 62.5197 200.084 62.5427 200.089 62.566L200.099 62.6C200.131 62.716 200.192 62.93 200.29 63.218C200.298 63.235 200.303 63.258 200.312 63.277C200.412 63.583 200.558 63.965 200.737 64.398L200.759 64.452C200.948 64.903 201.182 65.403 201.459 65.942L201.475 65.972C201.619 66.243 201.775 66.524 201.945 66.807C202.428 67.6206 202.978 68.392 203.591 69.113C206.231 72.198 199.631 76.17 199.631 76.17C200.047 79.0518 201.446 81.7014 203.591 83.67C207.11 86.757 199.631 91.611 199.631 91.611C200.124 93.8644 201.364 95.8854 203.148 97.347C206.23 99.993 200.071 105.735 200.071 105.735C200.071 105.735 201.829 111.907 204.033 114.117C206.237 116.327 201.391 119.851 201.391 119.851C201.391 119.851 202.271 122.059 205.353 128.677C208.435 135.295 197.869 136.619 197.869 136.619L199.393 141.419C199.843 142.062 200.248 142.737 200.603 143.437C202.151 146.49 198.603 147.143 195.28 147.143C193.643 147.13 192.008 147.006 190.387 146.771L190.355 146.753L190.335 146.738C190.305 146.723 190.261 146.701 190.215 146.674L190.185 146.659C190.126 146.627 190.055 146.595 189.978 146.559L189.954 146.547C189.744 146.452 189.53 146.368 189.312 146.294L189.283 146.287C189.157 146.245 189.022 146.208 188.883 146.171L188.834 146.159C188.692 146.122 188.543 146.092 188.389 146.065H188.36C188.194 146.04 188.025 146.018 187.853 146.006C187.74 145.996 187.62 145.991 187.499 145.991C185.68 145.991 183.419 146.984 182.024 151.185C180.896 154.585 177.9 155.564 174.852 155.564C172.03 155.459 169.246 154.874 166.62 153.834C166.62 153.834 166.463 153.822 166.187 153.822C164.805 153.822 160.46 154.122 158.259 157.804C157.963 158.3 157.535 158.704 157.023 158.972C156.511 159.241 155.936 159.362 155.359 159.324C152.005 159.324 147.459 156.069 146.885 155.645L146.873 155.638L146.853 155.623L146.82 155.598L145.496 160.891C145.139 162.335 143.925 162.862 142.352 162.862C138.162 162.862 131.411 159.129 131.411 159.129L127.892 161.334C127.819 161.517 127.732 161.694 127.633 161.864L127.575 161.953L127.565 161.975C127.485 162.096 127.394 162.21 127.293 162.315C127.274 162.331 127.257 162.35 127.241 162.369L127.206 162.394C127.124 162.47 127.034 162.537 126.938 162.594L126.901 162.616C126.869 162.631 126.842 162.64 126.812 162.655C126.8 162.656 126.789 162.66 126.778 162.665C126.71 162.694 126.638 162.717 126.565 162.731C126.537 162.736 126.509 162.746 126.479 162.75C126.45 162.756 126.421 162.761 126.392 162.763H126.363C126.316 162.763 126.263 162.763 126.22 162.763C126.191 162.763 126.161 162.763 126.134 162.763C126.107 162.763 126.075 162.763 126.046 162.753C126.017 162.743 125.984 162.753 125.955 162.745H125.95H125.919C125.86 162.735 125.799 162.723 125.737 162.708C125.703 162.698 125.668 162.693 125.637 162.683C125.517 162.653 125.399 162.616 125.283 162.572L125.111 162.505C125.037 162.473 124.961 162.436 124.885 162.405C124.75 162.341 124.614 162.277 124.477 162.205C123.346 161.624 122.149 160.805 121.107 160.805C121.044 160.805 120.982 160.805 120.92 160.815C120.629 160.853 120.352 160.962 120.112 161.13C119.872 161.299 119.676 161.523 119.541 161.783C119.404 162.042 119.2 162.259 118.95 162.411C118.7 162.563 118.414 162.645 118.121 162.648C115.521 162.648 111.615 156.926 111.615 156.926C111.615 156.926 109.624 154.482 107.681 154.482C107.2 154.504 106.736 154.664 106.342 154.941C105.948 155.218 105.642 155.602 105.459 156.047C105.068 156.747 104.681 157.037 104.306 157.037C102.55 157.037 101.057 150.751 101.057 150.751C100.865 150.695 100.665 150.671 100.465 150.68C99.4371 150.68 96.965 151.128 92.254 154.28C91.6264 154.767 90.8709 155.063 90.079 155.13C86.427 155.13 88.735 144.572 88.735 144.572C86.0056 144.841 83.2646 144.972 80.5221 144.966C77.9738 144.974 75.427 144.842 72.8931 144.572C64.9701 143.69 72.011 138.394 72.011 138.394C71.3101 138.503 70.6012 138.55 69.8921 138.535C66.1252 138.439 62.3919 137.799 58.808 136.635C50.002 133.986 57.928 127.809 57.928 127.809C55.6761 126.24 54.1037 123.875 53.5281 121.191C52.6461 116.78 53.5281 115.891 53.5281 115.891C53.5281 115.891 51.3281 115.45 50.4491 109.716C49.5701 103.982 58.369 101.331 58.369 101.331C55.8293 98.3466 53.8871 94.9018 52.6481 91.184C50.8891 85.443 57.0481 82.799 57.0481 82.799C57.0481 82.799 54.8481 80.15 53.5281 74.417C52.2081 68.684 59.249 64.709 59.249 64.709C59.249 64.709 52.649 61.183 55.73 55.444C57.33 52.46 59.1731 51.744 60.5691 51.744C61.3441 51.7457 62.1042 51.9568 62.7691 52.355C62.7691 52.355 62.899 51.87 63.13 51.101C63.7559 49.0036 64.5278 46.9526 65.4401 44.963C65.4541 44.928 65.4721 44.896 65.4871 44.863C65.6201 44.582 65.7541 44.309 65.8941 44.042C65.9101 44.01 65.9271 43.98 65.9411 43.951C66.2297 43.3968 66.5471 42.858 66.8921 42.337L67.0091 42.167C67.1371 41.984 67.264 41.805 67.396 41.637C67.442 41.578 67.4841 41.521 67.5281 41.469C67.7001 41.257 67.8751 41.06 68.0491 40.88C68.7972 40.1337 69.6866 39.5441 70.6653 39.1456C71.644 38.747 72.6924 38.5476 73.749 38.559C74.1996 38.5517 74.6497 38.5912 75.0921 38.677C75.0921 38.677 75.1551 38.433 75.2841 38.027V38.017C75.3281 37.882 75.3721 37.736 75.4291 37.571V37.563C76.0951 35.545 77.7421 31.275 80.3711 28.968C81.3223 28.23 82.5093 27.8628 83.7111 27.935C87.8111 27.935 93.1341 30.73 93.1341 30.73C93.1341 30.73 92.6921 25.873 97.9751 20.142C98.5057 19.5169 99.1652 19.0139 99.9085 18.6676C100.652 18.3213 101.461 18.14 102.281 18.136C106.581 18.136 110.736 22.788 110.736 22.788C110.736 22.788 110.736 20.58 116.457 15.288C117.573 14.2245 119.059 13.6376 120.6 13.652M120.6 10.846C118.357 10.8351 116.195 11.6872 114.562 13.226C112.85 14.7575 111.291 16.4514 109.907 18.284C107.739 16.5215 105.071 15.4871 102.281 15.328C101.075 15.3351 99.884 15.5981 98.7871 16.0998C97.6902 16.6014 96.7123 17.3302 95.9181 18.238C93.6159 20.6288 91.9014 23.5224 90.9101 26.69C88.6174 25.7609 86.1818 25.2341 83.7101 25.133C81.8284 25.0464 79.9816 25.661 78.5271 26.858C75.7941 29.258 74.0271 33.166 73.0861 35.77C70.439 35.9084 67.9373 37.0237 66.0651 38.9C65.8183 39.1505 65.5846 39.4135 65.365 39.688C65.32 39.74 65.2761 39.799 65.2271 39.856L65.1911 39.915C65.0261 40.115 64.8681 40.339 64.6911 40.6L64.641 40.664L64.5701 40.775C64.1696 41.3761 63.8024 41.9987 63.4701 42.64L63.4141 42.74C63.2611 43.04 63.1141 43.34 62.9661 43.64L62.9131 43.753C62.1317 45.4404 61.4521 47.1732 60.8781 48.942C60.7781 48.942 60.6781 48.942 60.5711 48.942C58.5071 48.942 55.565 49.836 53.271 54.114C52.6961 55.1223 52.3291 56.2355 52.1917 57.388C52.0543 58.5405 52.1493 59.7088 52.4711 60.824C52.9204 62.2421 53.6832 63.541 54.703 64.624C52.103 67.053 49.8121 70.712 50.8101 75.049C51.3357 77.4254 52.1493 79.7288 53.2331 81.908C51.7041 83.0411 50.5682 84.6243 49.9846 86.4356C49.4011 88.2469 49.3991 90.1955 49.979 92.008C50.9125 94.8994 52.2577 97.6412 53.973 100.149C50.442 102.066 46.962 105.392 47.692 110.143C48.237 113.689 49.313 115.763 50.375 116.975C50.2996 118.574 50.4403 120.175 50.7931 121.736C51.2638 124.028 52.3311 126.154 53.8871 127.901C53.154 128.704 52.6023 129.656 52.2694 130.691C51.9366 131.726 51.8303 132.821 51.958 133.901C52.429 136.424 54.467 138.248 58.015 139.312C60.7863 140.167 63.6276 140.776 66.506 141.131C66.2876 141.901 66.2808 142.715 66.4861 143.489C67.0801 145.67 69.135 146.971 72.593 147.355C75.2294 147.639 77.8795 147.776 80.531 147.766C82.374 147.766 84.0401 147.71 85.3991 147.636C85.0581 150.636 85.0721 154.296 86.6701 156.285C87.0762 156.803 87.5955 157.221 88.1881 157.506C88.7808 157.792 89.431 157.938 90.089 157.934C91.4364 157.875 92.7351 157.413 93.817 156.608C95.429 155.468 97.1756 154.531 99.0171 153.819C100.963 159.839 103.436 159.839 104.317 159.839C105.085 159.812 105.83 159.57 106.467 159.14C107.104 158.709 107.606 158.108 107.917 157.405L107.924 157.388C108.478 157.72 108.976 158.137 109.399 158.625C110.883 160.776 114.52 165.45 118.131 165.45C118.785 165.449 119.43 165.3 120.019 165.015C120.608 164.73 121.125 164.316 121.531 163.804C121.814 163.945 122.143 164.127 122.394 164.265C122.645 164.403 122.908 164.551 123.163 164.679C123.182 164.686 123.195 164.699 123.213 164.706C123.389 164.795 123.564 164.881 123.736 164.96L123.79 164.982C123.883 165.026 123.976 165.066 124.031 165.088C124.131 165.127 124.223 165.167 124.331 165.204C124.533 165.281 124.738 165.348 124.947 165.404C125.015 165.419 125.08 165.438 125.114 165.443C125.24 165.472 125.363 165.497 125.488 165.519C125.533 165.519 125.577 165.534 125.623 165.536H125.665L125.737 165.543C125.837 165.555 125.937 165.565 125.99 165.565C126.069 165.565 126.152 165.572 126.233 165.572C126.314 165.572 126.42 165.572 126.513 165.562C126.582 165.561 126.651 165.556 126.72 165.547C126.787 165.541 126.854 165.531 126.92 165.517C126.989 165.507 127.062 165.492 127.129 165.48L127.191 165.465C127.422 165.413 127.649 165.342 127.869 165.253L127.894 165.243C127.99 165.207 128.083 165.165 128.174 165.118C128.206 165.103 128.234 165.088 128.263 165.074C128.292 165.06 128.354 165.02 128.405 164.99C128.64 164.851 128.86 164.689 129.063 164.507L129.13 164.45L129.189 164.396C129.229 164.361 129.275 164.314 129.305 164.285C129.532 164.054 129.737 163.801 129.915 163.531C129.934 163.501 129.957 163.462 129.976 163.431C129.995 163.4 130.011 163.372 130.02 163.357C130.033 163.339 130.045 163.32 130.055 163.3L131.561 162.354C133.979 163.554 138.752 165.666 142.372 165.666C145.404 165.666 147.592 164.133 148.231 161.566L148.615 160.033C150.674 161.251 152.991 161.967 155.378 162.123C156.438 162.162 157.49 161.916 158.422 161.41C159.355 160.903 160.134 160.156 160.678 159.245C162.078 156.907 165.043 156.645 166.095 156.623C168.905 157.685 171.871 158.274 174.873 158.365C179.86 158.365 183.353 156.127 184.702 152.065C185.424 149.892 186.375 148.795 187.521 148.795C187.578 148.795 187.629 148.795 187.681 148.795C187.766 148.799 187.85 148.809 187.934 148.824H187.973L188.133 148.856L188.202 148.871C188.281 148.895 188.357 148.915 188.45 148.945C188.569 148.982 188.686 149.028 188.798 149.083L188.826 149.096H188.833L188.933 149.148L188.958 149.155L189.002 149.182C189.304 149.358 189.637 149.477 189.982 149.532C191.744 149.789 193.522 149.922 195.303 149.932C197.923 149.932 201.585 149.632 203.157 147.064C203.589 146.316 203.814 145.466 203.808 144.602C203.801 143.739 203.564 142.892 203.12 142.151C202.771 141.463 202.383 140.795 201.958 140.151L201.489 138.67C203.755 137.961 206.547 136.615 207.923 134.114C208.468 133.092 208.752 131.952 208.751 130.794C208.749 129.636 208.462 128.496 207.914 127.476C206.375 124.176 205.392 121.976 204.797 120.616C206.196 119.365 207.12 117.67 207.412 115.816C207.469 115.136 207.375 114.452 207.136 113.812C206.898 113.173 206.522 112.594 206.035 112.116C205.111 111.189 204.008 108.624 203.27 106.471C204.759 104.805 206.89 101.92 206.836 99.106C206.829 98.3618 206.661 97.628 206.343 96.9548C206.026 96.2817 205.567 95.6851 204.997 95.206C204.159 94.4951 203.468 93.6271 202.963 92.651C204.794 91.158 207.144 88.728 207.34 85.956C207.398 85.124 207.257 84.2902 206.93 83.523C206.603 82.7559 206.098 82.0773 205.458 81.543C204.219 80.416 203.303 78.9794 202.803 77.381C204.42 76.122 206.565 74.03 206.966 71.546C207.091 70.7867 207.045 70.0091 206.833 69.2694C206.621 68.5297 206.248 67.8461 205.74 67.268C205.252 66.6928 204.811 66.0799 204.42 65.435C204.405 65.405 204.393 65.376 204.376 65.349C204.238 65.122 204.112 64.896 203.976 64.642L203.964 64.615C203.757 64.223 203.558 63.804 203.376 63.376C203.361 63.341 203.351 63.312 203.344 63.299L203.312 63.223C204.895 61.486 207.069 58.452 206.576 55.35C206.38 54.2736 205.9 53.269 205.187 52.4395C204.473 51.6101 203.551 50.9858 202.516 50.631C202.4 50.582 202.279 50.531 202.159 50.473C202.438 48.8813 202.177 47.2418 201.415 45.8162C200.654 44.3907 199.437 43.2612 197.959 42.608C196.699 41.9699 195.356 41.5128 193.968 41.25C193.324 36.926 190.895 34.033 187.168 33.319C186.363 33.16 185.544 33.0782 184.723 33.075C184.348 33.0741 183.972 33.0938 183.599 33.134C183.539 32.8407 183.459 32.5518 183.361 32.269C182.966 31.253 182.367 30.3291 181.599 29.5549C180.832 28.7807 179.913 28.1728 178.901 27.769C177.47 27.0854 175.906 26.723 174.32 26.707C173.449 26.7076 172.582 26.8277 171.744 27.064V27.034C171.744 26.997 171.735 26.913 171.729 26.876C171.685 26.588 171.629 26.287 171.552 25.942C171.54 25.883 171.53 25.831 171.512 25.76C171.437 25.4505 171.346 25.1453 171.237 24.846C171.214 24.7627 171.187 24.6805 171.156 24.6C171.041 24.299 170.907 24.0055 170.756 23.721C170.712 23.6232 170.662 23.5277 170.608 23.435C170.446 23.158 170.262 22.8942 170.058 22.646C169.977 22.532 169.891 22.4225 169.798 22.318C169.572 22.0739 169.325 21.8488 169.062 21.645C168.939 21.5367 168.81 21.4365 168.674 21.345C168.386 21.1568 168.08 20.9983 167.76 20.872C167.603 20.789 167.439 20.7197 167.27 20.665C166.923 20.5569 166.567 20.4793 166.206 20.433C166.038 20.3973 165.867 20.3736 165.695 20.362C165.537 20.352 165.373 20.345 165.203 20.345C164.819 20.3467 164.435 20.3747 164.055 20.429C162.219 20.6933 160.41 21.1196 158.649 21.703C158.155 20.357 156.84 18.717 153.404 18.226C152.697 18.1247 151.984 18.0719 151.269 18.068C149.735 18.0566 148.213 18.3454 146.789 18.918C146.44 18.3406 145.983 17.836 145.442 17.432C144.317 16.6536 142.968 16.2642 141.601 16.323C139.98 16.3546 138.379 16.6844 136.878 17.296C136.033 15.914 134.809 14.47 132.818 14.47C132.049 14.4667 131.299 14.7052 130.673 15.152C128.323 13.252 124.55 10.823 120.621 10.823L120.6 10.846Z" fill="#030504"/>
<path d="M135.8 91.454C133.6 91.454 129.891 88.896 126.812 86.415C124.824 87.474 119.641 90.126 116.76 90.047C113.302 90.003 112.017 84.163 111.607 81.472C108.795 81.349 101.166 80.994 99.1591 80.667C98.7437 80.6258 98.347 80.4743 98.0099 80.2281C97.6728 79.9819 97.4077 79.6501 97.2421 79.267C96.986 78.4747 97.0388 77.6149 97.39 76.86C95.4 76.628 92.06 76.217 88.697 75.726C88.0749 75.7092 87.4719 75.5077 86.9647 75.1471C86.4575 74.7865 86.0692 74.2831 85.8491 73.701C85.2941 72.028 86.449 69.88 87.717 68.172C83.308 68.638 75.544 68.951 70.739 66.181C68.456 64.865 67.1391 63.181 66.8301 61.181C66.6459 59.7046 66.9296 58.2077 67.6411 56.901C64.5953 56.309 61.8036 54.799 59.6411 52.574C59.4231 52.3323 59.3091 52.0144 59.3238 51.6893C59.3386 51.3641 59.481 51.0579 59.7201 50.837C59.96 50.6168 60.2774 50.5006 60.6028 50.5139C60.9281 50.5272 61.2349 50.6689 61.4561 50.908C61.4901 50.947 65.081 54.774 69.795 54.596C70.0343 54.5962 70.2687 54.6639 70.4712 54.7912C70.6737 54.9186 70.8362 55.1005 70.9401 55.316C71.04 55.5344 71.0743 55.7771 71.0388 56.0147C71.0033 56.2522 70.8995 56.4744 70.7401 56.654C70.7211 56.674 68.929 58.706 69.265 60.813C69.4435 61.5194 69.779 62.1764 70.2465 62.7353C70.7139 63.2942 71.3014 63.7404 71.9651 64.041C78.0331 67.541 90.4341 65.31 90.5651 65.29C90.8225 65.2431 91.0881 65.2797 91.3232 65.3945C91.5584 65.5093 91.7507 65.6962 91.8721 65.928C91.9937 66.1607 92.038 66.4262 91.9987 66.6858C91.9593 66.9454 91.8382 67.1858 91.6531 67.372C89.7731 69.262 87.8881 72.036 88.1841 72.919C88.2331 73.072 88.5741 73.219 89.0531 73.286C94.2691 74.047 99.4421 74.609 99.4911 74.616C99.7058 74.6395 99.9105 74.719 100.085 74.8466C100.259 74.9742 100.397 75.1454 100.484 75.343C100.57 75.5421 100.603 75.7602 100.58 75.9759C100.556 76.1916 100.477 76.3974 100.349 76.573C99.9303 77.095 99.6497 77.714 99.5331 78.373C101.833 78.614 112.633 79.055 112.743 79.06C113.038 79.0725 113.319 79.1904 113.534 79.3922C113.749 79.5941 113.885 79.8665 113.916 80.16C114.299 83.66 115.616 87.577 116.796 87.591H116.835C119.174 87.591 124.49 84.91 126.354 83.87C126.57 83.7509 126.817 83.6992 127.062 83.7216C127.308 83.7441 127.541 83.8397 127.732 83.996C131.089 86.758 134.901 89.096 135.732 89.018C136.465 88.2431 137.094 87.377 137.605 86.441C138.971 84.278 140.52 81.821 142.687 81.589C144.225 81.5604 145.757 81.7896 147.219 82.267C149.319 82.802 151.694 83.405 153.227 82.725C154.149 82.316 154.456 81.589 154.92 80.337C155.491 78.804 156.274 76.703 159.315 76.23C161.433 76.0108 163.564 75.9456 165.692 76.035C169.251 76.077 174.092 76.135 175.231 75.052C175.619 74.68 175.186 73.48 174.805 72.42C174.26 70.902 173.643 69.182 174.488 67.711C174.839 67.1912 175.301 66.7564 175.842 66.4387C176.382 66.121 176.987 65.9285 177.612 65.875C178.781 65.6281 179.988 65.6318 181.156 65.8859C182.323 66.14 183.423 66.6387 184.383 67.349C185.592 68.11 186.089 68.426 187.263 67.797C187.818 67.5375 188.306 67.1549 188.691 66.6784C189.075 66.2019 189.346 65.644 189.483 65.047C189.59 64.4136 189.889 63.8285 190.34 63.3711C190.791 62.9136 191.372 62.606 192.004 62.49C193.137 62.4045 194.277 62.4765 195.391 62.704C198.168 63.104 200.48 63.33 200.746 62.056C200.778 61.8973 200.841 61.7465 200.932 61.6124C201.022 61.4783 201.139 61.3635 201.274 61.2747C201.409 61.186 201.561 61.125 201.72 61.0954C201.879 61.0657 202.043 61.068 202.201 61.102C202.359 61.1348 202.509 61.1986 202.643 61.2896C202.776 61.3807 202.891 61.4971 202.979 61.6324C203.067 61.7677 203.128 61.9191 203.158 62.078C203.188 62.2368 203.186 62.3999 203.152 62.558C202.39 66.202 197.969 65.558 195.04 65.143C194.174 64.9694 193.291 64.8949 192.408 64.921C192.138 64.965 192.101 64.973 191.816 65.828C191.579 66.7218 191.153 67.5543 190.566 68.2692C189.979 68.9841 189.246 69.5648 188.416 69.972C185.986 71.272 184.366 70.251 183.068 69.43C182.367 68.8813 181.553 68.4955 180.685 68.3004C179.816 68.1053 178.915 68.1058 178.047 68.302C177.507 68.3321 176.997 68.5604 176.614 68.943C176.339 69.421 176.771 70.621 177.114 71.585C177.714 73.265 178.468 75.355 176.92 76.836C175.193 78.484 171.348 78.568 165.659 78.499C163.667 78.4133 161.671 78.4695 159.687 78.667C158.139 78.906 157.795 79.66 157.222 81.2C157.023 82.0083 156.652 82.7642 156.134 83.4162C155.616 84.0681 154.964 84.6008 154.222 84.978C151.914 86.008 149.097 85.288 146.61 84.655C145.427 84.269 144.193 84.0615 142.948 84.039C141.958 84.145 140.638 86.239 139.68 87.76C138.638 89.411 137.74 90.835 136.592 91.315C136.34 91.4144 136.071 91.4618 135.8 91.454Z" fill="#030504"/>
<path d="M121.126 163.534C120.894 163.533 120.667 163.467 120.471 163.343C120.275 163.22 120.118 163.043 120.017 162.834C118.896 160.493 117.611 157.434 117.859 156.139C118.124 154.779 119.503 154.557 120.418 154.412C121.313 154.394 122.166 154.027 122.794 153.389C123.209 152.842 123.128 152.477 122.622 151.272C122.117 150.281 121.89 149.171 121.966 148.061C122.18 146.334 123.717 145.388 124.954 144.631C125.628 144.215 126.554 143.648 126.567 143.283C126.582 142.702 126.372 142.138 125.982 141.708C125.397 140.98 125.055 140.086 125.006 139.153C124.996 138.632 125.108 138.116 125.335 137.647C125.562 137.178 125.896 136.768 126.311 136.453C126.684 136.115 126.682 136.093 126.672 136.004C126.439 135.718 126.182 135.453 125.904 135.211C124.74 134.111 122.98 132.444 123.339 129.273C123.739 125.762 126.848 123.379 128.517 122.098C128.764 121.903 129.062 121.679 129.239 121.524C129.036 120.37 128.749 119.232 128.381 118.119C127.869 116.626 127.513 115.085 127.319 113.519C127.256 112.014 128.319 110.89 129.352 109.801C130.529 108.557 131.752 107.271 131.758 105.292C131.758 104.277 131.579 104.192 130.113 103.986C128.786 103.796 126.313 103.449 126.157 100.233C126.126 98.9461 126.454 97.676 127.105 96.5653C127.756 95.4546 128.703 94.5472 129.841 93.945C127.526 91.279 125.98 86.676 125.778 86.06C125.728 85.9065 125.708 85.7444 125.721 85.5833C125.733 85.4222 125.777 85.2651 125.85 85.1209C125.923 84.9768 126.024 84.8485 126.147 84.7433C126.269 84.6381 126.411 84.5582 126.565 84.508C126.718 84.4572 126.881 84.4373 127.042 84.4495C127.203 84.4617 127.36 84.5057 127.504 84.579C127.648 84.6522 127.777 84.7533 127.881 84.8764C127.986 84.9995 128.066 85.1421 128.115 85.296C128.926 87.785 130.885 92.139 132.686 93.218C132.89 93.3395 133.054 93.5176 133.159 93.7306C133.264 93.9436 133.304 94.1823 133.276 94.418C133.248 94.6537 133.152 94.8763 133.001 95.0592C132.85 95.2422 132.649 95.3778 132.423 95.45C132.259 95.502 128.442 96.75 128.609 100.104C128.667 101.247 129.009 101.339 130.456 101.541C131.775 101.728 134.233 102.073 134.216 105.301C134.201 108.255 132.43 110.128 131.135 111.493C130.459 112.21 129.758 112.952 129.778 113.412C129.974 114.774 130.296 116.116 130.739 117.419C131.629 120.425 132.029 121.913 131.364 122.85C130.968 123.309 130.513 123.712 130.01 124.05C128.538 125.181 126.068 127.078 125.785 129.55C125.561 131.496 126.594 132.472 127.591 133.416C128.373 133.983 128.918 134.819 129.12 135.764C129.156 136.246 129.069 136.73 128.867 137.169C128.664 137.609 128.353 137.989 127.963 138.275C127.535 138.662 127.455 138.765 127.463 139.081C127.506 139.536 127.695 139.966 128.001 140.305C128.697 141.176 129.06 142.266 129.024 143.38C128.958 145.058 127.446 145.98 126.235 146.729C125.409 147.237 124.47 147.813 124.404 148.363C124.396 149.045 124.563 149.718 124.888 150.317C125.388 151.51 126.072 153.141 124.748 154.883C124.255 155.457 123.652 155.926 122.974 156.262C122.297 156.599 121.559 156.797 120.804 156.844C120.654 156.866 120.469 156.896 120.317 156.925C120.821 158.589 121.462 160.209 122.234 161.767C122.374 162.061 122.393 162.399 122.285 162.707C122.177 163.015 121.952 163.267 121.659 163.41C121.493 163.49 121.311 163.533 121.126 163.534Z" fill="#030504"/>
<path d="M153.03 112.649C154.375 112.384 154.959 109.597 154.334 106.423C153.71 103.249 152.113 100.89 150.768 101.155C149.423 101.419 148.839 104.207 149.464 107.381C150.088 110.555 151.685 112.913 153.03 112.649Z" fill="#030504"/>
<path d="M183.044 107.814C184.389 107.549 184.973 104.762 184.348 101.588C183.724 98.4137 182.127 96.0553 180.782 96.3199C179.437 96.5845 178.853 99.372 179.478 102.546C180.102 105.72 181.699 108.078 183.044 107.814Z" fill="#030504"/>
<path d="M164.185 123.915C163.502 123.957 162.82 123.82 162.207 123.518C161.593 123.216 161.068 122.759 160.685 122.193C160.605 122.052 160.553 121.898 160.533 121.737C160.512 121.576 160.524 121.413 160.566 121.257C160.609 121.101 160.682 120.955 160.781 120.827C160.88 120.699 161.003 120.592 161.144 120.512C161.422 120.355 161.75 120.311 162.059 120.391C162.368 120.472 162.634 120.669 162.8 120.941C162.872 121.041 163.41 121.683 164.971 121.367C165.484 121.259 165.955 121.004 166.326 120.633C166.696 120.261 166.951 119.79 167.058 119.277C167.088 119.119 167.148 118.968 167.237 118.833C167.325 118.698 167.439 118.582 167.572 118.491C167.705 118.4 167.855 118.336 168.012 118.303C168.17 118.271 168.333 118.269 168.491 118.299C168.809 118.357 169.091 118.539 169.275 118.805C169.459 119.07 169.531 119.398 169.474 119.716C169.276 120.715 168.788 121.633 168.072 122.357C167.356 123.081 166.443 123.578 165.446 123.787C165.031 123.871 164.609 123.914 164.185 123.915Z" fill="#030504"/>
<path d="M171.452 122.5C170.611 122.475 169.788 122.249 169.052 121.842C168.316 121.435 167.688 120.858 167.22 120.159C167.046 119.882 166.989 119.548 167.061 119.23C167.133 118.911 167.328 118.634 167.604 118.459C167.88 118.285 168.215 118.228 168.533 118.3C168.852 118.372 169.129 118.567 169.304 118.843C169.597 119.275 170.009 119.612 170.49 119.813C170.971 120.015 171.501 120.071 172.014 119.976C173.619 119.661 173.843 118.845 173.862 118.752C173.924 118.437 174.107 118.158 174.371 117.975C174.636 117.792 174.961 117.719 175.278 117.771C175.589 117.817 175.869 117.983 176.059 118.234C176.249 118.484 176.333 118.799 176.293 119.111C176.173 120.077 175.232 121.853 172.493 122.396C172.15 122.463 171.801 122.498 171.452 122.5Z" fill="#030504"/>
<path d="M168.336 160.451C167.759 160.449 167.191 160.312 166.677 160.051L101.877 127.284C101.003 126.841 100.341 126.069 100.036 125.138C99.73 124.208 99.8061 123.194 100.247 122.319C100.465 121.886 100.765 121.501 101.132 121.184C101.499 120.868 101.924 120.627 102.384 120.475C102.844 120.323 103.329 120.263 103.812 120.299C104.295 120.334 104.767 120.465 105.199 120.683L170.005 153.45C170.879 153.893 171.54 154.665 171.846 155.596C172.151 156.527 172.075 157.54 171.634 158.415C171.328 159.027 170.857 159.542 170.274 159.901C169.692 160.261 169.021 160.451 168.336 160.451Z" fill="#030504"/>
<path d="M164.214 165.477C163.473 165.476 162.75 165.252 162.139 164.835C161.527 164.417 161.056 163.825 160.785 163.136L157.723 155.359C157.419 154.587 157.382 153.735 157.62 152.94C157.858 152.145 158.357 151.454 159.035 150.976L166.504 145.72C166.9 145.441 167.347 145.243 167.82 145.137C168.292 145.031 168.781 145.02 169.258 145.104C169.735 145.187 170.191 145.364 170.599 145.624C171.008 145.885 171.361 146.223 171.638 146.62C172.201 147.423 172.422 148.416 172.253 149.381C172.085 150.347 171.54 151.206 170.738 151.77L165.646 155.35L167.646 160.419C168.005 161.33 167.988 162.347 167.599 163.246C167.209 164.145 166.479 164.852 165.569 165.214C165.138 165.386 164.678 165.475 164.214 165.477Z" fill="#030504"/>
<path fill-rule="evenodd" clip-rule="evenodd" d="M187.143 197.329C187.143 197.329 206.763 217.273 243.843 205.561C280.923 193.849 312.494 168.381 312.494 168.381C312.494 168.381 323.477 155.686 317.822 141.981L214.351 166.917L187.143 197.329Z" fill="#575659"/>
<path d="M221.196 212.969C197.701 212.969 185.187 200.597 184.518 199.92C183.858 199.249 183.479 198.352 183.457 197.412C183.435 196.471 183.772 195.558 184.4 194.857L211.609 164.448C212.107 163.89 212.764 163.497 213.491 163.322L316.964 138.383C317.818 138.179 318.718 138.286 319.5 138.686C320.282 139.086 320.896 139.752 321.231 140.564C327.682 156.201 315.792 170.211 315.281 170.8C315.137 170.965 314.979 171.118 314.809 171.256C313.496 172.315 282.267 197.301 244.95 209.084C237.278 211.589 229.266 212.899 221.196 212.969ZM192.444 196.933C198.663 201.472 215.563 210.609 242.737 202.027C276.847 191.257 306.663 168.267 309.899 165.727C311.074 164.236 317.353 155.727 315.348 146.377L216.33 170.233L192.444 196.933Z" fill="#030504"/>
<path fill-rule="evenodd" clip-rule="evenodd" d="M255.715 106.174C255.715 106.174 320.931 139.074 317.825 141.974C314.719 144.874 216.646 209.224 187.142 197.321C157.638 185.418 235.384 102.862 255.715 106.174Z" fill="#BDBDBD"/>
<path d="M195.809 202.433C192.386 202.518 188.978 201.948 185.77 200.752C181.191 198.907 174.094 193.722 177.97 179.768C186.024 150.799 237.944 99.493 256.307 102.526L256.865 102.617L257.374 102.871C320.674 134.807 321.282 139.082 321.574 141.137C321.668 141.784 321.604 142.443 321.388 143.06C321.172 143.677 320.811 144.233 320.335 144.68C319.588 145.383 235.342 202.433 195.809 202.433ZM254.296 109.759C240.789 109.759 192.826 153.877 185.076 181.759C182.388 191.426 186.843 193.222 188.522 193.899C212.474 203.568 294.477 153.819 312.369 141.432C304.291 135.767 278.552 121.85 254.642 109.772C254.529 109.761 254.41 109.759 254.296 109.759Z" fill="#030504"/>
<path d="M187.143 192.699C196.556 192.699 204.187 185.048 204.187 175.61C204.187 166.172 196.556 158.521 187.143 158.521C177.73 158.521 170.099 166.172 170.099 175.61C170.099 185.048 177.73 192.699 187.143 192.699Z" fill="#E4A20E"/>
<path d="M187.142 195.161C181.965 195.148 177.005 193.083 173.349 189.417C169.693 185.752 167.641 180.786 167.642 175.609C167.641 170.432 169.693 165.466 173.349 161.801C177.005 158.135 181.965 156.069 187.142 156.057C192.319 156.07 197.279 158.136 200.935 161.801C204.59 165.466 206.643 170.432 206.642 175.609C206.643 180.786 204.59 185.751 200.934 189.417C197.279 193.082 192.319 195.148 187.142 195.161ZM187.142 160.985C183.27 160.995 179.56 162.54 176.826 165.281C174.091 168.023 172.556 171.737 172.556 175.609C172.555 179.481 174.091 183.195 176.825 185.937C179.56 188.678 183.27 190.223 187.142 190.233C191.015 190.224 194.726 188.68 197.461 185.938C200.196 183.196 201.732 179.482 201.731 175.609C201.732 171.736 200.196 168.022 197.461 165.28C194.726 162.538 191.015 160.994 187.142 160.985Z" fill="#030504"/>
<path d="M200.178 160.816C209.591 160.816 217.222 153.165 217.222 143.727C217.222 134.289 209.591 126.638 200.178 126.638C190.765 126.638 183.134 134.289 183.134 143.727C183.134 153.165 190.765 160.816 200.178 160.816Z" fill="#E4A20E"/>
<path d="M200.179 163.279C195.002 163.266 190.041 161.2 186.386 157.534C182.73 153.868 180.678 148.902 180.679 143.725C180.678 138.548 182.73 133.582 186.386 129.917C190.042 126.251 195.002 124.186 200.179 124.173C205.356 124.186 210.316 126.252 213.971 129.917C217.627 133.583 219.68 138.548 219.679 143.725C219.68 148.902 217.627 153.868 213.972 157.534C210.316 161.199 205.356 163.265 200.179 163.279ZM200.179 129.101C196.307 129.111 192.597 130.656 189.863 133.397C187.128 136.139 185.593 139.853 185.593 143.725C185.592 147.597 187.128 151.312 189.862 154.054C192.596 156.795 196.307 158.341 200.179 158.351C204.051 158.341 207.762 156.796 210.496 154.054C213.231 151.312 214.766 147.597 214.765 143.725C214.766 139.853 213.23 136.139 210.496 133.397C207.761 130.656 204.051 129.111 200.179 129.101Z" fill="#030504"/>
<path d="M230.8 139.313C240.213 139.313 247.844 131.662 247.844 122.224C247.844 112.786 240.213 105.135 230.8 105.135C221.387 105.135 213.756 112.786 213.756 122.224C213.756 131.662 221.387 139.313 230.8 139.313Z" fill="#E4A20E"/>
<path d="M230.8 141.775C225.623 141.762 220.663 139.696 217.008 136.031C213.352 132.365 211.299 127.4 211.3 122.223C211.299 117.046 213.351 112.08 217.007 108.415C220.663 104.749 225.623 102.684 230.8 102.671C235.977 102.684 240.937 104.75 244.593 108.415C248.248 112.081 250.301 117.046 250.3 122.223C250.301 127.4 248.248 132.365 244.592 136.031C240.937 139.696 235.977 141.762 230.8 141.775ZM230.8 107.599C226.928 107.608 223.217 109.153 220.483 111.895C217.748 114.636 216.212 118.351 216.213 122.223C216.213 126.095 217.749 129.809 220.483 132.551C223.218 135.292 226.928 136.837 230.8 136.847C234.672 136.837 238.382 135.292 241.117 132.551C243.852 129.809 245.388 126.095 245.388 122.223C245.388 118.351 243.852 114.637 241.117 111.896C238.382 109.154 234.672 107.609 230.8 107.599Z" fill="#030504"/>
<path d="M256.891 141.249C266.304 141.249 273.935 133.598 273.935 124.16C273.935 114.722 266.304 107.071 256.891 107.071C247.478 107.071 239.847 114.722 239.847 124.16C239.847 133.598 247.478 141.249 256.891 141.249Z" fill="#E4A20E"/>
<path d="M256.89 143.713C251.713 143.7 246.752 141.634 243.096 137.968C239.441 134.302 237.388 129.335 237.39 124.158C237.389 118.981 239.441 114.015 243.097 110.35C246.753 106.684 251.713 104.619 256.89 104.606C262.067 104.619 267.027 106.685 270.682 110.351C274.338 114.016 276.39 118.981 276.39 124.158C276.391 129.335 274.339 134.301 270.683 137.967C267.028 141.633 262.067 143.699 256.89 143.713ZM256.89 109.534C253.018 109.544 249.309 111.089 246.575 113.831C243.841 116.572 242.306 120.286 242.307 124.158C242.306 128.03 243.841 131.744 246.575 134.486C249.308 137.228 253.018 138.774 256.89 138.784C260.762 138.774 264.473 137.229 267.208 134.487C269.943 131.745 271.478 128.031 271.478 124.158C271.478 120.286 269.942 116.571 267.207 113.83C264.473 111.088 260.762 109.544 256.89 109.534Z" fill="#030504"/>
<path d="M262.676 159.067C272.089 159.067 279.72 151.416 279.72 141.978C279.72 132.54 272.089 124.889 262.676 124.889C253.263 124.889 245.632 132.54 245.632 141.978C245.632 151.416 253.263 159.067 262.676 159.067Z" fill="#E4A20E"/>
<path d="M262.677 161.528C257.5 161.515 252.54 159.449 248.884 155.784C245.229 152.118 243.176 147.153 243.177 141.976C243.176 136.799 245.229 131.834 248.885 128.168C252.54 124.503 257.5 122.437 262.677 122.424C267.854 122.437 272.814 124.503 276.47 128.168C280.125 131.834 282.178 136.799 282.177 141.976C282.178 147.153 280.126 152.119 276.47 155.784C272.814 159.45 267.854 161.515 262.677 161.528ZM262.677 127.352C258.805 127.361 255.094 128.906 252.359 131.648C249.624 134.389 248.088 138.104 248.088 141.976C248.088 145.849 249.624 149.563 252.359 152.305C255.094 155.046 258.804 156.591 262.677 156.6C266.549 156.59 270.259 155.045 272.994 152.304C275.728 149.562 277.264 145.848 277.263 141.976C277.263 138.104 275.727 134.39 272.993 131.649C270.259 128.907 266.549 127.362 262.677 127.352Z" fill="#030504"/>
<path d="M233.011 165.21C242.424 165.21 250.055 157.559 250.055 148.121C250.055 138.683 242.424 131.032 233.011 131.032C223.598 131.032 215.967 138.683 215.967 148.121C215.967 157.559 223.598 165.21 233.011 165.21Z" fill="#E4A20E"/>
<path d="M233.011 167.673C227.834 167.661 222.873 165.595 219.218 161.93C215.562 158.264 213.509 153.298 213.511 148.121C213.51 142.944 215.562 137.978 219.218 134.313C222.874 130.647 227.834 128.582 233.011 128.569C238.188 128.582 243.148 130.648 246.803 134.313C250.459 137.979 252.512 142.944 252.511 148.121C252.512 153.298 250.46 158.264 246.804 161.929C243.148 165.595 238.188 167.66 233.011 167.673ZM233.011 133.497C229.139 133.507 225.429 135.052 222.694 137.793C219.96 140.535 218.425 144.249 218.425 148.121C218.425 151.993 219.96 155.707 222.694 158.449C225.429 161.19 229.139 162.735 233.011 162.745C236.883 162.736 240.594 161.191 243.328 158.449C246.063 155.708 247.598 151.993 247.597 148.121C247.598 144.249 246.063 140.534 243.328 137.793C240.594 135.051 236.883 133.506 233.011 133.497Z" fill="#030504"/>
<path d="M221.232 190.009C230.645 190.009 238.276 182.358 238.276 172.92C238.276 163.482 230.645 155.831 221.232 155.831C211.819 155.831 204.188 163.482 204.188 172.92C204.188 182.358 211.819 190.009 221.232 190.009Z" fill="#E4A20E"/>
<path d="M221.23 192.474C216.053 192.461 211.092 190.395 207.436 186.729C203.78 183.063 201.728 178.096 201.73 172.919C201.729 167.742 203.781 162.776 207.437 159.111C211.093 155.445 216.053 153.379 221.23 153.367C226.407 153.38 231.367 155.446 235.022 159.112C238.678 162.777 240.73 167.742 240.73 172.919C240.731 178.096 238.678 183.062 235.023 186.728C231.367 190.394 226.407 192.46 221.23 192.474ZM221.23 158.295C217.358 158.305 213.649 159.85 210.915 162.592C208.181 165.333 206.646 169.047 206.647 172.919C206.646 176.791 208.18 180.506 210.914 183.248C213.648 185.99 217.358 187.536 221.23 187.546C225.103 187.536 228.814 185.991 231.549 183.249C234.284 180.507 235.82 176.792 235.819 172.919C235.819 169.047 234.283 165.333 231.548 162.591C228.813 159.85 225.102 158.305 221.23 158.296V158.295Z" fill="#030504"/>
<path d="M215.967 185.253C225.38 185.253 233.011 177.602 233.011 168.164C233.011 158.726 225.38 151.075 215.967 151.075C206.554 151.075 198.923 158.726 198.923 168.164C198.923 177.602 206.554 185.253 215.967 185.253Z" fill="#E4A20E"/>
<path d="M215.968 187.715C210.791 187.702 205.831 185.636 202.175 181.971C198.52 178.305 196.467 173.34 196.468 168.163C196.468 162.986 198.52 158.021 202.176 154.356C205.832 150.69 210.791 148.624 215.968 148.611C221.145 148.624 226.105 150.69 229.761 154.355C233.416 158.021 235.469 162.986 235.468 168.163C235.469 173.34 233.417 178.306 229.761 181.971C226.105 185.637 221.145 187.703 215.968 187.715ZM215.968 153.539C212.095 153.548 208.385 155.093 205.65 157.834C202.915 160.576 201.379 164.29 201.379 168.163C201.378 172.036 202.914 175.75 205.649 178.492C208.384 181.234 212.095 182.778 215.968 182.787C219.84 182.778 223.551 181.233 226.285 178.491C229.02 175.75 230.556 172.035 230.555 168.163C230.556 164.291 229.02 160.576 226.285 157.835C223.551 155.093 219.84 153.548 215.968 153.539Z" fill="#030504"/>
<path d="M200.178 197.031C209.591 197.031 217.222 189.38 217.222 179.942C217.222 170.504 209.591 162.853 200.178 162.853C190.765 162.853 183.134 170.504 183.134 179.942C183.134 189.38 190.765 197.031 200.178 197.031Z" fill="#E4A20E"/>
<path d="M200.179 199.493C195.002 199.481 190.042 197.415 186.386 193.749C182.73 190.084 180.678 185.118 180.679 179.941C180.678 174.764 182.73 169.798 186.386 166.133C190.042 162.467 195.002 160.402 200.179 160.389C205.356 160.402 210.316 162.468 213.971 166.134C217.627 169.799 219.679 174.764 219.679 179.941C219.68 185.118 217.627 190.083 213.972 193.749C210.316 197.414 205.356 199.48 200.179 199.493ZM200.179 165.317C196.307 165.327 192.597 166.872 189.862 169.613C187.128 172.355 185.592 176.069 185.593 179.941C185.592 183.813 187.128 187.527 189.862 190.269C192.597 193.01 196.307 194.555 200.179 194.565C204.051 194.556 207.762 193.011 210.496 190.269C213.231 187.528 214.766 183.813 214.765 179.941C214.766 176.069 213.231 172.354 210.496 169.613C207.762 166.871 204.051 165.326 200.179 165.317Z" fill="#030504"/>
<path fill-rule="evenodd" clip-rule="evenodd" d="M268.345 170.369C261.313 174.321 258.778 177.879 248.584 181.541C239.721 184.722 238.534 180.291 238.534 170.854C238.531 168.613 238.97 166.393 239.825 164.321C240.68 162.25 241.934 160.367 243.517 158.78C245.1 157.193 246.979 155.934 249.049 155.073C251.118 154.213 253.337 153.769 255.578 153.766C264.993 153.766 276.556 165.756 268.345 170.369Z" fill="#E4A20E"/>
<path d="M243.847 185.027C242.377 185.07 240.931 184.65 239.713 183.827C236.356 181.457 236.075 176.339 236.075 170.856C236.075 165.679 238.127 160.714 241.783 157.049C245.438 153.383 250.398 151.318 255.575 151.304C262.867 151.304 271.656 157.563 273.317 163.939C273.807 165.584 273.698 167.35 273.007 168.921C272.317 170.493 271.09 171.768 269.547 172.519C267.501 173.695 265.516 174.973 263.599 176.348C259.271 179.548 254.488 182.08 249.409 183.861C247.634 184.559 245.753 184.953 243.847 185.027ZM255.577 156.227C251.705 156.236 247.994 157.781 245.26 160.523C242.525 163.264 240.99 166.979 240.991 170.851C240.991 173.199 240.991 178.697 242.542 179.793C242.999 180.111 244.274 180.468 247.755 179.216C252.428 177.582 256.825 175.248 260.798 172.295C262.843 170.83 264.961 169.469 267.143 168.217C267.731 167.999 268.21 167.558 268.476 166.989C268.742 166.421 268.774 165.771 268.564 165.179C267.544 161.269 261.063 156.23 255.578 156.23L255.577 156.227Z" fill="#030504"/>
<path fill-rule="evenodd" clip-rule="evenodd" d="M246.433 29.8208L244.046 31.3197C243.288 31.9827 242.803 32.9037 242.685 33.9041L242.731 38.2152C242.667 38.8105 242.467 39.3829 242.145 39.8876C241.339 41.114 240.161 42.0492 238.784 42.5554C237.407 43.0616 235.904 43.112 234.496 42.6992C233.904 42.5156 233.366 42.1905 232.929 41.7522L230.435 38.5743C229.722 37.8802 228.779 37.4731 227.785 37.431L224.662 37.7653C223.852 37.7351 223.07 37.4596 222.42 36.9752C221.313 36.1316 220.487 34.9724 220.052 33.6503C219.617 32.3282 219.592 30.9053 219.981 29.5688C220.167 28.9727 220.496 28.4311 220.939 27.991L224.081 25.5278C224.776 24.8143 225.185 23.8703 225.229 22.8752L224.904 19.6947C224.936 18.8886 225.208 18.1105 225.687 17.4611C226.521 16.3552 227.671 15.5283 228.985 15.0894C230.299 14.6506 231.715 14.6204 233.046 15.0029C233.665 15.1917 234.225 15.5381 234.67 16.0082L236.887 18.9864C237.581 19.6903 238.508 20.116 239.494 20.1831L243 19.924C243.665 19.9582 244.309 20.1673 244.867 20.5301C246.002 21.3048 246.879 22.4014 247.385 23.6787C247.891 24.956 248.003 26.3555 247.707 27.6971C247.519 28.5225 247.073 29.2665 246.433 29.8208Z" fill="url(#paint0_linear_1_161)"/>
<path d="M177.25 11.79C181.764 11.79 185.424 8.12097 185.424 3.595C185.424 -0.930972 181.764 -4.6 177.25 -4.6C172.736 -4.6 169.076 -0.930972 169.076 3.595C169.076 8.12097 172.736 11.79 177.25 11.79Z" fill="url(#paint1_linear_1_161)"/>
<path opacity="0.5" d="M32.655 155.87C34.16 155.87 35.38 154.647 35.38 153.138C35.38 151.629 34.16 150.406 32.655 150.406C31.15 150.406 29.93 151.629 29.93 153.138C29.93 154.647 31.15 155.87 32.655 155.87Z" fill="url(#paint2_linear_1_161)"/>
</g>
</g>
</g>
<defs>
<linearGradient id="paint0_linear_1_161" x1="214.96" y1="19.8389" x2="244.464" y2="11.0502" gradientUnits="userSpaceOnUse">
<stop stop-color="#F70139"/>
<stop offset="0.505208" stop-color="#BA06F0"/>
<stop offset="1" stop-color="#00D3F0"/>
</linearGradient>
<linearGradient id="paint1_linear_1_161" x1="169.043" y1="-4.78625" x2="186.307" y2="-3.75735" gradientUnits="userSpaceOnUse">
<stop stop-color="#F70139"/>
<stop offset="0.505208" stop-color="#BA06F0"/>
<stop offset="1" stop-color="#00D3F0"/>
</linearGradient>
<linearGradient id="paint2_linear_1_161" x1="29.9191" y1="150.344" x2="35.6743" y2="150.687" gradientUnits="userSpaceOnUse">
<stop stop-color="#F70139"/>
<stop offset="0.505208" stop-color="#BA06F0"/>
<stop offset="1" stop-color="#00D3F0"/>
</linearGradient>
<clipPath id="clip0_1_161">
<rect width="249" height="245" fill="white"/>
</clipPath>
</defs>
</svg>
