<svg width="32" height="32" viewBox="0 0 32 32" fill="none" xmlns="http://www.w3.org/2000/svg">
<g clip-path="url(#clip0_3_2172)">
<path d="M16.23 30.5C24.2381 30.5 30.73 24.0081 30.73 16C30.73 7.99187 24.2381 1.5 16.23 1.5C8.22185 1.5 1.72998 7.99187 1.72998 16C1.72998 24.0081 8.22185 30.5 16.23 30.5Z" fill="#111111"/>
<path d="M16.23 31C24.5143 31 31.23 24.2843 31.23 16C31.23 7.71573 24.5143 1 16.23 1C7.94571 1 1.22998 7.71573 1.22998 16C1.22998 24.2843 7.94571 31 16.23 31Z" stroke="#111111"/>
<path d="M16.23 30.5C24.2381 30.5 30.73 24.0081 30.73 16C30.73 7.99187 24.2381 1.5 16.23 1.5C8.22185 1.5 1.72998 7.99187 1.72998 16C1.72998 24.0081 8.22185 30.5 16.23 30.5Z" fill="#F0F0F0"/>
<path d="M15.6409 3.90002C15.9959 3.96502 16.726 4.96202 16.932 5.27002C18.99 8.43202 19.4481 11.739 17.3021 14.87C16.0581 16.662 14.378 18.42 13.565 20.459C13.2149 21.4134 13.0836 22.4343 13.1807 23.4463C13.2778 24.4583 13.6008 25.4356 14.1261 26.306C14.3511 26.764 14.6309 27.1991 14.8509 27.6581C14.8979 27.7751 14.9729 27.911 14.9019 28.032C14.7709 28.132 14.5839 28.0841 14.4339 28.0651C10.8339 27.3211 8.16608 23.365 8.35408 19.772C8.4496 18.206 8.98085 16.698 9.88801 15.418C10.95 13.851 12.5169 12.6631 13.6199 11.0441C14.6049 9.58664 15.236 7.91937 15.463 6.17505C15.5644 5.42059 15.6238 4.66107 15.6409 3.90002Z" fill="#1C2143"/>
<path d="M20.8708 13.6341C20.8708 13.6251 20.8707 13.615 20.8847 13.606C20.8987 13.597 20.9039 13.606 20.9179 13.606C21.0215 13.6657 21.1161 13.74 21.1989 13.8262C22.4072 14.8604 23.2926 16.2201 23.7497 17.7434C24.2067 19.2668 24.2161 20.8894 23.7768 22.418C23.4248 23.549 22.8108 24.5812 21.9848 25.4302C21.3946 26.0399 20.7111 26.5515 19.9599 26.9461C19.6299 27.12 19.3267 27.3406 19.0597 27.6011C18.9204 27.7603 18.7924 27.9289 18.6767 28.106C18.2367 27.984 17.1417 26.2681 16.9367 25.8191C16.5884 24.9401 16.4389 23.9949 16.4987 23.0513C16.5585 22.1077 16.8264 21.1891 17.2829 20.3611C18.0589 18.6821 19.2389 17.32 20.0949 15.679C20.4587 15.042 20.7205 14.3521 20.8708 13.6341Z" fill="#2EA7E0"/>
</g>
<defs>
<clipPath id="clip0_3_2172">
<rect width="31" height="31" fill="white" transform="translate(0.72998 0.5)"/>
</clipPath>
</defs>
</svg>
