<svg width="191" height="131" viewBox="0 0 191 131" fill="none" xmlns="http://www.w3.org/2000/svg">
<g clip-path="url(#clip0_1_78)">
<path fill-rule="evenodd" clip-rule="evenodd" d="M55.499 34.5705C56.281 23.6935 46.899 14.1535 34.537 13.2615C22.175 12.3695 11.5181 20.4615 10.7371 31.3335C9.95605 42.2055 19.337 51.7505 31.694 52.6405C35.1154 52.893 38.552 52.4337 41.787 51.2915L52.7371 59.8915L47.103 48.5915C49.4718 47.0416 51.458 44.9745 52.9123 42.5459C54.3666 40.1172 55.251 37.3904 55.499 34.5705Z" fill="#111111" stroke="#030504" stroke-linecap="round" stroke-linejoin="round"/>
<path fill-rule="evenodd" clip-rule="evenodd" d="M31.5459 26.3925C32.3675 24.5822 33.8003 23.1189 35.5929 22.2595C42.7239 18.9905 47.7829 25.3895 46.1349 32.5945C44.8199 38.3515 38.3769 44.9095 35.8499 47.2945C32.5869 46.0945 24.08 42.6125 20.592 37.8465C16.234 31.8815 18.3539 24.0025 26.1969 24.1865C28.1835 24.2715 30.077 25.0524 31.5459 26.3925Z" fill="#E93434" stroke="#040504" stroke-miterlimit="10"/>
<path d="M167.65 60.4425L187.407 37.8005" stroke="#030504" stroke-width="3" stroke-linecap="round" stroke-linejoin="round"/>
<path d="M184.22 36.1455L184.857 40.1545L189.002 40.7705" stroke="#030504" stroke-width="3" stroke-linecap="round" stroke-linejoin="round"/>
<path d="M147.062 88.0345L159.038 97.9555L152.29 106.313L155.074 109.789" stroke="#030504" stroke-width="3" stroke-linecap="round" stroke-linejoin="round"/>
<path d="M114.145 79.9955L114.63 122.118L111.197 128.339" stroke="#030504" stroke-width="3" stroke-linecap="round" stroke-linejoin="round"/>
<path fill-rule="evenodd" clip-rule="evenodd" d="M77.365 98.1775V98.1685V98.1615L64.9651 50.9105L166.336 24.3105L178.747 71.6105H178.742C180.252 77.7985 158.914 88.7295 130.987 96.0565C103.06 103.383 79.106 104.336 77.387 98.2045H77.3821L77.365 98.1775Z" fill="#24272C" stroke="#030504" stroke-miterlimit="10"/>
<path d="M78.327 47.0635C81.419 58.8465 88.643 86.3785 90.181 92.2415C92.15 99.7485 102.933 98.7035 116.218 97.0015C123.746 96.0345 140.183 91.9325 153.018 88.5575C145.39 91.5049 137.598 94.0114 129.682 96.0645C106.139 102.24 85.419 103.887 78.461 100.578L65.483 51.1095C65.403 50.8955 65.3441 50.6895 65.2831 50.4835L78.327 47.0635Z" fill="#0E1014"/>
<path fill-rule="evenodd" clip-rule="evenodd" d="M64.8421 50.8885C66.4631 57.0725 90.473 56.1285 118.464 48.7885C146.455 41.4485 167.835 30.4765 166.213 24.2955C164.591 18.1145 140.583 19.0555 112.591 26.4025C84.5991 33.7495 63.2211 44.7105 64.8421 50.8885Z" fill="#111111"/>
<path fill-rule="evenodd" clip-rule="evenodd" d="M87.1341 44.8685C88.0461 48.3375 101.525 47.8105 117.24 43.6875C132.955 39.5645 144.961 33.4065 144.051 29.9355C143.141 26.4645 129.661 26.9935 113.945 31.1175C98.2291 35.2415 86.2251 41.3975 87.1341 44.8685Z" fill="#223914"/>
<path d="M144.051 29.9405C144.651 32.2355 139.606 35.7045 131.575 38.9845C130.098 39.1393 128.605 39.0333 127.164 38.6715C118.687 36.4265 120.172 31.7085 120.172 31.7085C120.247 31.2396 120.413 30.7901 120.663 30.386C120.912 29.9818 121.238 29.6309 121.624 29.3535C133.834 26.9325 143.298 27.0495 144.051 29.9405Z" fill="#9FBE3B"/>
<path fill-rule="evenodd" clip-rule="evenodd" d="M110.807 81.6795C114.236 80.7795 116.772 79.0405 116.447 77.8085C116.122 76.5765 113.064 76.3085 109.635 77.2085C106.206 78.1085 103.673 79.8495 103.999 81.0805C104.325 82.3115 107.381 82.5795 110.807 81.6795Z" fill="#E94153"/>
<path fill-rule="evenodd" clip-rule="evenodd" d="M153.37 68.2885C156.8 67.3885 159.335 65.6475 159.01 64.4165C158.685 63.1855 155.628 62.9165 152.198 63.8165C148.768 64.7165 146.237 66.4555 146.562 67.6875C146.887 68.9195 149.943 69.1885 153.37 68.2885Z" fill="#E94153"/>
<path d="M152.5 20.0205C160.432 20.0205 165.559 21.3615 166.278 24.1025C166.296 24.1745 166.296 24.2485 166.309 24.3195L166.333 24.3145L178.744 71.6145H178.739C180.249 77.8025 158.911 88.7335 130.984 96.0605C115.418 100.146 101.084 102.251 91.1493 102.251C83.2603 102.251 78.1422 100.922 77.3792 98.2085H77.3741L77.3651 98.1735V98.1635V98.1555L64.9652 50.9055L64.9911 50.8985C64.9651 50.8295 64.9293 50.7665 64.9093 50.6985C63.2903 44.5195 84.6693 33.5525 112.659 26.2075C128.226 22.1235 142.566 20.0175 152.503 20.0175M152.503 17.8375C141.996 17.8375 127.271 20.1195 112.103 24.0975C93.8431 28.8885 60.0401 40.7275 62.8031 51.2625C62.8131 51.3015 62.824 51.3355 62.836 51.3695C62.848 51.4035 62.8502 51.4305 62.8582 51.4605L75.2462 98.6765C75.2532 98.7065 75.2602 98.7325 75.2682 98.7615V98.7745C75.286 98.8422 75.3074 98.909 75.3321 98.9745C76.5091 102.643 81.6863 104.429 91.1493 104.429C101.656 104.429 116.376 102.146 131.537 98.1695C149.6 93.4295 182.989 81.7535 180.902 71.2995C180.891 71.2175 180.875 71.1364 180.853 71.0565L168.443 23.7565C168.434 23.7235 168.424 23.6915 168.414 23.6565C168.404 23.6215 168.396 23.5845 168.388 23.5455C167.379 19.7045 162.188 17.8365 152.501 17.8365L152.503 17.8375Z" fill="#1A1818"/>
<path fill-rule="evenodd" clip-rule="evenodd" d="M111.742 31.7195C111.855 31.6975 111.961 31.6735 112.075 31.6505C128.018 28.4125 128.238 39.4895 128.233 40.2715C124.902 41.4875 121.19 42.6495 117.242 43.6875C114.428 44.4245 111.687 45.0485 109.075 45.5515C106.21 44.1515 105.028 41.7515 103.475 40.9105C101.449 39.8195 100.192 37.1945 99.6472 35.8105C103.599 34.2207 107.637 32.8549 111.742 31.7195Z" fill="#ED6313"/>
<path fill-rule="evenodd" clip-rule="evenodd" d="M99.6472 35.8135C100.314 35.5425 101.002 35.2745 101.709 35.0055C101.53 35.3962 101.412 35.812 101.359 36.2385C101.367 36.9315 104.188 39.0955 106.695 41.2145C109.202 43.3335 112.323 44.1575 117.429 43.1215C120.908 42.3623 124.319 41.3226 127.629 40.0125L128.198 39.5715C128.232 39.9265 128.235 40.1765 128.235 40.2715C124.904 41.4875 121.192 42.6495 117.244 43.6875C114.43 44.4245 111.689 45.0485 109.077 45.5515C106.212 44.1515 105.03 41.7515 103.477 40.9105C101.449 39.8215 100.192 37.1965 99.6472 35.8135Z" fill="#D24B13"/>
<path fill-rule="evenodd" clip-rule="evenodd" d="M111.741 31.7195C111.854 31.6975 111.96 31.6735 112.074 31.6505C128.017 28.4125 128.237 39.4895 128.231 40.2715C127.751 40.4455 127.246 40.6175 126.749 40.7895C127.134 37.2055 125.982 34.7895 123.5 33.1065C121.388 31.6685 114.333 31.7585 111.18 31.8815C111.366 31.8255 111.552 31.7735 111.741 31.7195Z" fill="#F98D3F"/>
<path d="M114.857 35.4005C118.644 32.8615 122.075 31.6385 126.748 35.3005C126.905 35.5469 127.05 35.8012 127.181 36.0625C126.642 35.6475 126.214 35.3135 126.214 35.3135C125.102 34.5748 123.84 34.0909 122.519 33.8963C121.198 33.7016 119.85 33.8011 118.572 34.1875C115.532 35.1555 109.472 40.4935 106.244 43.4875C106.115 43.3635 105.988 43.2365 105.87 43.1155C108.684 40.339 111.686 37.7611 114.857 35.4005Z" fill="#FD9834"/>
<path d="M117.861 38.9415C121.38 37.0995 124.522 36.2225 128.082 38.7655C128.12 38.9835 128.151 39.1844 128.17 39.3654C126.246 38.1407 123.925 37.7009 121.686 38.1365C118.748 38.7365 112.745 42.8754 109.097 45.5484C109.089 45.5524 109.081 45.5541 109.072 45.5535C108.891 45.4665 108.737 45.3645 108.572 45.2705C111.519 42.9498 114.623 40.8351 117.861 38.9415Z" fill="#FD9834"/>
<path d="M122.731 31.9945C123.109 32.1508 123.476 32.3304 123.831 32.5325C123.425 32.3385 123.035 32.1455 122.731 31.9945Z" fill="#FD9834"/>
<path d="M110.794 34.0625C111.851 32.9743 113.053 32.0369 114.366 31.2765C115.497 31.1238 116.637 31.0549 117.778 31.0705C116.557 31.177 115.372 31.5356 114.297 32.1235C111.828 33.4665 107.712 38.4315 104.886 42.0865C104.75 41.9465 104.614 41.8115 104.486 41.6865C106.418 39.0082 108.525 36.4613 110.794 34.0625Z" fill="#FD9834"/>
<path d="M105.8 33.5435C106.211 33.4065 106.626 33.2695 107.047 33.1335C105.294 35.2045 103.468 37.6895 102.017 39.7575C101.882 39.6165 101.757 39.4715 101.635 39.3205C102.892 37.4665 104.399 35.3285 105.8 33.5435Z" fill="#FD9834"/>
<path fill-rule="evenodd" clip-rule="evenodd" d="M104.886 42.0865C104.75 41.9465 104.614 41.8115 104.486 41.6865C104.829 41.2285 105.192 40.7485 105.561 40.2635C105.714 40.3915 105.869 40.5195 106.02 40.6445C105.622 41.1395 105.244 41.6205 104.886 42.0865Z" fill="#D96126"/>
<path fill-rule="evenodd" clip-rule="evenodd" d="M106.244 43.4795C106.115 43.3555 105.988 43.2285 105.87 43.1075C106.31 42.6875 106.816 42.2075 107.347 41.7185C107.504 41.8285 107.661 41.9375 107.822 42.0405C107.25 42.5565 106.715 43.0465 106.244 43.4795Z" fill="#D96126"/>
<path fill-rule="evenodd" clip-rule="evenodd" d="M109.073 45.5515C108.892 45.4645 108.738 45.3625 108.573 45.2685C109.334 44.6875 110.216 44.0305 111.138 43.3575C111.413 43.4105 111.7 43.4485 111.992 43.4845C110.946 44.2085 109.955 44.9195 109.098 45.5475C109.09 45.5511 109.081 45.5525 109.073 45.5515Z" fill="#D96126"/>
<path fill-rule="evenodd" clip-rule="evenodd" d="M102.018 39.7575C101.883 39.6165 101.758 39.4715 101.636 39.3205C101.965 38.8335 102.312 38.3285 102.668 37.8205C102.812 37.9495 102.96 38.0815 103.117 38.2205C102.734 38.7455 102.364 39.2635 102.018 39.7575Z" fill="#D96126"/>
<path d="M128.008 38.8405C133.408 37.4535 141.937 32.7515 141.774 30.8905C141.597 28.8475 137.103 28.8785 134.55 28.9025C129.805 29.2215 125.087 29.868 120.431 30.8375C120.701 30.2501 121.111 29.7381 121.625 29.3465C133.834 26.9285 143.293 27.0465 144.052 29.9335C144.652 32.2285 139.607 35.6975 131.576 38.9775C130.386 39.0951 129.185 39.0489 128.008 38.8405Z" fill="#67903F"/>
<path fill-rule="evenodd" clip-rule="evenodd" d="M87.134 44.8715C86.621 42.9115 90.2251 40.0975 96.2891 37.2715C97.2017 37.1254 98.1345 37.1675 99.0303 37.395C99.926 37.6225 100.766 38.0307 101.498 38.5945C104.385 40.8755 108.534 43.8565 106.398 46.0365C95.754 47.8305 87.826 47.5025 87.134 44.8715Z" fill="#EAC833"/>
<path fill-rule="evenodd" clip-rule="evenodd" d="M96.29 37.2715C97.2026 37.1254 98.1355 37.1675 99.0312 37.395C99.927 37.6225 100.767 38.0307 101.499 38.5945C104.386 40.8755 108.535 43.8565 106.399 46.0365C106.193 46.0715 105.993 46.1005 105.788 46.1365C106.166 45.584 106.337 44.9157 106.271 44.2495C105.991 42.9605 102.729 40.2495 100.941 38.7315C99.7981 37.7625 97.5812 37.4485 96.1272 37.3475C96.1842 37.3245 96.235 37.2975 96.29 37.2715Z" fill="#FFDD49"/>
<path fill-rule="evenodd" clip-rule="evenodd" d="M93.367 38.7375C93.7 38.5565 94.0452 38.3765 94.4032 38.1925C95.4332 38.3295 96.874 38.5425 98.318 38.8305C101.018 39.3665 101.911 40.2535 103.393 42.8885C104.875 45.5235 102.212 46.1565 98.3289 46.3885C94.4459 46.6205 92.1041 46.7065 90.8741 44.2715C89.6441 41.8365 90.5861 40.6655 94.0311 40.0235C97.4761 39.3815 99.7892 41.9305 99.9762 43.3935C100.163 44.8565 95.9252 44.9825 94.8412 44.6105C93.7572 44.2385 93.4762 42.4105 93.4762 42.4105C93.8532 43.1497 94.4245 43.772 95.129 44.2105C96.105 44.6775 98.1181 44.0855 99.1021 43.8265C100.086 43.5675 98.902 41.5775 96.818 40.8735C95.9193 40.6016 94.9753 40.5123 94.0416 40.6107C93.1079 40.7091 92.2032 40.9932 91.3809 41.4465C90.4939 42.0715 91.0139 44.3035 92.1209 45.2615C93.2279 46.2195 100.206 45.7695 102.295 45.2195C104.384 44.6695 102.889 41.9775 101.285 40.6195C99.895 39.4415 94.726 38.8705 93.367 38.7375Z" fill="#857906"/>
<path d="M126.698 37.9395C126.74 38.1705 126.767 38.4145 126.788 38.6595C127.267 38.8575 127.73 39.0936 128.171 39.3655C128.152 39.1855 128.12 38.9845 128.083 38.7655C127.645 38.4519 127.182 38.1756 126.698 37.9395ZM113.463 31.8255C113.932 31.8205 114.423 31.8175 114.93 31.8255C115.832 31.42 116.794 31.1662 117.778 31.0745C116.637 31.0589 115.497 31.1278 114.366 31.2805C114.062 31.4395 113.761 31.6265 113.463 31.8245V31.8255ZM124.43 33.8255C124.759 34.1208 125.062 34.4433 125.336 34.7895C125.641 34.9403 125.935 35.1138 126.214 35.3085C126.214 35.3085 126.642 35.6425 127.181 36.0575C127.05 35.7962 126.905 35.5419 126.748 35.2955C126.029 34.7259 125.252 34.2338 124.43 33.8275V33.8255Z" fill="#FFC777"/>
<path fill-rule="evenodd" clip-rule="evenodd" d="M124.716 35.0125C125.036 35.4136 125.277 35.8717 125.427 36.3625C125.427 36.7625 124.574 36.4815 124.427 36.4135C124.28 36.3455 124.045 36.3235 123.839 35.5355C123.633 34.7475 123.654 34.4285 124.716 35.0125Z" fill="#F98D3F"/>
<path fill-rule="evenodd" clip-rule="evenodd" d="M125.826 38.8435C125.826 38.8435 126.25 40.0585 125.939 40.4755C125.628 40.8925 124.829 41.3755 124.765 40.9755C124.701 40.5755 124.73 39.5545 124.65 39.1755C124.57 38.7965 124.606 38.3655 125.826 38.8435Z" fill="#F98D3F"/>
<path fill-rule="evenodd" clip-rule="evenodd" d="M115.981 32.1495C117.153 32.1694 118.322 32.2676 119.481 32.4435C119.553 32.6095 118.934 32.6715 118.42 32.8065C117.739 32.8329 117.058 32.7656 116.395 32.6065C115.859 32.5475 115.245 32.5705 115.289 32.3585C115.333 32.1465 115.981 32.1495 115.981 32.1495Z" fill="#F98D3F"/>
<path fill-rule="evenodd" clip-rule="evenodd" d="M110.97 32.2115C110.97 32.2115 112.225 32.1115 112.17 32.2765C112.089 32.4085 111.981 32.5226 111.854 32.6117C111.727 32.7008 111.584 32.763 111.432 32.7945C111.039 32.9105 110.821 32.7145 110.405 32.5835C109.989 32.4525 110.334 32.2075 110.97 32.2115Z" fill="#F98D3F"/>
<path d="M124.925 37.5105C124.925 37.5105 125.606 37.5965 125.716 37.7445C125.826 37.8925 125.96 38.1265 125.575 38.0835C125.19 38.0405 124.875 37.9835 124.847 37.8835C124.819 37.7835 124.539 37.5195 124.925 37.5105Z" fill="#FFB45A"/>
<path d="M123.178 33.4865C123.178 33.4865 123.893 33.9045 123.824 34.0465C123.755 34.1885 123.132 33.7845 122.824 33.7595C122.482 33.6452 122.164 33.4686 121.887 33.2385C121.887 33.2385 122.995 33.2695 123.178 33.4865Z" fill="#FFB45A"/>
<path d="M113.79 32.1815C113.651 32.3532 113.474 32.4902 113.272 32.5815C113.041 32.6445 112.519 32.7625 112.886 32.4545L113.247 32.1435C113.429 32.1461 113.61 32.1587 113.79 32.1815Z" fill="#FFB45A"/>
<path d="M131.571 29.6685C131.571 29.6685 136.465 29.1755 137.696 29.7845C138.927 30.3935 138.583 30.7935 137.345 30.8085C136.107 30.8235 136.577 30.2474 134.511 30.3374C132.445 30.4274 130.388 30.4285 130.325 30.1945C130.262 29.9605 131.571 29.6685 131.571 29.6685Z" fill="#CACF4A"/>
<path fill-rule="evenodd" clip-rule="evenodd" d="M100.384 40.7155C100.384 40.7155 102.559 42.1375 102.096 43.0075C101.633 43.8775 101.36 42.8245 100.847 42.0755C100.334 41.3265 99.784 40.8705 100.384 40.7155Z" fill="#FFDD49"/>
<path fill-rule="evenodd" clip-rule="evenodd" d="M97.032 41.3185C97.032 41.3185 98.4571 42.0815 98.5081 42.8465C98.5591 43.6115 97.7902 43.3035 97.2652 42.6625C96.9416 42.2532 96.5645 41.8893 96.1441 41.5805C95.8821 41.3765 96.657 41.1435 97.032 41.3185Z" fill="#FFDD49"/>
<path fill-rule="evenodd" clip-rule="evenodd" d="M92.968 42.9175C93.1592 43.1575 93.3677 43.3831 93.5921 43.5925C94.0331 44.0165 92.9811 43.9925 92.7471 43.7825C92.5131 43.5725 92.605 42.5655 92.968 42.9175Z" fill="#FFDD49"/>
<path fill-rule="evenodd" clip-rule="evenodd" d="M90.0222 42.2895C89.9872 42.5455 90.0056 42.8059 90.0762 43.0544C90.1467 43.3029 90.2678 43.5341 90.4321 43.7335C91.0021 44.5425 90.1822 44.7265 89.8162 43.8955C89.4502 43.0645 89.4412 42.3525 90.0222 42.2895Z" fill="#FFDD49"/>
<path d="M152.435 20.2085C160.363 20.2085 165.494 21.5495 166.213 24.2925C167.836 30.4745 146.458 41.4405 118.464 48.7855C102.895 52.8695 88.564 54.9725 78.624 54.9725C70.694 54.9725 65.561 53.6335 64.842 50.8885C63.221 44.7105 84.5991 33.7445 112.59 26.3995C128.162 22.3145 142.497 20.2085 152.435 20.2085ZM152.435 18.9025C141.998 18.9025 127.354 21.1735 112.259 25.1325C98.634 28.7105 86.1159 33.2495 77.0129 37.9175C67.1129 42.9965 62.5951 47.4705 63.5771 51.2175C64.4571 54.5775 69.521 56.2785 78.624 56.2785C89.059 56.2785 103.7 54.0055 118.797 50.0485C132.423 46.4725 144.942 41.9315 154.041 37.2625C163.941 32.1835 168.464 27.7085 167.478 23.9575C166.598 20.6005 161.536 18.8995 152.434 18.8995L152.435 18.9025Z" fill="#1A1818"/>
<path d="M87.1283 44.1365C87.1283 44.1365 86.4792 39.6185 107.048 33.1365C127.617 26.6545 140.602 26.5945 143.526 29.1235C146.45 31.6525 136.64 38.5035 122.856 42.0235C109.072 45.5435 88.2593 50.3455 87.1283 44.1365Z" stroke="#0E1014" stroke-miterlimit="10"/>
<path d="M160.846 23.2455C160.294 22.9435 159.675 22.7852 159.046 22.7852C158.417 22.7852 157.798 22.9435 157.246 23.2455C155.385 24.3015 161.896 25.2105 160.846 26.4995C159.796 27.7885 161.804 28.6395 163.171 27.2075C164.915 25.3825 160.846 23.2455 160.846 23.2455Z" fill="#D3D3D2"/>
<path d="M76.9279 46.0225C76.376 45.7205 75.757 45.5622 75.1279 45.5622C74.4987 45.5622 73.8799 45.7205 73.3281 46.0225C71.4671 47.0775 77.9779 47.9885 76.9279 49.2775C75.8779 50.5665 77.8859 51.4155 79.2529 49.9845C81.0019 48.1585 76.9279 46.0225 76.9279 46.0225Z" fill="#D3D3D2"/>
<path d="M85.203 37.6955C84.836 37.7746 84.494 37.9431 84.2077 38.1861C83.9214 38.4291 83.6996 38.7391 83.5619 39.0885C83.1139 40.2795 86.4259 38.1685 86.4379 39.1495C86.4499 40.1305 87.6851 39.7345 87.7651 38.5665C87.8671 37.0765 85.203 37.6955 85.203 37.6955Z" fill="#D3D3D2"/>
<path d="M83.5539 50.8255C83.1866 50.9042 82.8446 51.0727 82.5583 51.3157C82.2719 51.5588 82.0504 51.8689 81.913 52.2185C81.465 53.4085 84.777 51.2985 84.788 52.2785C84.799 53.2585 86.0349 52.8645 86.1149 51.6955C86.2179 50.2105 83.5539 50.8255 83.5539 50.8255Z" fill="#D3D3D2"/>
<path d="M94.9458 50.6085L93.3618 50.3615C93.2542 50.5 93.1766 50.6593 93.1338 50.8294C93.0909 50.9995 93.0836 51.1766 93.1128 51.3495C93.9368 51.679 94.8247 51.818 95.7099 51.7558C96.5952 51.6936 97.455 51.432 98.2248 50.9905C98.5418 50.8055 98.8798 50.5025 98.8078 50.1425C98.7308 49.7515 98.2359 49.6185 97.8369 49.6295C97.1406 49.6528 96.465 49.8722 95.8879 50.2625" fill="#D3D3D2"/>
<path d="M150.173 25.2725L148.59 25.0255C148.482 25.1636 148.405 25.3225 148.362 25.4923C148.319 25.662 148.312 25.8389 148.341 26.0115C149.165 26.3415 150.052 26.4809 150.938 26.4191C151.823 26.3572 152.682 26.0958 153.452 25.6545C153.769 25.4695 154.107 25.1665 154.035 24.8065C153.958 24.4155 153.464 24.2825 153.064 24.2935C152.368 24.3168 151.692 24.5362 151.115 24.9265" fill="#D3D3D2"/>
<path d="M81.5382 44.2705L79.9542 44.0255C79.8464 44.1635 79.7685 44.3225 79.7254 44.4922C79.6824 44.662 79.6752 44.8388 79.7042 45.0115C80.528 45.3413 81.4159 45.4806 82.3011 45.4187C83.1864 45.3569 84.046 45.0956 84.816 44.6545C85.133 44.4695 85.471 44.1665 85.399 43.8065C85.322 43.4135 84.8281 43.2805 84.429 43.2935C83.7328 43.3165 83.0573 43.5355 82.4801 43.9255" fill="#D3D3D2"/>
<path d="M139.139 38.9525L137.556 38.7075C137.448 38.8455 137.37 39.0044 137.327 39.1742C137.284 39.3439 137.277 39.5208 137.306 39.6935C138.13 40.0232 139.017 40.1622 139.903 40.1002C140.788 40.0382 141.648 39.7768 142.418 39.3355C142.736 39.1505 143.074 38.8475 143.002 38.4875C142.924 38.0945 142.429 37.9615 142.03 37.9745C141.334 37.9972 140.658 38.2166 140.082 38.6075" fill="#D3D3D2"/>
<path d="M148.913 32.7395L147.329 32.4925C147.221 32.6309 147.143 32.7902 147.1 32.9602C147.057 33.1303 147.05 33.3075 147.079 33.4805C147.903 33.8103 148.791 33.9493 149.676 33.8871C150.562 33.8249 151.422 33.5632 152.192 33.1215C152.509 32.9365 152.847 32.6335 152.775 32.2735C152.697 31.8825 152.202 31.7485 151.803 31.7605C151.107 31.784 150.432 32.0034 149.855 32.3935" fill="#D3D3D2"/>
<path d="M126.387 43.2015L124.803 42.9545C124.695 43.0926 124.617 43.2515 124.574 43.4212C124.531 43.591 124.524 43.7678 124.553 43.9405C125.377 44.2706 126.265 44.4099 127.15 44.3481C128.036 44.2863 128.896 44.0249 129.666 43.5835C129.983 43.3985 130.321 43.0955 130.249 42.7355C130.171 42.3445 129.676 42.2115 129.277 42.2225C128.581 42.246 127.906 42.4654 127.329 42.8555" fill="#D3D3D2"/>
<path d="M129.314 24.3495L127.73 24.1025C127.622 24.2405 127.544 24.3994 127.501 24.5692C127.458 24.7389 127.451 24.9158 127.48 25.0885C128.304 25.4186 129.192 25.558 130.077 25.4962C130.963 25.4344 131.823 25.1729 132.593 24.7315C132.91 24.5465 133.248 24.2435 133.176 23.8835C133.097 23.4925 132.603 23.3575 132.204 23.3705C131.508 23.394 130.833 23.6134 130.256 24.0035" fill="#D3D3D2"/>
<path d="M145.114 23.2715L146.714 23.4145C146.813 23.2696 146.88 23.106 146.911 22.9339C146.943 22.7617 146.939 22.5849 146.899 22.4145C146.056 22.1386 145.161 22.0572 144.281 22.1763C143.402 22.2955 142.561 22.6121 141.821 23.1025C141.521 23.3025 141.199 23.6305 141.294 23.9855C141.394 24.3715 141.894 24.4725 142.294 24.4345C142.986 24.3657 143.645 24.1033 144.194 23.6775" fill="#D3D3D2"/>
<path d="M109.366 30.1315L110.966 30.2745C111.065 30.1297 111.132 29.9661 111.164 29.794C111.196 29.6219 111.192 29.445 111.152 29.2745C110.308 28.9987 109.414 28.9173 108.534 29.0364C107.655 29.1556 106.814 29.4721 106.074 29.9625C105.774 30.1625 105.452 30.4905 105.547 30.8455C105.647 31.2315 106.147 31.3325 106.547 31.2945C107.239 31.2257 107.897 30.9633 108.447 30.5375" fill="#D3D3D2"/>
<path d="M118.403 47.1525L120.003 47.2965C120.101 47.1516 120.169 46.988 120.2 46.8159C120.232 46.6438 120.228 46.4669 120.188 46.2965C119.344 46.0208 118.45 45.9395 117.57 46.0586C116.691 46.1778 115.85 46.4943 115.11 46.9845C114.805 47.1905 114.487 47.5145 114.581 47.8695C114.681 48.2555 115.186 48.3565 115.581 48.3185C116.273 48.2493 116.931 47.9869 117.481 47.5615" fill="#D3D3D2"/>
<path d="M153.798 29.4675L155.398 29.6105C155.496 29.4656 155.563 29.302 155.595 29.1298C155.627 28.9577 155.623 28.7809 155.583 28.6105C154.74 28.3349 153.845 28.2536 152.965 28.3727C152.086 28.4919 151.245 28.8084 150.505 29.2985C150.205 29.5045 149.883 29.8285 149.978 30.1835C150.078 30.5695 150.578 30.6705 150.978 30.6325C151.67 30.5631 152.328 30.3008 152.878 29.8755" fill="#D3D3D2"/>
<path d="M138.866 64.214C139.588 64.1203 139.994 62.667 139.774 60.9681C139.553 59.2692 138.789 57.968 138.067 58.0617C137.345 58.1555 136.939 59.6087 137.16 61.3076C137.38 63.0066 138.144 64.3078 138.866 64.214Z" fill="#030504"/>
<path d="M127.282 72.6465C127.282 72.6465 127.782 73.4175 129.143 73.0675C129.537 72.9601 129.891 72.7406 130.162 72.4358C130.433 72.131 130.61 71.754 130.671 71.3505" stroke="#030504" stroke-linecap="round" stroke-linejoin="round"/>
<path d="M134.266 70.8545C134.266 70.8545 134.201 71.7695 132.836 72.1185C132.439 72.2143 132.023 72.1924 131.639 72.0554C131.254 71.9185 130.918 71.6725 130.671 71.3475" stroke="#030504" stroke-linecap="round" stroke-linejoin="round"/>
<path d="M83.962 80.7255L54 78.4185" stroke="#030504" stroke-width="3" stroke-linecap="round" stroke-linejoin="round"/>
<path d="M54.5791 81.9615L57.4131 79.0555L55.4299 75.3645" stroke="#030504" stroke-width="3" stroke-linecap="round" stroke-linejoin="round"/>
<path fill-rule="evenodd" clip-rule="evenodd" d="M133.779 71.6565C133.779 71.6565 134.795 76.1815 132.47 76.3365C130.145 76.4915 128.231 73.1555 128.231 73.1555L131.116 72.7655L133.779 71.6565Z" fill="#E72344" stroke="#030504" stroke-linecap="round" stroke-linejoin="round"/>
<path d="M113.271 68.6805C113.271 68.6805 116.219 64.4945 120.705 66.5875C120.055 66.6889 119.439 66.9447 118.909 67.3334C118.379 67.7221 117.949 68.2324 117.657 68.8215" stroke="#030504" stroke-linecap="round" stroke-linejoin="round"/>
<path fill-rule="evenodd" clip-rule="evenodd" d="M17.9314 116.311L16.5629 117.168C16.1284 117.547 15.85 118.073 15.7821 118.645L15.8089 121.111C15.7731 121.451 15.659 121.778 15.4757 122.066C15.0129 122.768 14.3373 123.303 13.5481 123.592C12.7589 123.882 11.8977 123.91 11.0911 123.674C10.7517 123.569 10.4431 123.382 10.192 123.131L8.76285 121.315C8.35501 120.918 7.81573 120.685 7.24736 120.66L5.45515 120.852C4.99103 120.835 4.54305 120.677 4.17015 120.401C3.53609 119.919 3.06305 119.257 2.81352 118.501C2.564 117.745 2.54973 116.931 2.77262 116.166C2.8788 115.825 3.06668 115.515 3.31991 115.264L5.12066 113.855C5.52026 113.448 5.75621 112.909 5.78345 112.34L5.59777 110.523C5.61462 110.063 5.7691 109.618 6.04123 109.247C6.5204 108.614 7.17982 108.141 7.93278 107.891C8.68574 107.64 9.497 107.623 10.2599 107.841C10.6152 107.95 10.9362 108.149 11.1915 108.419L12.4626 110.122C12.8614 110.524 13.3938 110.767 13.9592 110.804L15.9696 110.655C16.3506 110.675 16.7197 110.795 17.0398 111.002C17.6899 111.444 18.1926 112.071 18.4828 112.801C18.773 113.532 18.8374 114.333 18.6677 115.101C18.5577 115.572 18.2997 115.997 17.9314 116.311Z" fill="url(#paint0_linear_1_78)"/>
<path fill-rule="evenodd" clip-rule="evenodd" d="M107.571 17.2157L105.997 16.8538C105.422 16.8141 104.853 16.9896 104.401 17.3461L102.676 19.1085C102.41 19.3236 102.098 19.4742 101.765 19.5486C100.941 19.7176 100.085 19.618 99.3228 19.2646C98.5602 18.9111 97.931 18.3224 97.5277 17.5849C97.3622 17.2705 97.2759 16.9204 97.2761 16.5651L97.5494 14.2706C97.5415 13.7017 97.3251 13.1555 96.9411 12.7357L95.5376 11.6046C95.2218 11.2641 95.0163 10.836 94.9484 10.3765C94.8406 9.5877 94.9746 8.78472 95.3327 8.07368C95.6909 7.36264 96.2563 6.777 96.9544 6.39415C97.2706 6.22813 97.6225 6.14188 97.9796 6.14289L100.249 6.42C100.819 6.41519 101.367 6.20066 101.789 5.81736L102.943 4.4012C103.28 4.08784 103.703 3.88287 104.158 3.81279C104.944 3.70423 105.745 3.83614 106.455 4.19117C107.165 4.54619 107.751 5.10771 108.135 5.80189C108.31 6.12978 108.396 6.49743 108.386 6.86876L108.08 8.97174C108.078 9.53838 108.283 10.0864 108.656 10.5124L110.183 11.829C110.438 12.1123 110.615 12.4579 110.694 12.831C110.842 13.6032 110.754 14.4019 110.442 15.1237C110.131 15.8455 109.61 16.4573 108.948 16.8801C108.536 17.1359 108.054 17.2535 107.571 17.2157Z" fill="url(#paint1_linear_1_78)"/>
<path d="M47.927 107.239C50.515 107.239 52.613 105.141 52.613 102.553C52.613 99.9655 50.515 97.8675 47.927 97.8675C45.339 97.8675 43.241 99.9655 43.241 102.553C43.241 105.141 45.339 107.239 47.927 107.239Z" fill="url(#paint2_linear_1_78)"/>
<path opacity="0.5" d="M35.432 126.37C36.2947 126.37 36.994 125.671 36.994 124.808C36.994 123.946 36.2947 123.246 35.432 123.246C34.5693 123.246 33.87 123.946 33.87 124.808C33.87 125.671 34.5693 126.37 35.432 126.37Z" fill="url(#paint3_linear_1_78)"/>
<path opacity="0.5" d="M187.439 60.7745C188.302 60.7745 189.001 60.0752 189.001 59.2125C189.001 58.3498 188.302 57.6505 187.439 57.6505C186.576 57.6505 185.877 58.3498 185.877 59.2125C185.877 60.0752 186.576 60.7745 187.439 60.7745Z" fill="url(#paint4_linear_1_78)"/>
</g>
<defs>
<linearGradient id="paint0_linear_1_78" x1="-0.0959751" y1="110.61" x2="16.8124" y2="105.575" gradientUnits="userSpaceOnUse">
<stop stop-color="#F70139"/>
<stop offset="0.505208" stop-color="#BA06F0"/>
<stop offset="1" stop-color="#00D3F0"/>
</linearGradient>
<linearGradient id="paint1_linear_1_78" x1="98.8552" y1="0.436584" x2="114.371" y2="8.83283" gradientUnits="userSpaceOnUse">
<stop stop-color="#F70139"/>
<stop offset="0.505208" stop-color="#BA06F0"/>
<stop offset="1" stop-color="#00D3F0"/>
</linearGradient>
<linearGradient id="paint2_linear_1_78" x1="47.927" y1="97.8675" x2="47.927" y2="107.239" gradientUnits="userSpaceOnUse">
<stop stop-color="#B7BEFF"/>
<stop offset="1" stop-color="#5379FF"/>
</linearGradient>
<linearGradient id="paint3_linear_1_78" x1="35.432" y1="123.246" x2="35.432" y2="126.37" gradientUnits="userSpaceOnUse">
<stop stop-color="#B7BEFF"/>
<stop offset="1" stop-color="#5379FF"/>
</linearGradient>
<linearGradient id="paint4_linear_1_78" x1="187.439" y1="57.6505" x2="187.439" y2="60.7745" gradientUnits="userSpaceOnUse">
<stop stop-color="#B7BEFF"/>
<stop offset="1" stop-color="#5379FF"/>
</linearGradient>
<clipPath id="clip0_1_78">
<rect width="190.705" height="129.755" fill="white" transform="translate(0 0.622498)"/>
</clipPath>
</defs>
</svg>
