<svg width="192" height="147" viewBox="0 0 192 147" fill="none" xmlns="http://www.w3.org/2000/svg">
<g clip-path="url(#clip0_1_6)">
<path d="M35.597 104.037L15.628 97.2085" stroke="#030504" stroke-width="3" stroke-linecap="round" stroke-linejoin="round"/>
<path d="M18.137 93.9325L20.255 98.7905L15.628 102.29" stroke="#030504" stroke-width="3" stroke-linecap="round" stroke-linejoin="round"/>
<path d="M85.5229 99.9455L111.543 143.146L116.324 140.788" stroke="#030504" stroke-width="3" stroke-linecap="round" stroke-linejoin="round"/>
<path d="M66.239 115.722L58.146 144.007L52.863 143.292" stroke="#030504" stroke-width="3" stroke-linecap="round" stroke-linejoin="round"/>
<path d="M105.16 43.2315C107.122 38.0035 111.7 43.8875 111.7 43.8875C116.712 39.2565 121.088 48.2215 121.088 48.2215C126.317 44.5915 127.823 55.4325 127.823 55.4325C131.964 54.1255 132.399 59.7915 132.399 59.7915C134.158 60.6547 135.834 61.6756 137.409 62.8415C140.461 65.0215 134.576 67.8535 134.576 67.8535C134.576 67.8535 136.321 67.4175 139.588 70.6885C142.855 73.9595 139.152 74.6085 139.152 74.6085L140.025 77.6585C140.895 80.7085 136.325 80.7085 136.325 80.7085C137.425 81.6321 138.255 82.8369 138.725 84.1945C139.813 86.8095 134.803 87.4615 134.803 87.4615C134.803 87.4615 136.982 88.9895 136.329 92.4735C135.676 95.9575 130.011 94.4355 130.011 94.4355C130.011 94.4355 130.664 95.9595 130.227 99.4475C129.79 102.935 123.691 99.2285 123.691 99.2285C123.691 99.2285 122.601 99.0115 123.255 103.586C123.909 108.161 118.027 105.986 118.027 105.986C118.027 105.986 119.114 106.857 118.897 110.128C118.68 113.398 113.449 112.304 113.449 112.304C116.064 115.575 106.694 117.969 106.694 117.969C105.809 118.121 105.002 118.571 104.408 119.244C103.814 119.917 103.467 120.773 103.426 121.669C103.209 124.938 96.2369 123.195 96.2369 123.195C96.2369 123.195 92.097 124.504 91.225 127.554C90.353 130.604 85.5599 126.901 85.5599 126.901C83.9452 127.776 82.1625 128.295 80.3309 128.425C79.5037 128.515 78.6701 128.329 77.9603 127.894C77.2505 127.46 76.7046 126.803 76.408 126.025C75.1744 126.761 73.8579 127.346 72.486 127.77C70.307 128.423 67.911 125.154 67.911 125.154C67.911 125.154 67.4749 128.206 63.7689 127.554C60.0629 126.902 61.369 121.889 61.369 121.889C60.1936 123.694 58.5319 125.128 56.5759 126.028C53.0899 127.771 51.3469 120.799 51.3469 120.799C51.3469 120.799 50.476 122.323 46.335 124.94C42.194 127.557 40.8889 117.966 40.8889 117.966C40.8889 117.966 38.2729 120.366 33.0449 118.619C27.8169 116.872 33.0449 110.339 33.0449 110.339C33.0449 110.339 31.9529 113.391 29.1219 110.559C26.2909 107.727 31.2999 102.278 31.2999 102.278C27.1599 99.6635 32.172 94.4345 32.172 94.4345C28.033 88.5495 35.005 82.0165 35.005 82.0165C35.005 82.0165 32.172 75.4785 35.005 75.2615C36.7506 75.133 38.5051 75.2058 40.234 75.4785C40.234 75.4785 39.361 68.5045 43.501 69.8135C47.641 71.1225 48.515 69.5945 48.515 69.5945C48.515 69.5945 47.6429 66.5455 50.0389 65.6725C51.5369 65.1685 53.1694 65.246 54.6129 65.8895C54.6129 65.8895 54.177 60.0075 55.702 59.7895C57.227 59.5715 58.973 61.3155 58.973 61.3155C58.973 61.3155 60.28 58.0465 62.24 58.2655C63.4356 58.3998 64.6079 58.693 65.726 59.1375C65.726 59.1375 66.599 56.5215 67.688 56.5215C69.1828 56.2416 70.6437 55.8038 72.046 55.2155C72.046 55.2155 72.701 51.5155 74.226 51.5155C75.751 51.5155 77.7109 51.7325 77.7109 51.7325C77.7109 51.7325 78.584 48.4655 81.198 48.6855C83.812 48.9055 85.9919 48.9025 85.9919 48.9025C85.9919 48.9025 86.209 44.7615 89.042 45.8505C91.0043 46.5365 93.0635 46.9045 95.142 46.9405C95.142 46.9405 92.9629 42.5815 96.2319 43.4525C97.9479 43.9339 99.6946 44.2981 101.46 44.5425C101.46 44.5425 100.59 42.1425 102.113 41.0565C103.636 39.9705 105.16 43.2315 105.16 43.2315Z" fill="#EDE7D5"/>
<path d="M134.577 67.8625C134.577 67.8625 140.462 65.0305 137.41 62.8505C135.835 61.6846 134.159 60.6638 132.4 59.8005C132.4 59.8005 132.384 59.6275 132.342 59.3615C130.933 59.8375 130.669 60.6175 130.669 60.6175C130.255 60.6228 129.849 60.5027 129.505 60.273C129.161 60.0432 128.894 59.7147 128.74 59.3305C127.94 57.8845 127.294 61.5815 127.294 61.5815C126.612 61.783 125.885 61.783 125.203 61.5815C123.919 61.2595 124.08 64.6335 124.08 64.6335C124.08 64.6335 123.436 66.4035 120.864 65.2785C118.292 64.1535 118.132 69.6175 118.132 69.6175C117.467 69.7171 116.788 69.6354 116.165 69.3811C115.543 69.1268 115.001 68.7092 114.596 68.1725C112.828 66.2415 111.543 71.7055 111.543 71.7055C111.136 71.9917 110.645 72.1317 110.149 72.1029C109.652 72.074 109.181 71.8779 108.81 71.5465C107.203 70.4205 104.469 75.5635 104.469 75.5635C104.038 75.9155 103.499 76.1077 102.943 76.1077C102.386 76.1077 101.847 75.9155 101.416 75.5635C99.97 74.2795 100.401 78.9375 100.401 78.9375C100.401 78.9375 99.556 83.0985 96.982 81.8125C94.408 80.5265 94.071 84.9975 94.071 84.9975C94.071 84.9975 92.416 84.4045 91.771 87.4595C91.126 90.5145 84.377 88.2595 84.377 88.2595L72.161 88.9035C72.161 88.9035 65.893 105.94 66.054 112.37C66.154 116.153 67.971 121.771 69.779 127.036C70.142 127.359 70.5743 127.594 71.0424 127.723C71.5105 127.852 72.002 127.872 72.479 127.781C73.8509 127.357 75.1675 126.772 76.401 126.036C76.6977 126.814 77.2436 127.471 77.9534 127.905C78.6632 128.34 79.4968 128.526 80.324 128.436C82.1556 128.306 83.9382 127.787 85.553 126.913C85.553 126.913 90.353 130.612 91.218 127.565C92.083 124.518 96.23 123.206 96.23 123.206C96.23 123.206 103.202 124.949 103.419 121.68C103.46 120.784 103.807 119.928 104.401 119.255C104.995 118.582 105.802 118.132 106.687 117.98C106.687 117.98 116.057 115.586 113.442 112.315C113.442 112.315 118.673 113.405 118.89 110.138C119.107 106.871 118.02 105.997 118.02 105.997C118.02 105.997 123.902 108.177 123.248 103.598C122.594 99.0185 123.684 99.2395 123.684 99.2395C123.684 99.2395 129.784 102.939 130.22 99.4585C130.656 95.9775 130.004 94.4465 130.004 94.4465C130.004 94.4465 135.669 95.9705 136.322 92.4845C136.975 88.9985 134.796 87.4725 134.796 87.4725C134.796 87.4725 139.806 86.8195 138.718 84.2055C138.248 82.8479 137.418 81.6431 136.318 80.7195C136.318 80.7195 140.893 80.7195 140.018 77.6695L139.145 74.6195C139.145 74.6195 142.845 73.9665 139.581 70.6995C136.317 67.4325 134.577 67.8625 134.577 67.8625Z" fill="#DED8BE"/>
<path d="M102.757 109.189C102.757 109.189 103.421 112.203 105.251 111.516C106.912 110.905 108.419 109.94 109.669 108.686C110.159 108.097 110.566 107.443 110.879 106.743C110.879 106.743 111.129 109.354 107.879 111.129C104.629 112.904 102.299 113.541 102.757 109.189Z" fill="#CDC7AC"/>
<path d="M108.743 97.6205C108.085 99.0118 106.943 100.116 105.53 100.728C103.168 101.74 101.949 100.788 101.949 100.788C102.089 101.293 102.418 101.724 102.867 101.993C103.316 102.262 103.851 102.348 104.362 102.233C106.325 101.917 110.019 99.4905 108.743 97.6205Z" fill="#CDC7AC"/>
<path d="M112.45 90.3815C112.45 90.3815 111.03 92.4725 109.442 92.8725C108.446 93.1067 107.405 93.0593 106.434 92.7355C106.603 93.0404 106.837 93.3038 107.12 93.5067C107.404 93.7096 107.729 93.8469 108.071 93.9086C108.414 93.9702 108.767 93.9548 109.103 93.8633C109.439 93.7717 109.751 93.6065 110.015 93.3795C112.41 91.8265 112.511 91.5065 112.45 90.3815Z" fill="#CDC7AC"/>
<path d="M136.548 64.0025C136.548 64.0025 135.77 65.8815 134.378 66.1675C133.035 66.2401 131.69 66.06 130.413 65.6365C130.413 65.6365 130.494 67.6015 132.17 67.6805C133.846 67.7595 134.749 67.7635 135.77 66.9445C136.791 66.1255 138.799 64.2865 136.548 64.0025Z" fill="#CDC7AC"/>
<path d="M140.026 77.6635C139.864 77.1025 139.733 76.6465 139.626 76.2715C139.826 77.3055 139.826 78.4905 138.926 78.7875C138.414 78.9881 137.863 79.0723 137.314 79.0339C136.765 78.9955 136.231 78.8355 135.752 78.5655C135.276 78.0683 134.847 77.5284 134.471 76.9525C134.471 76.9525 134.771 79.7985 136.319 80.7135C136.322 80.7135 140.896 80.7135 140.026 77.6635Z" fill="#E8E2C6"/>
<path d="M137.869 84.8055C137.4 85.2517 136.835 85.5843 136.218 85.7775C135.6 85.9706 134.946 86.0192 134.307 85.9195C133.521 85.6644 132.757 85.3474 132.022 84.9715C132.022 84.9715 134.082 87.0335 135.866 86.6445C136.776 86.4341 137.67 86.1632 138.544 85.8335C138.724 85.6051 138.836 85.3306 138.866 85.0415C138.897 84.7525 138.846 84.4606 138.718 84.1995C138.248 82.8419 137.418 81.6371 136.318 80.7135C136.318 80.7135 138.427 84.1905 137.869 84.8055Z" fill="#E8E2C6"/>
<path d="M136.926 73.6085L139.156 74.6085C139.156 74.6085 142.856 73.9555 139.592 70.6885C137.466 68.5615 135.992 68.0035 135.216 67.8755C136.448 68.6895 140.569 71.5275 140.047 72.7145C139.431 74.1115 136.926 73.6085 136.926 73.6085Z" fill="#E8E2C6"/>
<path d="M132.634 60.9655C132.634 60.9655 136.979 62.6915 136.646 64.1955C136.245 65.4372 135.642 66.6045 134.862 67.6505L134.915 67.6845C136.115 67.0375 140.015 64.7045 137.409 62.8455C135.835 61.6796 134.158 60.6587 132.399 59.7955C132.399 59.7955 132.383 59.6225 132.341 59.3565C131.886 59.4984 131.465 59.7322 131.104 60.0435L132.634 60.9655Z" fill="#E8E2C6"/>
<path d="M130.219 99.4525C130.657 95.9645 130.003 94.4405 130.003 94.4405C130.003 94.4405 135.668 95.9645 136.321 92.4785C136.974 88.9925 134.795 87.4665 134.795 87.4665C134.795 87.4665 139.805 86.8135 138.717 84.1995C138.247 82.8419 137.417 81.6371 136.317 80.7135C136.317 80.7135 138.758 80.7135 139.731 79.5135C139.517 78.1047 139.167 76.7202 138.684 75.3795C138.684 75.3795 138.622 77.8675 137.253 78.1145C135.884 78.3615 133.089 75.6285 133.089 75.6285C133.125 76.2975 133.295 76.9526 133.589 77.5545C134.227 78.6501 134.955 79.6907 135.765 80.6655C136.717 81.9029 137.429 83.3073 137.865 84.8065C138.351 86.8965 131.412 86.0065 131.412 86.0065C132.398 86.6813 133.278 87.4989 134.023 88.4325C134.893 89.6755 134.396 89.8005 133.276 91.9765C132.156 94.1525 125.817 92.6585 125.817 92.6585L128.988 94.2765C128.988 94.2765 129.299 94.4625 129.299 96.3275C129.299 98.1925 127.743 99.5605 125.257 98.3785C124.552 98.0658 123.934 97.5852 123.458 96.9785C122.981 96.3719 122.661 95.6577 122.524 94.8985C122.447 95.3293 122.426 95.7682 122.46 96.2045C122.524 96.8885 122.898 99.2505 122.898 99.8045C122.656 101.362 122.173 102.873 121.467 104.283C120.535 106.273 116.058 103.227 116.058 103.227C116.777 104.462 117.4 105.751 117.923 107.081C118.161 107.924 118.084 108.823 117.706 109.613C117.329 110.402 116.677 111.027 115.872 111.37C114.007 112.301 109.032 109.939 109.032 109.939C109.032 109.939 111.395 111.927 111.644 112.922C111.893 113.917 109.22 116.217 106.049 116.904C104.239 117.328 102.341 117.153 100.64 116.404C101.224 116.91 101.708 117.52 102.069 118.203C102.317 118.948 102.256 119.757 100.515 121.249C98.774 122.741 93.554 120.254 93.554 120.254L85.968 119.198C85.968 119.198 86.8999 124.169 87.2109 124.793C87.3799 125.126 88.387 126.982 89.334 128.727C89.5347 128.776 89.7433 128.785 89.9475 128.753C90.1517 128.72 90.3472 128.647 90.5226 128.538C90.6979 128.428 90.8495 128.284 90.9683 128.115C91.087 127.946 91.1706 127.755 91.214 127.552C92.086 124.502 96.226 123.193 96.226 123.193C96.226 123.193 103.198 124.936 103.415 121.667C103.456 120.771 103.803 119.915 104.397 119.242C104.991 118.569 105.798 118.119 106.683 117.967C106.683 117.967 116.053 115.573 113.438 112.302C113.438 112.302 118.669 113.392 118.886 110.125C119.103 106.858 118.016 105.984 118.016 105.984C118.016 105.984 123.898 108.164 123.244 103.585C122.59 99.0055 123.68 99.2265 123.68 99.2265C123.68 99.2265 129.785 102.938 130.219 99.4525Z" fill="#CDC7AC"/>
<path d="M95.53 123.47C95.4543 122.25 95.1244 121.058 94.5615 119.973C93.9986 118.887 93.2149 117.931 92.261 117.165C92.9156 116.762 93.4767 116.224 93.907 115.586C94.935 114.286 94.7991 111.266 94.3191 109.552C93.5091 107.591 92.5216 105.708 91.369 103.926C91.5711 102.519 91.6382 101.096 91.5691 99.6755C91.4331 97.6185 88.349 96.0415 88.349 96.0415C88.349 96.0415 90.198 93.0255 90.198 90.9655C90.233 90.2673 90.0353 89.5772 89.636 89.0035C87.8515 89.0691 86.0697 88.8161 84.374 88.2565L82.6211 88.3475C81.7563 90.643 81.0122 92.9822 80.3921 95.3555C79.8834 97.0444 79.6514 98.8045 79.705 100.567C79.636 101.667 79.432 108.179 79.432 115.244C79.432 119.891 80.883 124.498 82.211 128.144C83.3774 127.892 84.5016 127.474 85.549 126.902C85.549 126.902 90.349 130.602 91.214 127.555C91.861 125.29 94.311 123.99 95.53 123.47Z" fill="#D2CCB0"/>
<path d="M93.017 110.5C92.1403 107.932 90.834 105.532 89.154 103.4C89.154 103.4 92.665 97.3215 87.054 96.3085C87.054 96.3085 92.3191 87.8605 87.7541 88.1995C83.1891 88.5385 83.189 85.1585 83.189 85.1585C83.189 85.1585 79.68 81.7785 77.574 83.8075C77.574 83.8075 75.117 76.3735 71.958 80.4275L66.34 82.4565C66.34 82.4565 66.34 76.7115 62.477 78.7405C60.1778 79.9536 57.6838 80.7541 55.1081 81.1055C55.1081 81.1055 57.563 75.0235 53 77.7275C50.4879 79.1656 48.1343 80.8643 45.9781 82.7955C45.9781 82.7955 47.034 77.0505 44.224 78.7405C41.414 80.4305 41.063 78.0645 41.063 78.0645C41.2774 77.2839 41.3086 76.4644 41.1542 75.6698C40.9998 74.8752 40.664 74.127 40.173 73.4835C40.144 74.1507 40.1645 74.8192 40.234 75.4835C38.5051 75.2108 36.7506 75.138 35.005 75.2665C32.172 75.4835 35.005 82.0215 35.005 82.0215C35.005 82.0215 28.033 88.5545 32.172 94.4395C32.172 94.4395 27.16 99.6685 31.3 102.283C31.3 102.283 26.29 107.731 29.122 110.564C30.674 112.115 31.699 111.898 32.313 111.387C31.088 113.303 29.1191 117.317 33.0461 118.624C38.2731 120.367 40.89 117.97 40.89 117.97C40.89 117.97 42.196 127.558 46.336 124.944C50.476 122.33 51.3481 120.803 51.3481 120.803C51.3481 120.803 53.0911 127.776 56.5771 126.033C58.5331 125.132 60.1946 123.698 61.37 121.893C61.37 121.893 60.0631 126.906 63.7701 127.559C67.4771 128.212 67.912 125.158 67.912 125.158C67.912 125.158 70.312 128.427 72.487 127.774C73.8589 127.35 75.1754 126.765 76.409 126.029C76.7056 126.807 77.2516 127.464 77.9613 127.898C78.6711 128.333 79.5049 128.519 80.3321 128.43C82.1636 128.299 83.9462 127.78 85.5609 126.905C86.1643 127.356 86.8042 127.756 87.474 128.1C91.832 130.541 92.558 126.16 92.066 123.483C91.012 117.738 89.166 116.583 89.166 116.583C89.166 116.583 94.774 115.231 93.017 110.5Z" fill="#F3FAFA"/>
<path fill-rule="evenodd" clip-rule="evenodd" d="M73.5129 114.496C74.7049 114.496 75.676 113.945 75.676 113.268C75.676 112.591 74.7049 112.04 73.5129 112.04C72.3209 112.04 71.35 112.593 71.35 113.268C71.35 113.943 72.3209 114.496 73.5129 114.496Z" fill="#E94153"/>
<path fill-rule="evenodd" clip-rule="evenodd" d="M44.974 112.349C46.167 112.349 47.1369 111.797 47.1369 111.12C47.1369 110.443 46.167 109.892 44.974 109.892C43.781 109.892 42.811 110.442 42.811 111.12C42.811 111.798 43.785 112.349 44.974 112.349Z" fill="#E94153"/>
<path d="M96.775 112.789C96.775 112.789 97.098 116.081 99.099 116.404C101.1 116.727 102.327 116.209 103.038 115.436C103.517 114.874 103.909 114.243 104.2 113.564C104.2 113.564 103.166 117.241 101.231 117.436C99.296 117.631 96.453 118.082 96.775 112.789Z" fill="#CDC7AC"/>
<path d="M132.366 84.5065C132.366 84.5065 132.966 86.0745 130.439 87.1585C129.763 87.4866 129.02 87.6572 128.268 87.6572C127.517 87.6572 126.774 87.4866 126.098 87.1585C126.098 87.1585 129.714 86.7965 130.618 86.0745C131.522 85.3525 131.883 84.5065 131.703 84.1455C131.542 83.7914 131.401 83.4289 131.28 83.0595C131.28 83.0595 132.427 83.4825 132.366 84.5065Z" fill="#CDC7AC"/>
<path d="M110.016 102.542C110.252 102.965 110.611 103.308 111.045 103.525C111.478 103.742 111.967 103.824 112.448 103.759C114.101 103.497 116.618 103.843 117.662 101.413C118.706 98.9835 118.362 98.1965 118.362 98.1965C118.362 98.1965 119.662 101.153 117.84 102.889C116.018 104.625 111.32 106.28 110.016 102.542Z" fill="#CDC7AC"/>
<path d="M124.354 84.1585C124.354 84.1585 127.414 85.6395 126.822 88.3055C126.23 90.9715 122.085 91.9575 122.085 91.9575C122.085 91.9575 125.538 90.6765 125.343 88.4045C125.199 86.9522 124.867 85.5249 124.354 84.1585Z" fill="#CDC7AC"/>
<path d="M132.998 69.2845C133.112 70.1549 133.523 70.9596 134.16 71.5635C135.172 72.4245 137.046 73.4375 137.96 73.3845L138.871 73.3345C138.871 73.3345 138.365 74.7515 135.632 73.3345C134.844 72.9927 134.174 72.4264 133.705 71.7061C133.237 70.9859 132.991 70.1436 132.998 69.2845Z" fill="#CDC7AC"/>
<path d="M121.851 90.3155C122.246 90.6032 122.543 91.0061 122.701 91.469C122.859 91.9319 122.869 92.4322 122.732 92.9015C122.213 94.5075 119.266 97.7655 117.455 97.0425C115.644 96.3195 118.231 96.6275 119.471 95.4905C120.711 94.3535 121.803 91.5065 121.387 90.5755C120.971 89.6445 121.025 89.3845 121.851 90.3155Z" fill="#CDC7AC"/>
<path d="M118.58 80.7385C118.58 80.7385 119.262 82.2845 118.544 83.2175C117.989 83.847 117.286 84.3281 116.498 84.6175C116.498 84.6175 118.941 84.9405 119.298 83.1435C119.655 81.3465 119.48 81.1715 118.58 80.7385Z" fill="#CDC7AC"/>
<path d="M130.727 74.8775C130.727 74.8775 131.408 76.4255 130.69 77.3565C130.134 77.9849 129.432 78.4659 128.645 78.7565C128.645 78.7565 131.085 79.0795 131.445 77.2835C131.805 75.4875 131.625 75.3105 130.727 74.8775Z" fill="#CDC7AC"/>
<path d="M120.412 90.6385C120.53 90.8295 120.599 91.0472 120.611 91.2717C120.623 91.4961 120.578 91.7199 120.481 91.9225C120.181 92.7725 119.391 93.9305 119.355 93.4295C119.319 92.9285 119.978 91.9375 119.874 91.4535C119.77 90.9695 119.911 90.1545 120.412 90.6385Z" fill="#E8E2C6"/>
<path d="M130.368 83.3145C130.368 83.3145 131.375 84.3435 130.719 84.9025C130.063 85.4615 128.684 85.7475 128.87 85.3495C129.056 84.9515 129.83 85.0915 129.901 84.4825C129.972 83.8735 130.204 83.0325 130.368 83.3145Z" fill="#E8E2C6"/>
<path d="M130.484 75.7555C130.546 75.8527 130.587 75.9614 130.605 76.075C130.623 76.1886 130.618 76.3047 130.59 76.4163C130.562 76.5279 130.511 76.6326 130.442 76.7241C130.372 76.8156 130.284 76.8919 130.184 76.9485C129.434 77.4845 129.247 77.3485 129.484 76.9485C129.785 76.525 130.12 76.126 130.484 75.7555Z" fill="#E8E2C6"/>
<path d="M135.587 63.6545C135.676 63.7554 135.74 63.8755 135.774 64.0055C135.809 64.1354 135.812 64.2715 135.785 64.4031C135.758 64.5348 135.7 64.6582 135.617 64.7638C135.534 64.8694 135.428 64.9542 135.306 65.0115C134.394 65.6655 132.637 65.8785 132.662 65.5975C132.687 65.3165 133.879 65.3865 134.416 64.8975L134.956 64.4075C134.956 64.4075 135.492 63.1855 135.587 63.6545Z" fill="#E5DFC4"/>
<path d="M138.841 71.8235C138.84 71.9541 138.808 72.0827 138.75 72.1993C138.691 72.316 138.606 72.4178 138.502 72.4967C138.398 72.5757 138.278 72.6297 138.149 72.6548C138.021 72.6799 137.889 72.6754 137.763 72.6415C136.685 72.5255 135.678 72.1725 136.148 71.9625C136.618 71.7525 137.365 72.1495 137.716 71.9625C138.067 71.7755 138.794 71.2375 138.841 71.8235Z" fill="#E8E2C6"/>
<path d="M98.1209 113.342C98.1209 113.342 98.602 114.662 99.502 114.423C100.402 114.184 101.421 113.703 100.341 113.283C99.6948 113.033 99.0884 112.69 98.541 112.265C98.541 112.265 98.0599 112.264 98.1209 113.342Z" fill="#E8E2C6"/>
<path d="M91.848 96.4625C92.4463 97.1825 92.8516 98.0428 93.026 98.9625C93.026 99.9935 94.2019 98.4235 93.7119 97.1475C93.2219 95.8715 91.702 95.2845 91.848 96.4625Z" fill="#E8E2C6"/>
<path d="M117.876 81.0205C117.876 81.0205 117.876 83.0775 116.748 83.2745C115.62 83.4715 116.648 82.6875 116.699 82.0485C116.75 81.4095 117.827 79.9895 117.876 81.0205Z" fill="#E5DFC4"/>
<path fill-rule="evenodd" clip-rule="evenodd" d="M127.823 55.4355C127.536 53.508 126.963 51.6342 126.123 49.8755C122.161 49.2215 118.029 48.2415 116.486 46.6225C114.786 44.8375 108.149 43.6455 101.216 43.0705C101.222 43.5711 101.305 44.0678 101.461 44.5435C99.6956 44.2991 97.9489 43.9349 96.2329 43.4535C92.9639 42.5815 95.143 46.9415 95.143 46.9415C93.0645 46.9055 91.0053 46.5375 89.043 45.8515C86.21 44.7625 85.9929 48.9035 85.9929 48.9035C85.9929 48.9035 83.811 48.9035 81.199 48.6865C78.587 48.4695 77.7119 51.7335 77.7119 51.7335C77.7119 51.7335 75.752 51.5165 74.227 51.5165C72.702 51.5165 72.047 55.2165 72.047 55.2165C70.6447 55.8048 69.1838 56.2426 67.689 56.5225C66.6 56.5225 65.727 59.1385 65.727 59.1385C64.6089 58.6941 63.4366 58.4008 62.241 58.2665C60.281 58.0475 58.974 61.3165 58.974 61.3165C58.974 61.3165 57.231 59.5755 55.703 59.7905C54.175 60.0055 54.614 65.8905 54.614 65.8905C53.1706 65.247 51.5379 65.1695 50.0399 65.6735C47.6399 66.5465 48.516 69.5955 48.516 69.5955C48.516 69.5955 47.644 71.1215 43.502 69.8145C39.36 68.5075 40.235 75.4795 40.235 75.4795C38.5061 75.2068 36.7516 75.134 35.006 75.2625C32.173 75.4795 35.006 82.0175 35.006 82.0175C35.006 82.0175 30.444 86.2955 30.895 91.0455C34.756 92.2575 43.1289 94.2535 55.5239 93.8065C73.1009 93.1725 83.077 94.4395 92.419 90.0065C101.761 85.5735 117.119 73.8535 125.355 68.4715L135.723 61.6885C134.662 60.9796 133.553 60.3448 132.404 59.7885C132.404 59.7885 131.963 54.1285 127.823 55.4355Z" fill="#C3C094"/>
<path fill-rule="evenodd" clip-rule="evenodd" d="M131.936 61.5285C131.936 61.5285 140.495 55.7105 141.523 45.7395C142.551 35.7685 133.823 27.3315 113.808 22.9865C113.808 22.9865 75.649 18.4305 51.162 33.8995C26.675 49.3685 25.1799 69.8995 25.1799 79.4155C25.1799 88.9315 33.841 91.9085 51.162 91.3155C68.483 90.7225 81.782 93.3505 94.024 85.6155C106.266 77.8805 131.936 61.5285 131.936 61.5285Z" fill="#ED6313"/>
<path d="M114.087 67.8715C112.623 59.0785 100.607 46.7715 85.6589 43.5455C74.5489 41.1455 48.551 45.0685 35.929 47.2365C34.4607 49.0697 33.124 51.0046 31.929 53.0265C50.71 46.7915 72.7089 44.5895 84.7839 47.3555C98.8499 50.5805 107.643 62.5965 108.816 73.1485C108.916 74.0855 108.972 75.0865 108.988 76.1285L114.472 72.6455C114.478 71.0462 114.349 69.4492 114.087 67.8715Z" fill="#FD9834"/>
<path d="M118.702 24.1955C117.15 23.7645 115.524 23.3595 113.802 22.9865C107.202 22.3355 100.563 22.1787 93.94 22.5175C99.7451 22.6621 105.506 23.5699 111.074 25.2175C124.774 29.7685 132.379 42.5695 132.54 53.1845C132.519 56.0462 132.223 58.8992 131.657 61.7045L131.93 61.5315C134.287 59.7902 136.327 57.6564 137.96 55.2235C138.329 52.9809 138.441 50.7035 138.293 48.4355C137.774 40.8985 129.946 30.1295 118.702 24.1955Z" fill="#FD9834"/>
<path d="M71.0041 59.0785C61.6041 57.0515 41.53 59.5455 27.934 61.6785C27.447 63.0925 27.047 64.4725 26.716 65.8195C43.002 61.7335 60.032 60.5775 70.125 62.8915C75.7753 64.189 80.9597 67.0158 85.1109 71.0626C89.2621 75.1094 92.2201 80.2201 93.661 85.8355C93.783 85.7605 93.903 85.6935 94.023 85.6165C95.565 84.6435 97.3151 83.5345 99.2021 82.3385C96.9951 73.6445 85.3581 62.1755 71.0041 59.0785Z" fill="#FD9834"/>
<path d="M65.7271 72.2685C56.9271 70.3685 38.791 72.4345 25.354 74.4505C25.254 75.7815 25.21 77.0105 25.191 78.1205C40.291 74.7675 55.529 73.9405 64.848 76.0775C72.8743 77.9317 79.8662 82.8317 84.348 89.7435C86.2781 89.2554 88.1617 88.5988 89.9771 87.7815C83.9363 79.9559 75.3642 74.4722 65.7271 72.2685Z" fill="#FD9834"/>
<path d="M125.302 65.7525C126.013 62.1026 126.086 58.3573 125.519 54.6825C124.052 45.8895 112.039 33.5825 97.09 30.3565C87.268 28.2385 65.8079 31.0565 52.2439 33.2335C51.8789 33.4535 51.519 33.6735 51.162 33.8985C48.2697 35.7148 45.5189 37.7473 42.933 39.9785C61.805 33.6325 84.048 31.3785 96.211 34.1655C110.279 37.3905 119.072 49.4065 120.243 59.9565C120.506 62.9807 120.469 66.0236 120.132 69.0405C122.009 67.8475 123.755 66.7385 125.302 65.7525Z" fill="#FD9834"/>
<g style="mix-blend-mode:screen" opacity="0.6">
<path fill-rule="evenodd" clip-rule="evenodd" d="M141.493 42.4645C140.453 33.9395 131.587 26.8475 113.807 22.9865C113.807 22.9865 75.648 18.4305 51.161 33.8995C26.674 49.3685 25.1789 69.8995 25.1789 79.4155C25.0925 80.9245 25.3637 82.4326 25.9703 83.8171C26.5769 85.2015 27.502 86.4231 28.67 87.3825C24.483 74.3375 27.9469 54.7675 42.2829 42.7275C58.6649 28.9645 90.9969 19.5715 115.683 25.0275C132.356 28.7205 138.958 37.2855 141.493 42.4645Z" fill="#FA8F41"/>
</g>
<g style="mix-blend-mode:multiply" opacity="0.5">
<path fill-rule="evenodd" clip-rule="evenodd" d="M140.229 50.9605C140.837 45.6365 140.062 38.7185 133.816 33.7695C133.816 33.7695 138.622 42.9455 128.79 51.6845C118.958 60.4235 103.233 66.5375 91.4349 73.5305C79.6369 80.5235 73.3049 83.1425 58.0129 83.5795C42.7209 84.0165 32.0129 84.2335 29.6129 81.3925C28.2582 79.9298 27.349 78.111 26.992 76.1495C26.992 76.1495 24.009 80.3775 31.292 88.9775C35.617 90.9775 42.2359 91.6215 51.1649 91.3155C68.4829 90.7155 81.785 93.3505 94.027 85.6155C106.269 77.8805 131.94 61.5295 131.94 61.5295C135.605 58.8181 138.469 55.1663 140.229 50.9605Z" fill="#D24B13"/>
</g>
<g style="mix-blend-mode:multiply" opacity="0.5">
<path fill-rule="evenodd" clip-rule="evenodd" d="M135.478 51.8345C133.132 57.0345 121.899 63.7345 109.325 72.4555C96.751 81.1765 73.9519 87.5435 57.5249 88.2145C47.8699 88.5369 38.2124 87.6513 28.777 85.5785C29.5344 86.7695 30.3749 87.9057 31.292 88.9785C35.617 90.9785 42.2359 91.6225 51.1649 91.3165C68.4829 90.7165 81.785 93.3515 94.027 85.6165C106.269 77.8815 131.935 61.5285 131.935 61.5285C134.987 59.2627 137.499 56.3471 139.287 52.9925C139.314 49.0015 138.936 45.0182 138.159 41.1035C137.847 44.8013 136.942 48.4247 135.478 51.8345Z" fill="#BD3A12"/>
</g>
<path d="M101.203 22.3615C101.355 22.3615 101.503 22.3615 101.651 22.3615C101.818 22.3615 101.981 22.3615 102.145 22.3615C102.289 22.3615 102.434 22.3615 102.578 22.3615L103.054 22.3705C103.193 22.3705 103.33 22.3705 103.468 22.3705L103.945 22.3815L104.332 22.3905C104.491 22.3905 104.647 22.3995 104.804 22.4025C104.924 22.4025 105.046 22.4025 105.165 22.4115C105.331 22.4115 105.49 22.4225 105.651 22.4285L105.966 22.4375C106.144 22.4435 106.318 22.4515 106.489 22.4595L106.733 22.4685C106.913 22.4685 107.087 22.4825 107.261 22.4885L107.481 22.5015C107.957 22.5235 108.411 22.5468 108.844 22.5715L109.078 22.5855C109.214 22.5935 109.348 22.6015 109.478 22.6105C109.558 22.6105 109.633 22.6195 109.707 22.6235C109.829 22.6325 109.951 22.6395 110.066 22.6485L110.3 22.6645C110.411 22.6725 110.52 22.6785 110.626 22.6875C110.693 22.6875 110.759 22.6965 110.826 22.7035C110.935 22.7095 111.043 22.7195 111.145 22.7255C111.209 22.7315 111.268 22.7345 111.329 22.7395C111.429 22.7485 111.518 22.7555 111.609 22.7615C111.67 22.7675 111.731 22.7725 111.792 22.7775C111.879 22.7865 111.964 22.7935 112.047 22.7975L112.195 22.8115L112.432 22.8335L112.569 22.8445C112.635 22.8535 112.699 22.8575 112.76 22.8635C112.821 22.8695 112.86 22.8715 112.902 22.8775C112.944 22.8835 113.002 22.8865 113.049 22.8905L113.168 22.9045L113.299 22.9165L113.399 22.9275L113.48 22.9355L113.572 22.9445L113.642 22.9535C113.66 22.9538 113.678 22.9558 113.696 22.9595L113.796 22.9705C114.387 23.0985 114.967 23.2325 115.541 23.3705L116.108 23.5095C116.127 23.5095 116.144 23.5185 116.162 23.5225C116.246 23.5445 116.331 23.5665 116.413 23.5855C116.686 23.6545 116.963 23.7215 117.233 23.7915C117.449 23.8465 117.663 23.9055 117.877 23.9635C118.21 24.0495 118.539 24.1395 118.864 24.2305L119.529 24.4225C119.835 24.5115 120.138 24.6025 120.438 24.6915C120.66 24.7585 120.881 24.8275 121.099 24.8915C121.388 24.9825 121.674 25.0755 121.958 25.1675C122.174 25.2375 122.388 25.3085 122.598 25.3815C122.879 25.4815 123.154 25.5755 123.427 25.6725C123.627 25.7445 123.836 25.8175 124.038 25.8925C124.314 25.9925 124.583 26.0985 124.853 26.2015C125.039 26.2745 125.231 26.3455 125.417 26.4205C125.734 26.5475 126.043 26.6785 126.354 26.8075C126.621 26.9215 126.887 27.0355 127.149 27.1545C127.411 27.2735 127.677 27.3855 127.933 27.5045C128.133 27.6045 128.333 27.6965 128.533 27.7915C128.733 27.8865 128.933 27.9825 129.125 28.0785C129.317 28.1745 129.534 28.2875 129.736 28.3935C129.909 28.4855 130.084 28.5765 130.254 28.6685C130.454 28.7795 130.654 28.8915 130.854 29.0045C131.012 29.0935 131.168 29.1825 131.319 29.2735C131.519 29.3925 131.719 29.5105 131.919 29.6315C132.056 29.7155 132.194 29.8015 132.328 29.8895C132.528 30.0162 132.726 30.1438 132.922 30.2725C133.039 30.3495 133.154 30.4305 133.268 30.5095C133.468 30.6465 133.668 30.7855 133.868 30.9285C133.952 30.9875 134.03 31.0485 134.11 31.1085C135.091 31.8295 136.017 32.6238 136.878 33.4845C136.908 33.5155 136.939 33.5435 136.967 33.5735C137.153 33.7625 137.329 33.9545 137.503 34.1455C137.545 34.1905 137.587 34.2365 137.626 34.2845C137.796 34.4705 137.957 34.6625 138.115 34.8535L138.228 34.9945C138.386 35.1898 138.538 35.3865 138.683 35.5845L138.77 35.7035C138.919 35.9145 139.07 36.1235 139.203 36.3345C139.217 36.3535 139.23 36.3755 139.242 36.3935C140.289 37.9828 141.008 39.7654 141.357 41.6365L141.363 41.6695C141.408 41.9255 141.449 42.1815 141.479 42.4395V42.4485C141.612 43.5362 141.622 44.6355 141.51 45.7255C141.274 47.9409 140.665 50.1006 139.71 52.1135L139.662 52.2135C139.486 52.5855 139.303 52.9455 139.109 53.2985L139.055 53.3985C138.668 54.1045 138.255 54.7685 137.827 55.3915C137.804 55.4245 137.78 55.4605 137.755 55.4915C137.655 55.6355 137.555 55.7785 137.455 55.9195C137.439 55.9395 137.424 55.9605 137.408 55.9815C137.308 56.1155 137.214 56.2455 137.116 56.3755L137.094 56.4065L136.925 56.6205C136.915 56.6325 136.906 56.6475 136.897 56.6575C136.745 56.8575 136.597 57.0405 136.441 57.2225C136.428 57.2385 136.419 57.2525 136.407 57.2645C136.19 57.5255 135.978 57.7705 135.765 58.0065L135.692 58.0895C135.575 58.2195 135.459 58.3455 135.342 58.4675C135.175 58.6475 135.013 58.8155 134.85 58.9795L134.841 58.9885C134.718 59.1135 134.596 59.2335 134.477 59.3525C134.453 59.3722 134.431 59.3936 134.41 59.4165C134.221 59.5958 134.04 59.7655 133.867 59.9255C133.848 59.9415 133.833 59.9555 133.815 59.9725L133.44 60.3065C133.69 60.4425 133.987 60.6065 134.317 60.8065L134.327 60.8125C134.727 61.0495 135.183 61.3275 135.687 61.6555L135.712 61.6695C136.227 62.0055 136.791 62.3865 137.403 62.8225C137.537 62.919 137.662 63.026 137.779 63.1425L137.834 63.1985C137.925 63.2945 138.005 63.3997 138.073 63.5125C138.086 63.5328 138.097 63.5538 138.107 63.5755C138.163 63.6761 138.207 63.7833 138.238 63.8945C138.241 63.9074 138.243 63.9204 138.244 63.9335C138.267 64.0339 138.277 64.1366 138.275 64.2395V64.2875C138.27 64.3942 138.252 64.4999 138.222 64.6025L138.203 64.6725C138.17 64.7778 138.129 64.8802 138.079 64.9785C138.07 65.0005 138.057 65.0195 138.046 65.0395C137.994 65.1388 137.935 65.2347 137.871 65.3265L137.848 65.3605C137.776 65.4605 137.695 65.5605 137.612 65.6605C137.591 65.6825 137.571 65.7055 137.55 65.7275C137.469 65.8215 137.38 65.9105 137.288 66.0025C137.263 66.0232 137.238 66.0456 137.216 66.0695C137.116 66.1565 137.016 66.2465 136.916 66.3305L136.874 66.3645C136.774 66.4445 136.674 66.5205 136.58 66.5955L136.51 66.6485C136.41 66.7235 136.304 66.7985 136.201 66.8705L136.123 66.9255C136.023 66.9955 135.917 67.0625 135.815 67.1255C135.799 67.1348 135.784 67.1451 135.77 67.1565C135.67 67.2175 135.57 67.2785 135.482 67.3335C135.473 67.3397 135.464 67.345 135.454 67.3495C135.354 67.4105 135.26 67.4615 135.174 67.5115C135.163 67.5195 135.152 67.5225 135.141 67.5305C134.796 67.7305 134.563 67.8365 134.563 67.8365C134.637 67.8244 134.713 67.8191 134.788 67.8205C134.926 67.8203 135.064 67.8327 135.2 67.8575C135.434 67.8996 135.663 67.9621 135.886 68.0445C135.912 68.0535 135.939 68.0645 135.967 68.0775C136.067 68.1145 136.176 68.1605 136.289 68.2115L136.434 68.2805C136.54 68.3338 136.652 68.3932 136.771 68.4585C136.821 68.4835 136.871 68.5105 136.915 68.5385C137.081 68.6385 137.251 68.7385 137.432 68.8645C137.474 68.8915 137.519 68.9255 137.558 68.9535C137.705 69.0535 137.858 69.1645 138.011 69.2845C138.08 69.3375 138.148 69.3925 138.219 69.4515C138.364 69.5655 138.519 69.6935 138.667 69.8265C138.736 69.8875 138.804 69.9435 138.876 70.0105C139.099 70.2105 139.331 70.4275 139.576 70.6695C142.843 73.9365 139.14 74.5895 139.14 74.5895C139.14 74.5895 139.14 74.5895 139.615 76.2515L139.681 76.4825C139.775 76.8085 139.881 77.1885 140.014 77.6425C140.127 77.9502 140.16 78.2817 140.109 78.6056C140.058 78.9295 139.926 79.2351 139.724 79.4935C138.873 80.5305 136.924 80.6695 136.436 80.6865H136.399H136.341H136.313C137.413 81.6101 138.243 82.8149 138.713 84.1725C138.778 84.3239 138.824 84.4828 138.849 84.6455C138.849 84.6705 138.849 84.6935 138.849 84.7185C138.862 84.8368 138.862 84.9562 138.849 85.0745C138.849 85.0865 138.841 85.1025 138.84 85.1165C138.82 85.2349 138.786 85.3506 138.74 85.4615C138.064 87.0105 134.788 87.4375 134.788 87.4375C134.788 87.4375 136.967 88.9655 136.314 92.4495C135.964 94.3065 134.191 94.7435 132.614 94.7435C131.732 94.7348 130.855 94.623 129.999 94.4105C129.999 94.4105 130.652 95.9345 130.215 99.4225C130.205 99.64 130.151 99.8531 130.055 100.049C129.959 100.244 129.823 100.417 129.657 100.558C129.49 100.698 129.297 100.803 129.088 100.865C128.879 100.926 128.66 100.945 128.444 100.918C126.5 100.918 123.679 99.2045 123.679 99.2045H123.656C123.503 99.2045 122.647 99.3845 123.244 103.564C123.58 105.908 122.199 106.477 120.773 106.477C119.833 106.446 118.903 106.273 118.016 105.961C118.016 105.961 119.103 106.832 118.886 110.103C118.756 112.065 116.821 112.457 115.295 112.457C114.672 112.455 114.05 112.396 113.438 112.28C116.053 115.551 106.683 117.944 106.683 117.944C105.798 118.096 104.991 118.546 104.397 119.219C103.803 119.892 103.456 120.748 103.415 121.645C103.315 123.229 101.623 123.635 99.9149 123.635C98.6736 123.612 97.4383 123.456 96.23 123.171C96.23 123.171 95.9519 123.259 95.5299 123.44C95.3889 123.499 95.2299 123.575 95.0609 123.655L94.995 123.688C94.818 123.773 94.6309 123.868 94.4369 123.979L94.4149 123.991C94.2399 124.091 94.059 124.201 93.876 124.32C93.832 124.348 93.79 124.376 93.748 124.405C93.548 124.535 93.359 124.673 93.168 124.824L93.1239 124.861C92.9539 124.998 92.7849 125.15 92.6239 125.306C92.5799 125.351 92.5329 125.395 92.4879 125.44C92.3649 125.568 92.2479 125.704 92.1349 125.845C91.9509 127.398 91.257 128.773 89.709 128.773C88.983 128.737 88.2763 128.527 87.649 128.16C87.594 128.132 87.543 128.107 87.491 128.081L87.464 128.07C87.439 128.056 87.4119 128.041 87.3839 128.029C86.9484 127.8 86.5255 127.549 86.117 127.276L86.1079 127.268C86.0239 127.215 85.952 127.168 85.886 127.116C85.8783 127.111 85.8709 127.107 85.8639 127.102C85.8009 127.058 85.748 127.021 85.705 126.987L85.685 126.971L85.55 126.871L85.495 126.902H85.487C84.4571 127.453 83.3561 127.859 82.215 128.109C81.5924 128.249 80.9604 128.344 80.324 128.391C80.2 128.399 80.082 128.404 79.966 128.404C79.1959 128.418 78.4403 128.194 77.8022 127.763C77.164 127.332 76.6744 126.714 76.3999 125.995C75.1664 126.73 73.8498 127.315 72.4779 127.74C72.3529 127.776 72.2247 127.8 72.095 127.812C72.051 127.812 72.007 127.812 71.964 127.812C71.921 127.812 71.8799 127.812 71.8379 127.812C71.7959 127.812 71.754 127.812 71.71 127.812C71.666 127.812 71.61 127.802 71.557 127.794C71.4807 127.784 71.4048 127.769 71.33 127.751C71.2736 127.74 71.2179 127.726 71.163 127.71C71.0951 127.69 71.0283 127.666 70.9629 127.639C70.9039 127.617 70.846 127.599 70.788 127.576C70.73 127.552 70.669 127.52 70.61 127.49C70.551 127.46 70.4799 127.429 70.4159 127.396L70.402 127.387C69.4373 126.792 68.5915 126.024 67.908 125.121C67.7789 125.85 67.3865 126.506 66.8052 126.965C66.224 127.424 65.4944 127.654 64.755 127.611C64.4233 127.609 64.0923 127.578 63.766 127.518C60.066 126.865 61.366 121.854 61.366 121.854C60.1906 123.658 58.529 125.092 56.573 125.992C56.2332 126.17 55.8564 126.266 55.4729 126.272C52.7189 126.272 51.342 120.763 51.342 120.763C51.342 120.763 50.471 122.288 46.33 124.905C45.9255 125.182 45.4503 125.339 44.96 125.355C41.894 125.355 40.8839 117.931 40.8839 117.931C39.6716 118.841 38.1783 119.298 36.664 119.22C35.4298 119.206 34.2061 118.991 33.0409 118.583C32.8353 118.517 32.6348 118.435 32.441 118.34C32.394 118.315 32.349 118.296 32.304 118.27C32.1391 118.184 31.9804 118.088 31.829 117.98L31.821 117.973C31.6892 117.871 31.5658 117.76 31.4519 117.638C31.4219 117.607 31.396 117.577 31.368 117.544C31.2668 117.429 31.1756 117.305 31.095 117.174L31.089 117.161C31.0165 117.033 30.9543 116.9 30.903 116.762L30.865 116.654C30.8182 116.514 30.782 116.371 30.757 116.225V116.207C30.7344 116.063 30.7213 115.919 30.7179 115.773C30.7179 115.731 30.7179 115.693 30.7179 115.651C30.717 115.499 30.7248 115.348 30.741 115.198V115.169C30.76 115.021 30.783 114.869 30.814 114.724L30.84 114.596C30.874 114.445 30.913 114.296 30.959 114.138L30.971 114.103C31.016 113.958 31.065 113.814 31.118 113.673C31.134 113.628 31.149 113.586 31.165 113.544C31.221 113.397 31.28 113.251 31.344 113.111C31.3501 113.094 31.3571 113.079 31.365 113.064C31.424 112.93 31.487 112.799 31.549 112.673L31.612 112.551C31.678 112.42 31.7459 112.292 31.8119 112.167L31.8429 112.115C31.9069 111.998 31.9709 111.888 32.0349 111.78C32.0569 111.744 32.076 111.711 32.096 111.674L32.2959 111.349C32.2232 111.412 32.1448 111.467 32.0619 111.516L32.019 111.539C31.946 111.576 31.8709 111.61 31.794 111.638L31.711 111.664C31.6373 111.684 31.562 111.699 31.486 111.708C31.449 111.714 31.411 111.717 31.372 111.721H31.305C31.25 111.721 31.196 111.722 31.1389 111.714C31.0819 111.705 31.045 111.702 30.997 111.697C30.9132 111.679 30.8303 111.657 30.7489 111.63C30.6939 111.613 30.643 111.601 30.586 111.578C30.495 111.541 30.4019 111.492 30.3059 111.444C30.2479 111.414 30.193 111.389 30.136 111.353C30.028 111.287 29.914 111.206 29.8 111.12C29.748 111.083 29.7 111.051 29.644 111.008C29.4555 110.857 29.2756 110.695 29.105 110.525C26.273 107.692 31.283 102.243 31.283 102.243C27.143 99.6285 32.1549 94.3995 32.1549 94.3995C31.2663 93.1688 30.8074 91.6799 30.849 90.1625V90.1045C30.859 89.8294 30.8834 89.555 30.922 89.2825L30.9309 89.2155C30.9519 89.0795 30.973 88.9455 31 88.8155C30.1653 88.4164 29.3788 87.9231 28.656 87.3455C28.3704 87.1172 28.0982 86.8724 27.841 86.6125C27.5889 86.3581 27.3524 86.0886 27.133 85.8055C26.928 85.5397 26.7387 85.2622 26.566 84.9745L26.519 84.8965C26.3439 84.6013 26.187 84.2957 26.049 83.9815L26.0349 83.9515C25.9089 83.6575 25.797 83.3515 25.698 83.0425C25.681 82.9835 25.661 82.9235 25.643 82.8625C25.543 82.5365 25.46 82.2005 25.393 81.8485C25.3888 81.829 25.3858 81.8093 25.3839 81.7895C25.3229 81.4695 25.278 81.1335 25.243 80.7895C25.234 80.6985 25.226 80.6065 25.22 80.5145C25.19 80.1455 25.17 79.7725 25.17 79.3855C25.1247 74.8064 25.6408 70.239 26.7069 65.7855V65.7765C27.8107 61.2848 29.5652 56.9786 31.915 52.9945C32.1816 52.5412 32.4613 52.0855 32.7539 51.6275C32.7779 51.5915 32.799 51.5525 32.826 51.5155C33.113 51.0645 33.413 50.6155 33.726 50.1645C33.751 50.1305 33.774 50.0955 33.799 50.0645C34.116 49.6065 34.4449 49.1465 34.7849 48.6885C34.7989 48.6685 34.815 48.6495 34.83 48.6275C35.18 48.1585 35.54 47.6875 35.918 47.2155C38.0262 44.5893 40.3692 42.1606 42.918 39.9595L42.924 39.9535C43.524 39.4368 44.143 38.9215 44.781 38.4075C45.395 37.9075 46.0309 37.4255 46.6809 36.9375L46.772 36.8685C47.372 36.4245 47.993 35.9845 48.626 35.5485C48.718 35.4825 48.803 35.4185 48.896 35.3565C49.622 34.8598 50.3713 34.3675 51.144 33.8795C51.502 33.6545 51.861 33.4345 52.226 33.2145C65.289 25.3975 81.911 23.0015 94.591 22.4685L95.029 22.4495C95.229 22.4435 95.429 22.4375 95.621 22.4295C95.782 22.4295 95.9469 22.4165 96.1079 22.4125C96.2999 22.4065 96.4909 22.4018 96.6809 22.3985C96.8429 22.3925 97.0039 22.3875 97.1649 22.3865C97.3509 22.3805 97.5329 22.3775 97.7179 22.3705L98.204 22.3615C98.381 22.3615 98.557 22.3615 98.732 22.3555C98.907 22.3495 99.058 22.3555 99.222 22.3495C99.386 22.3435 99.556 22.3495 99.722 22.3495C99.888 22.3495 100.052 22.3495 100.212 22.3495H101.183M101.183 20.4835H99.972H99.727H99.555H99.211H98.7169L98.185 20.4925H97.943L97.698 20.4985C97.498 20.4985 97.315 20.5065 97.128 20.5095L96.644 20.5205L96.057 20.5405C95.942 20.5405 95.813 20.5485 95.685 20.5515L95.5669 20.5575L94.9669 20.5775C94.825 20.5775 94.6669 20.5885 94.5199 20.5965C82.3339 21.1055 64.9319 23.4345 51.2799 31.6065C50.9039 31.8295 50.532 32.0575 50.159 32.2925C49.384 32.7845 48.609 33.2925 47.859 33.8075C47.79 33.8545 47.7339 33.8985 47.6759 33.9375L47.576 34.0105C46.844 34.5165 46.2389 34.9495 45.6759 35.3585L45.595 35.4225C44.895 35.9445 44.235 36.4535 43.627 36.9405L43.602 36.9605C42.965 37.4725 42.3349 37.9975 41.7329 38.5205L41.706 38.5405C39.074 40.8179 36.6529 43.3281 34.472 46.0405L34.451 46.0655C34.064 46.5515 33.6889 47.0355 33.3379 47.5115L33.293 47.5695C32.935 48.0535 32.5929 48.5345 32.2699 49.0005L32.198 49.1065C31.853 49.6065 31.5469 50.0635 31.2639 50.5065L31.222 50.5755L31.194 50.6205C30.861 51.1425 30.577 51.6065 30.318 52.0445L30.304 52.0675C27.8773 56.1946 26.0615 60.6516 24.913 65.2995L24.9049 65.3375C23.8023 69.9361 23.2683 74.6527 23.315 79.3815C23.315 79.7815 23.332 80.1875 23.368 80.6575C23.376 80.7575 23.387 80.8575 23.396 80.9575C23.44 81.3945 23.496 81.7695 23.555 82.1145L23.566 82.1835C23.643 82.5775 23.738 82.9665 23.866 83.3835C23.889 83.4635 23.9129 83.5345 23.9359 83.6055C24.0559 83.9835 24.186 84.3345 24.328 84.6645L24.345 84.7065C24.5154 85.0929 24.7084 85.4688 24.923 85.8325C24.9355 85.8552 24.9492 85.8772 24.964 85.8985C25.1713 86.2442 25.3976 86.578 25.642 86.8985L25.673 86.9405C25.9388 87.2809 26.2239 87.6058 26.527 87.9135C26.8254 88.2162 27.1402 88.5023 27.47 88.7705L27.498 88.7925C27.977 89.1789 28.4826 89.5311 29.011 89.8465L29.002 90.0405V90.1325C28.9651 91.5474 29.2741 92.95 29.902 94.2185C28.913 95.5325 27.556 97.8095 27.839 100.118C27.9397 100.952 28.2568 101.745 28.7589 102.418C26.7859 105.129 25.1069 109.144 27.8059 111.845C28.0247 112.062 28.2543 112.268 28.4939 112.461C28.56 112.516 28.6288 112.566 28.7 112.613C28.862 112.735 29.017 112.845 29.2 112.956C29.259 112.989 29.319 113.023 29.378 113.056C29.32 113.217 29.266 113.375 29.216 113.536C29.207 113.564 29.197 113.593 29.189 113.621C29.133 113.811 29.089 114.005 29.039 114.199C29.028 114.233 29.017 114.298 29.005 114.354C28.964 114.554 28.9319 114.755 28.9049 114.947C28.9049 114.965 28.905 114.983 28.897 115.001C28.877 115.209 28.8639 115.424 28.8639 115.66V115.815C28.8684 116.032 28.8858 116.248 28.9159 116.462C28.9159 116.489 28.926 116.514 28.929 116.54C28.9688 116.778 29.0266 117.012 29.102 117.241C29.124 117.307 29.1429 117.354 29.1599 117.406C29.2426 117.63 29.343 117.847 29.46 118.055C29.476 118.082 29.49 118.11 29.505 118.135C29.6409 118.361 29.7962 118.573 29.969 118.772C30.028 118.839 30.069 118.888 30.117 118.936C30.2879 119.115 30.4718 119.282 30.667 119.436L30.73 119.483C30.9567 119.649 31.1957 119.797 31.445 119.927C31.5 119.955 31.5699 119.992 31.6449 120.026C31.9112 120.155 32.1851 120.268 32.465 120.363C33.8208 120.831 35.243 121.077 36.677 121.092C37.6434 121.097 38.6053 120.961 39.532 120.686C40.24 123.507 41.7799 127.228 44.9729 127.228C45.8157 127.212 46.6363 126.956 47.3379 126.488C48.4747 125.78 49.5672 125.003 50.609 124.161C51.531 126.07 53.085 128.145 55.487 128.145C56.1594 128.14 56.8212 127.976 57.419 127.669C58.2188 127.27 58.9838 126.805 59.706 126.279C59.8327 126.623 59.9967 126.952 60.195 127.26C60.558 127.821 61.0362 128.299 61.5977 128.661C62.1592 129.023 62.7912 129.261 63.4519 129.361C63.885 129.438 64.324 129.478 64.764 129.48C66.0613 129.524 67.3244 129.057 68.281 128.18C68.654 128.488 69.0532 128.763 69.474 129.001L69.5039 129.019C69.5175 129.029 69.5323 129.037 69.548 129.044C69.621 129.083 69.6959 129.118 69.7699 129.156L69.809 129.173C69.909 129.219 69.984 129.255 70.065 129.292C70.146 129.329 70.24 129.362 70.329 129.393C70.418 129.424 70.538 129.468 70.651 129.501C70.7444 129.529 70.8392 129.553 70.935 129.572C71.0623 129.603 71.1912 129.626 71.321 129.643C71.399 129.654 71.482 129.665 71.568 129.674C71.668 129.68 71.762 129.682 71.852 129.682C71.921 129.682 71.991 129.682 72.06 129.682C72.129 129.682 72.2109 129.683 72.2959 129.671C72.5417 129.645 72.7848 129.598 73.022 129.529C73.9634 129.241 74.8814 128.883 75.768 128.456C76.299 129.042 76.9499 129.508 77.6765 129.821C78.4032 130.135 79.1888 130.288 79.98 130.271C80.138 130.271 80.302 130.266 80.469 130.253C81.1989 130.201 81.9237 130.093 82.637 129.93H82.649C83.5957 129.718 84.5202 129.416 85.4099 129.029C85.7879 129.268 86.167 129.489 86.545 129.684L86.59 129.706L86.62 129.723H86.628C86.6394 129.73 86.6515 129.736 86.664 129.742H86.672C86.724 129.767 86.772 129.792 86.83 129.82C87.7161 130.316 88.7087 130.593 89.724 130.626C91.859 130.626 93.4239 129.126 93.9049 126.664L93.9419 126.629C94.0659 126.51 94.187 126.4 94.303 126.306C94.3157 126.297 94.3278 126.287 94.339 126.276L94.367 126.255C94.487 126.161 94.625 126.055 94.8 125.943L94.8999 125.876C95.0529 125.776 95.1999 125.687 95.3479 125.604C95.5259 125.504 95.681 125.424 95.826 125.354C95.8392 125.349 95.8519 125.342 95.8639 125.335C96.0249 125.26 96.157 125.199 96.276 125.146C96.313 125.132 96.346 125.116 96.376 125.102C97.5431 125.345 98.7309 125.475 99.923 125.492C104.543 125.492 105.215 122.883 105.289 121.76C105.292 121.287 105.461 120.83 105.766 120.468C106.072 120.106 106.494 119.862 106.96 119.779C107.027 119.77 107.093 119.757 107.16 119.742C108.875 119.302 114.56 117.628 115.597 114.513C115.622 114.443 115.642 114.372 115.661 114.302C120.142 114.149 120.698 111.15 120.761 110.214C120.807 109.588 120.807 108.959 120.761 108.333H120.791C121.432 108.375 122.074 108.274 122.67 108.037C123.267 107.8 123.804 107.433 124.241 106.964C124.649 106.453 124.938 105.858 125.088 105.222C125.238 104.587 125.245 103.925 125.108 103.286C125.031 102.742 124.982 102.286 124.952 101.91C126.057 102.417 127.249 102.71 128.463 102.772C129.356 102.828 130.235 102.532 130.912 101.948C131.59 101.363 132.011 100.536 132.085 99.6445C132.22 98.6327 132.271 97.6117 132.24 96.5915C132.37 96.5915 132.499 96.5975 132.634 96.5975C136.985 96.5975 137.955 93.9315 138.169 92.7835C138.463 91.3635 138.347 89.8891 137.835 88.5325C138.955 88.1195 139.884 87.3096 140.446 86.2565L140.474 86.1955C140.571 85.9747 140.641 85.7435 140.685 85.5065C140.699 85.4468 140.711 85.3864 140.719 85.3255C140.75 85.0894 140.755 84.8506 140.733 84.6135C140.732 84.5315 140.726 84.4497 140.714 84.3685C140.665 84.0496 140.577 83.7379 140.452 83.4405C140.222 82.8853 139.957 82.3452 139.659 81.8235C140.233 81.5613 140.745 81.179 141.159 80.7025L141.203 80.6525C141.592 80.1603 141.854 79.5793 141.964 78.9615C142.075 78.3437 142.031 77.7082 141.836 77.1115L141.716 76.6885L141.502 75.9455L141.442 75.7345C141.43 75.6925 141.417 75.6505 141.408 75.6075C142.004 75.1974 142.449 74.604 142.676 73.9175C143.126 72.4865 142.537 70.9435 140.925 69.3315C140.688 69.0955 140.446 68.8645 140.16 68.6085C140.115 68.5645 140.06 68.5165 140.001 68.4645L139.939 68.4115C139.753 68.2525 139.588 68.1115 139.424 67.9805C139.324 67.9005 139.254 67.8415 139.182 67.7885C139.007 67.6525 138.834 67.5265 138.667 67.4105L138.636 67.3885L138.584 67.3495L138.593 67.3405C138.732 67.2065 138.851 67.0875 138.963 66.9625C138.996 66.9265 139.022 66.8955 139.052 66.8625C139.178 66.7185 139.288 66.5815 139.389 66.4455L139.412 66.4085L139.446 66.3585C139.546 66.2145 139.637 66.0585 139.718 65.9145C139.74 65.8705 139.759 65.8345 139.776 65.8025C139.871 65.6143 139.949 65.4182 140.01 65.2165C140.029 65.1647 140.044 65.1115 140.055 65.0575C140.116 64.8321 140.154 64.6008 140.166 64.3675C140.166 64.3255 140.166 64.2675 140.166 64.2195C140.166 64.0022 140.144 63.7855 140.101 63.5725C140.098 63.5413 140.091 63.5105 140.082 63.4805C140.078 63.4578 140.073 63.4355 140.066 63.4135C139.997 63.1554 139.896 62.9068 139.766 62.6735C139.75 62.6425 139.727 62.6015 139.702 62.5565C139.564 62.328 139.403 62.1146 139.221 61.9195C139.19 61.8842 139.156 61.8509 139.121 61.8195C138.933 61.6288 138.728 61.4548 138.51 61.2995C137.924 60.8795 137.332 60.4765 136.75 60.0995L136.705 60.0725L136.522 59.9525C136.589 59.8858 136.655 59.8155 136.722 59.7415L136.75 59.7085C136.864 59.5865 136.984 59.4585 137.1 59.3305L137.18 59.2415C137.405 58.9905 137.636 58.7265 137.866 58.4465C137.875 58.4396 137.882 58.4312 137.888 58.4215L137.904 58.4025C138.063 58.2085 138.223 58.0115 138.38 57.8085L138.433 57.7395L138.478 57.6835L138.598 57.5325L138.628 57.4905C138.728 57.3535 138.837 57.2105 138.942 57.0685L138.99 57.0025L139.316 56.5415L139.374 56.4555C139.871 55.7322 140.319 55.0078 140.718 54.2825L140.743 54.2405L140.777 54.1745C140.983 53.7985 141.184 53.4015 141.377 53.0005L141.416 52.9145C142.466 50.7045 143.135 48.3332 143.395 45.9005C143.519 44.6881 143.509 43.4657 143.365 42.2555C143.363 42.2293 143.36 42.2033 143.356 42.1775C143.318 41.8915 143.276 41.6055 143.226 41.3245C143.226 41.3135 143.215 41.2665 143.212 41.2555C142.818 39.1538 142.01 37.1514 140.835 35.3645L140.783 35.2845C140.638 35.0615 140.477 34.8305 140.31 34.5975L140.287 34.5665L140.211 34.4605C140.055 34.2485 139.888 34.0325 139.711 33.8155L139.645 33.7325L139.589 33.6625C139.408 33.4465 139.23 33.2345 139.044 33.0265C139.021 32.9985 138.985 32.9575 138.944 32.9155L138.91 32.8785C138.721 32.6695 138.527 32.4615 138.324 32.2535L138.263 32.1925L138.226 32.1585C137.298 31.2312 136.302 30.3751 135.246 29.5975L135.188 29.5535C135.119 29.5015 135.052 29.4535 134.982 29.4015C134.782 29.2545 134.566 29.1015 134.349 28.9595L134.318 28.9345C134.204 28.8565 134.091 28.7785 133.976 28.7035C133.776 28.5725 133.568 28.4375 133.356 28.3035L133.3 28.2665C133.177 28.1865 133.05 28.1105 132.922 28.0305C132.711 27.9025 132.5 27.7755 132.288 27.6505C132.129 27.5505 131.965 27.4635 131.797 27.3675C131.597 27.2535 131.382 27.1335 131.165 27.0145L130.746 26.7945L130.627 26.7325L130.54 26.6875C130.356 26.5875 130.173 26.4935 129.984 26.4005C129.834 26.3245 129.684 26.2505 129.526 26.1775L129.371 26.1025L129.171 26.0025C129.03 25.9335 128.89 25.8665 128.743 25.8025C128.503 25.6905 128.256 25.5805 128.011 25.4725L127.93 25.4365C127.655 25.3145 127.38 25.1925 127.097 25.0755C126.78 24.9415 126.458 24.8055 126.129 24.6755C125.984 24.6165 125.829 24.5565 125.681 24.5025L125.544 24.4495C125.271 24.3495 124.991 24.2335 124.704 24.1305C124.538 24.0695 124.364 24.0055 124.187 23.9445L124.079 23.9035C123.795 23.8035 123.512 23.7035 123.223 23.6035C123.006 23.5305 122.786 23.4585 122.564 23.3845C122.275 23.2845 121.98 23.1935 121.683 23.1005L121.005 22.8915C120.697 22.7975 120.387 22.7075 120.071 22.6155C119.848 22.5515 119.621 22.4845 119.395 22.4155C119.058 22.3215 118.72 22.2315 118.385 22.1405L118.149 22.0785C118.007 22.0415 117.866 22.0005 117.721 21.9665C117.521 21.9135 117.312 21.8665 117.106 21.8105L116.891 21.7575L116.754 21.7245L116.629 21.6935L116.568 21.6775L116.324 21.6165L115.998 21.5385C115.411 21.3995 114.817 21.2635 114.213 21.1325C114.158 21.1195 114.101 21.1105 114.046 21.1025L113.946 21.0915C113.915 21.0915 113.882 21.0835 113.846 21.0825L113.794 21.0745L113.666 21.0615L113.599 21.0555L113.499 21.0435L113.358 21.0295L113.258 21.0215L113.097 21.0045H113.047L112.961 20.9965L112.745 20.9745L112.662 20.9685H112.612L112.461 20.9545L112.372 20.9465L112.214 20.9325L112.038 20.9165L111.957 20.9105L111.771 20.8945L111.479 20.8725L111.379 20.8645L111.306 20.8585L111.161 20.8475L110.961 20.8335H110.918L110.776 20.8205L110.642 20.8115L110.434 20.7955L110.197 20.7795L109.833 20.7565L109.593 20.7425L109.387 20.7285L109.212 20.7155L108.973 20.7045C108.523 20.6775 108.062 20.6525 107.58 20.6315L107.464 20.6255H107.364L106.964 20.6065L106.827 20.5985H106.638H106.567L106.046 20.5785L105.846 20.5725H105.721L105.501 20.5645L105.229 20.5555H105.037H104.867L104.611 20.5495L104.391 20.5435L103.991 20.5355L103.744 20.5295H103.516H103.28H103.08H102.849H102.602H102.163H101.663H101.216L101.183 20.4835Z" fill="#030504"/>
<path d="M30.339 89.4415C30.339 89.4415 70.3509 95.0075 85.1709 89.5275C100.471 83.0595 135.718 59.6805 135.718 59.6805" stroke="#030504" stroke-linecap="round" stroke-linejoin="round"/>
<path d="M88.8909 88.2565C88.8909 88.2565 91.663 89.7075 87.051 96.3125C87.051 96.3125 92.3509 96.4685 89.1509 103.405C89.1509 103.405 93.345 108.453 93.345 112.04C93.345 115.627 89.1509 116.583 89.1509 116.583C89.1509 116.583 92.095 119.898 92.832 126.484" stroke="#030504" stroke-linecap="round" stroke-linejoin="round"/>
<path d="M52.0933 102.801C52.2041 100.752 51.5885 99.0531 50.7184 99.0061C49.8483 98.9591 49.0532 100.582 48.9425 102.63C48.8317 104.679 49.4473 106.378 50.3174 106.425C51.1875 106.472 51.9826 104.849 52.0933 102.801Z" fill="#030504"/>
<path d="M71.3353 104.524C71.4461 102.475 70.8305 100.776 69.9604 100.729C69.0903 100.682 68.2952 102.305 68.1845 104.353C68.0737 106.402 68.6893 108.101 69.5594 108.148C70.4295 108.195 71.2246 106.572 71.3353 104.524Z" fill="#030504"/>
<path d="M54.297 113.28C54.297 113.28 54.587 114.339 56.271 114.431C56.7592 114.449 57.2422 114.326 57.6615 114.075C58.0808 113.824 58.4183 113.457 58.633 113.018" stroke="#030504" stroke-linecap="round" stroke-linejoin="round"/>
<path d="M62.914 113.747C62.914 113.747 62.514 114.769 60.828 114.677C60.3406 114.643 59.8736 114.468 59.4839 114.173C59.0941 113.879 58.7985 113.477 58.633 113.017" stroke="#030504" stroke-linecap="round" stroke-linejoin="round"/>
<path d="M111.805 102.515C113.512 102.152 114.483 99.9232 113.975 97.5378C113.466 95.1525 111.671 93.5135 109.965 93.8772C108.258 94.2408 107.287 96.4692 107.795 98.8545C108.304 101.24 110.099 102.879 111.805 102.515Z" fill="#CDC7AC"/>
<path d="M111.664 97.5605L125.9 81.9805" stroke="#030504" stroke-width="3" stroke-linecap="round" stroke-linejoin="round"/>
<path d="M122.085 80.0005L122.847 84.8005L127.808 85.5375" stroke="#030504" stroke-width="3" stroke-linecap="round" stroke-linejoin="round"/>
<path fill-rule="evenodd" clip-rule="evenodd" d="M171.936 116.523L170.462 117.181C169.98 117.495 169.631 117.978 169.485 118.535L169.167 120.98C169.085 121.312 168.926 121.62 168.705 121.88C168.149 122.51 167.406 122.946 166.584 123.123C165.762 123.3 164.906 123.208 164.14 122.862C163.818 122.711 163.539 122.483 163.325 122.199L162.162 120.203C161.814 119.753 161.312 119.447 160.753 119.343L158.951 119.285C158.494 119.203 158.073 118.985 157.742 118.659C157.181 118.094 156.805 117.372 156.663 116.589C156.521 115.805 156.62 114.998 156.947 114.272C157.099 113.949 157.329 113.668 157.614 113.454L159.593 112.309C160.045 111.963 160.354 111.461 160.46 110.901L160.529 109.076C160.61 108.623 160.824 108.205 161.145 107.875C161.708 107.315 162.426 106.939 163.207 106.795C163.987 106.651 164.793 106.747 165.518 107.07C165.855 107.227 166.145 107.468 166.36 107.771L167.382 109.634C167.721 110.088 168.214 110.402 168.769 110.517L170.78 110.65C171.155 110.722 171.504 110.892 171.792 111.142C172.374 111.67 172.784 112.361 172.97 113.124C173.156 113.888 173.108 114.69 172.834 115.427C172.659 115.878 172.345 116.263 171.936 116.523Z" fill="url(#paint0_linear_1_6)"/>
<path fill-rule="evenodd" clip-rule="evenodd" d="M31.7724 30.6374L30.4039 31.4941C29.9693 31.8725 29.691 32.399 29.623 32.9713L29.6499 35.4368C29.6141 35.7768 29.5 36.1038 29.3166 36.3924C28.8539 37.0941 28.1783 37.6289 27.3891 37.9183C26.5999 38.2076 25.7387 38.2363 24.932 38C24.5927 37.8946 24.2841 37.7081 24.033 37.4567L22.6038 35.641C22.196 35.2443 21.6567 35.0112 21.0883 34.9858L19.2961 35.1784C18.832 35.161 18.384 35.0035 18.0111 34.7266C17.3771 34.2452 16.904 33.5826 16.6545 32.8266C16.405 32.0705 16.3907 31.2566 16.6136 30.4923C16.7198 30.1513 16.9077 29.8414 17.1609 29.5896L18.9616 28.1808C19.3612 27.7744 19.5972 27.235 19.6244 26.6657L19.4387 24.8486C19.4556 24.3887 19.6101 23.9443 19.8822 23.573C20.3614 22.9404 21.0208 22.4675 21.7738 22.2166C22.5267 21.9657 23.338 21.9486 24.1009 22.1674C24.4562 22.2758 24.7772 22.4747 25.0325 22.7446L26.3036 24.4476C26.7024 24.85 27.2347 25.0927 27.8002 25.1298L29.8106 24.9813C30.1916 25.0009 30.5607 25.1205 30.8808 25.3282C31.5309 25.7701 32.0336 26.3969 32.3238 27.1275C32.614 27.8581 32.6784 28.6589 32.5087 29.4265C32.3986 29.8983 32.1407 30.3226 31.7724 30.6374Z" fill="url(#paint1_linear_1_6)"/>
<path d="M187.315 132.371C189.903 132.371 192.001 130.274 192.001 127.685C192.001 125.097 189.903 122.999 187.315 122.999C184.727 122.999 182.629 125.097 182.629 127.685C182.629 130.274 184.727 132.371 187.315 132.371Z" fill="url(#paint2_linear_1_6)"/>
<path d="M50.835 9.84749C53.423 9.84749 55.521 7.7495 55.521 5.16149C55.521 2.57349 53.423 0.475494 50.835 0.475494C48.247 0.475494 46.149 2.57349 46.149 5.16149C46.149 7.7495 48.247 9.84749 50.835 9.84749Z" fill="url(#paint3_linear_1_6)"/>
<path d="M166.932 144.434C168.214 143.28 168.318 141.305 167.164 140.022C166.009 138.74 164.034 138.637 162.752 139.791C161.469 140.946 161.366 142.921 162.52 144.203C163.675 145.485 165.65 145.589 166.932 144.434Z" fill="url(#paint4_linear_1_6)"/>
<path d="M17.7193 134.418C19.0015 133.264 19.105 131.289 17.9505 130.006C16.796 128.724 14.8207 128.621 13.5386 129.775C12.2564 130.93 12.1529 132.905 13.3073 134.187C14.4618 135.469 16.4371 135.573 17.7193 134.418Z" fill="url(#paint5_linear_1_6)"/>
<path opacity="0.5" d="M145.026 133.932C145.889 133.932 146.588 133.233 146.588 132.37C146.588 131.508 145.889 130.808 145.026 130.808C144.163 130.808 143.464 131.508 143.464 132.37C143.464 133.233 144.163 133.932 145.026 133.932Z" fill="url(#paint6_linear_1_6)"/>
<path opacity="0.5" d="M41.464 35.5095C42.3266 35.5095 43.026 34.8102 43.026 33.9475C43.026 33.0848 42.3266 32.3855 41.464 32.3855C40.6013 32.3855 39.902 33.0848 39.902 33.9475C39.902 34.8102 40.6013 35.5095 41.464 35.5095Z" fill="url(#paint7_linear_1_6)"/>
<path opacity="0.5" d="M3.91113 26.1009C4.55222 25.5237 4.60398 24.536 4.02674 23.8949C3.4495 23.2538 2.46185 23.2021 1.82077 23.7793C1.17968 24.3565 1.12792 25.3442 1.70516 25.9853C2.28239 26.6264 3.27004 26.6781 3.91113 26.1009Z" fill="url(#paint8_linear_1_6)"/>
</g>
<defs>
<linearGradient id="paint0_linear_1_6" x1="163.106" y1="106.815" x2="166.575" y2="123.125" gradientUnits="userSpaceOnUse">
<stop stop-color="#B7BEFF"/>
<stop offset="1" stop-color="#5379FF"/>
</linearGradient>
<linearGradient id="paint1_linear_1_6" x1="21.6768" y1="22.2503" x2="27.3806" y2="37.9214" gradientUnits="userSpaceOnUse">
<stop stop-color="#B7BEFF"/>
<stop offset="1" stop-color="#5379FF"/>
</linearGradient>
<linearGradient id="paint2_linear_1_6" x1="182.61" y1="122.893" x2="192.507" y2="123.484" gradientUnits="userSpaceOnUse">
<stop stop-color="#F70139"/>
<stop offset="0.505208" stop-color="#BA06F0"/>
<stop offset="1" stop-color="#00D3F0"/>
</linearGradient>
<linearGradient id="paint3_linear_1_6" x1="46.1302" y1="0.368992" x2="56.0269" y2="0.960349" gradientUnits="userSpaceOnUse">
<stop stop-color="#F70139"/>
<stop offset="0.505208" stop-color="#BA06F0"/>
<stop offset="1" stop-color="#00D3F0"/>
</linearGradient>
<linearGradient id="paint4_linear_1_6" x1="160.373" y1="141.837" x2="165.54" y2="137.715" gradientUnits="userSpaceOnUse">
<stop stop-color="#F70139"/>
<stop offset="0.505208" stop-color="#BA06F0"/>
<stop offset="1" stop-color="#00D3F0"/>
</linearGradient>
<linearGradient id="paint5_linear_1_6" x1="11.1602" y1="131.821" x2="16.3271" y2="127.699" gradientUnits="userSpaceOnUse">
<stop stop-color="#F70139"/>
<stop offset="0.505208" stop-color="#BA06F0"/>
<stop offset="1" stop-color="#00D3F0"/>
</linearGradient>
<linearGradient id="paint6_linear_1_6" x1="143.458" y1="130.773" x2="146.757" y2="130.97" gradientUnits="userSpaceOnUse">
<stop stop-color="#F70139"/>
<stop offset="0.505208" stop-color="#BA06F0"/>
<stop offset="1" stop-color="#00D3F0"/>
</linearGradient>
<linearGradient id="paint7_linear_1_6" x1="39.8957" y1="32.35" x2="43.1946" y2="32.5471" gradientUnits="userSpaceOnUse">
<stop stop-color="#F70139"/>
<stop offset="0.505208" stop-color="#BA06F0"/>
<stop offset="1" stop-color="#00D3F0"/>
</linearGradient>
<linearGradient id="paint8_linear_1_6" x1="0.631576" y1="24.8023" x2="3.21503" y2="22.7414" gradientUnits="userSpaceOnUse">
<stop stop-color="#F70139"/>
<stop offset="0.505208" stop-color="#BA06F0"/>
<stop offset="1" stop-color="#00D3F0"/>
</linearGradient>
<clipPath id="clip0_1_6">
<rect width="191.34" height="146.049" fill="white" transform="translate(0.659973 0.475494)"/>
</clipPath>
</defs>
</svg>
