<svg width="102" height="22" viewBox="0 0 102 22" fill="none" xmlns="http://www.w3.org/2000/svg">
<path d="M47.9702 0H47.9695C46.4048 0 45.1364 1.26784 45.1364 2.83179V2.83248C45.1364 4.39644 46.4048 5.66428 47.9695 5.66428H47.9702C49.5349 5.66428 50.8033 4.39644 50.8033 2.83248V2.83179C50.8033 1.26784 49.5349 0 47.9702 0Z" fill="#1A1818"/>
<path d="M50.4298 2.83198C50.4298 1.47385 49.3283 0.372864 47.9695 0.372864C46.6108 0.372864 45.5093 1.47385 45.5093 2.83198C45.5093 4.19011 46.6108 5.29109 47.9695 5.29109C49.3283 5.29109 50.4298 4.19011 50.4298 2.83198Z" fill="#111111"/>
<path d="M47.5718 4.13971C47.3458 4.14069 47.1211 4.10608 46.9058 4.03718C46.7913 4.00917 46.6854 3.95365 46.5972 3.87542C46.509 3.7972 46.4413 3.69864 46.3998 3.58831C46.368 3.41925 46.3725 3.24536 46.413 3.07817C46.4535 2.91097 46.5292 2.7543 46.6349 2.61852C46.7063 2.50646 46.7535 2.38069 46.7734 2.24931C46.7852 2.12155 46.829 1.99881 46.9008 1.89249C46.9727 1.78617 47.0702 1.6997 47.1844 1.64111C47.3313 1.56502 47.4945 1.5258 47.6599 1.52681C47.8353 1.52731 48.0084 1.56633 48.1671 1.64111L48.1858 1.65081L48.1997 1.66605C48.8116 2.31512 48.454 3.88271 48.4388 3.95198L48.4103 4.07252L48.3043 4.04619L48.2205 4.06351C48.0078 4.11291 47.7902 4.13846 47.5718 4.13971Z" fill="#A6BE2E"/>
<path d="M47.6535 1.6466C47.8094 1.64696 47.9634 1.68124 48.1047 1.74704C48.6792 2.35593 48.3126 3.92145 48.3126 3.92145H48.3036C48.0613 3.97656 47.8144 4.00926 47.5661 4.01913C47.353 4.02002 47.1411 3.98729 46.9383 3.92215C46.2452 3.69563 46.4858 3.03478 46.7304 2.68704C46.975 2.3393 46.7997 1.97425 47.2349 1.74773C47.3635 1.68137 47.5061 1.64691 47.6507 1.64728M47.6507 1.40346C47.4658 1.4025 47.2834 1.44647 47.1192 1.53161C46.9887 1.5983 46.8769 1.69665 46.7942 1.81767C46.7115 1.93869 46.6604 2.0785 46.6458 2.22432C46.629 2.3396 46.5888 2.45019 46.5274 2.54919C46.4105 2.7008 46.3276 2.87578 46.2844 3.06225C46.2412 3.24872 46.2387 3.4423 46.2771 3.62982C46.3241 3.7586 46.4019 3.87392 46.5038 3.96569C46.6056 4.05747 46.7284 4.12291 46.8614 4.15628C47.0887 4.22922 47.3261 4.26592 47.5648 4.26503C47.7915 4.26269 48.0171 4.23504 48.2377 4.1826L48.2925 4.17082L48.4928 4.2207L48.5489 3.97964C48.6133 3.6833 48.6524 3.38205 48.666 3.07911C48.7403 2.55005 48.6014 2.01316 48.28 1.58633L48.2516 1.55654L48.2148 1.53715C48.039 1.45295 47.8464 1.40916 47.6514 1.409L47.6507 1.40346Z" fill="#1A1818"/>
<path d="M48.567 1.40285C48.3384 1.4827 48.1363 1.62401 47.9828 1.81124C47.8294 1.99846 47.7306 2.22435 47.6972 2.46407C47.6797 2.60658 47.6772 2.75051 47.6896 2.89355L47.7333 3.7338C47.7298 3.78002 47.7386 3.82634 47.7588 3.86806C47.779 3.90978 47.8099 3.94543 47.8483 3.9714C47.9817 4.10696 48.1401 4.2154 48.3147 4.29074C48.4161 4.32188 48.5229 4.33151 48.6283 4.31902C48.7337 4.30652 48.8353 4.27219 48.9266 4.2182C49.0179 4.16421 49.097 4.09177 49.1587 4.00549C49.2204 3.91922 49.2634 3.82102 49.285 3.71718C49.2907 3.64299 49.3032 3.56949 49.3224 3.49759C49.3562 3.42293 49.3998 3.35306 49.452 3.28978C49.5796 3.09927 49.6505 2.87645 49.6564 2.64726C49.6622 2.41807 49.6029 2.19192 49.4853 1.99511C49.4813 1.88797 49.4516 1.78336 49.3985 1.69018C49.3454 1.59699 49.2706 1.51798 49.1805 1.45985C49.0904 1.40172 48.9876 1.36618 48.8808 1.35625C48.7739 1.34633 48.6663 1.36232 48.567 1.40285Z" fill="#F26711"/>
<path d="M48.5303 4.44929C48.442 4.44963 48.3544 4.43488 48.2711 4.40566C48.0811 4.32452 47.909 4.20684 47.7645 4.0593C47.7141 4.02257 47.6734 3.97394 47.6463 3.91774C47.6192 3.86154 47.6066 3.79951 47.6093 3.73718L47.5655 2.89693C47.5525 2.74533 47.5556 2.59279 47.5746 2.44182C47.6108 2.17864 47.7197 1.93075 47.889 1.72593C48.0583 1.52112 48.2813 1.36749 48.533 1.28223C48.653 1.23925 48.7812 1.22396 48.9079 1.23752C49.0347 1.25108 49.1567 1.29312 49.2649 1.3605C49.4491 1.50513 49.5691 1.71635 49.5989 1.94861C49.7215 2.16447 49.7817 2.41013 49.7728 2.65819C49.7639 2.90624 49.6862 3.14693 49.5483 3.35342L49.5151 3.39984C49.4819 3.44097 49.4543 3.48642 49.4333 3.53492C49.4214 3.57484 49.4139 3.61596 49.4111 3.65753C49.4111 3.68247 49.4056 3.70809 49.4014 3.73303C49.3792 3.855 49.3305 3.9706 49.2586 4.07164C49.1867 4.17267 49.0936 4.25667 48.9856 4.31767C48.8484 4.40172 48.6911 4.4472 48.5303 4.44929ZM48.8442 1.48311C48.7607 1.48429 48.6777 1.49664 48.5975 1.51983C48.3917 1.59369 48.2102 1.72238 48.0724 1.89198C47.9346 2.06157 47.8459 2.26561 47.8158 2.482C47.7999 2.61628 47.7977 2.75183 47.8095 2.88654L47.8532 3.72679C47.8486 3.75681 47.8533 3.7875 47.8665 3.81483C47.8798 3.84216 47.901 3.86484 47.9274 3.87989C48.0491 4.00441 48.1936 4.10456 48.3529 4.17498C48.4373 4.19941 48.5259 4.2063 48.6131 4.19522C48.7003 4.18413 48.7843 4.1553 48.86 4.11052C48.9356 4.06574 49.0013 4.00595 49.0529 3.93483C49.1046 3.86371 49.1411 3.78277 49.1602 3.69701C49.1602 3.67553 49.1658 3.65406 49.1686 3.63328C49.175 3.49544 49.2274 3.36372 49.3176 3.25921L49.348 3.21697C49.4622 3.04601 49.5256 2.84624 49.5308 2.64078C49.5361 2.43532 49.483 2.23256 49.3778 2.05598L49.3626 2.03104V2.00196C49.3441 1.83049 49.2599 1.67284 49.1276 1.56208C49.0436 1.50799 48.9447 1.48159 48.8449 1.48658L48.8442 1.48311Z" fill="#1A1818"/>
<path d="M46.9771 0.531307C47.0332 0.534362 47.086 0.559225 47.1241 0.600604C47.143 0.620665 47.1535 0.647198 47.1535 0.674766C47.1535 0.702333 47.143 0.728856 47.1241 0.748916C47.0838 0.772794 47.036 0.780468 46.9903 0.770394C46.8788 0.757799 46.7669 0.789962 46.6792 0.859804C46.632 0.902079 46.5855 0.96514 46.5225 0.956131C46.5002 0.951183 46.4803 0.93869 46.4661 0.920758C46.452 0.902826 46.4445 0.880556 46.4449 0.857721C46.4461 0.834884 46.4522 0.812574 46.4627 0.792263C46.4733 0.771952 46.488 0.754106 46.5059 0.739907C46.5417 0.711315 46.5813 0.687974 46.6237 0.670599C46.6698 0.624329 46.7251 0.588078 46.7859 0.56411C46.8467 0.540143 46.9118 0.528981 46.9771 0.531307Z" fill="#C6C6C6"/>
<path d="M47.6133 1.06413C47.5814 1.07029 47.5484 1.06383 47.5211 1.04612C47.5076 1.03764 47.4978 1.02434 47.4936 1.0089C47.4895 0.993466 47.4914 0.977048 47.499 0.962955C47.5175 0.944408 47.5421 0.933309 47.5683 0.93177C47.6001 0.927327 47.6307 0.916653 47.6584 0.900362C47.6861 0.884071 47.7104 0.862476 47.7298 0.836818C47.7505 0.806324 47.7671 0.767514 47.8032 0.760584C47.8163 0.760198 47.8292 0.764326 47.8396 0.772269C47.8501 0.780212 47.8576 0.791495 47.8607 0.804247C47.8633 0.817239 47.8631 0.83063 47.8601 0.843533C47.8571 0.856436 47.8514 0.868557 47.8434 0.879096C47.775 0.951619 47.6966 1.01394 47.6106 1.06413H47.6133Z" fill="#C6C6C6"/>
<path d="M50.0057 2.81395C49.9738 2.82018 49.9407 2.81372 49.9135 2.79593C49.8999 2.78746 49.8901 2.77416 49.886 2.75872C49.8819 2.74328 49.8838 2.72686 49.8913 2.71277C49.9099 2.69433 49.9345 2.68325 49.9606 2.68159C49.9925 2.67725 50.0231 2.66663 50.0509 2.65033C50.0786 2.63403 50.1028 2.61237 50.1221 2.58663C50.1429 2.55614 50.1595 2.51733 50.1955 2.5104C50.2087 2.51002 50.2215 2.51414 50.232 2.52209C50.2424 2.53003 50.2499 2.54131 50.253 2.55406C50.2556 2.56706 50.2554 2.58045 50.2525 2.59335C50.2495 2.60625 50.2438 2.61837 50.2358 2.62891C50.1675 2.70152 50.089 2.76385 50.0029 2.81395H50.0057Z" fill="#C6C6C6"/>
<path d="M45.8897 2.53809C45.915 2.51748 45.9473 2.50753 45.9798 2.51036C45.9958 2.51142 46.0108 2.51852 46.0217 2.53024C46.0327 2.54195 46.0388 2.5574 46.0387 2.57343C46.0387 2.59976 46.011 2.61778 45.9902 2.63511C45.9379 2.6735 45.903 2.73108 45.8931 2.79519C45.8931 2.83192 45.8931 2.87628 45.8647 2.89707C45.8535 2.90305 45.8406 2.90513 45.8281 2.903C45.8155 2.90087 45.804 2.89464 45.7954 2.88529C45.7871 2.87503 45.781 2.86313 45.7775 2.85035C45.774 2.83757 45.7733 2.82422 45.7754 2.81114C45.7796 2.78518 45.7874 2.75996 45.7989 2.73629C45.7998 2.69883 45.8084 2.66195 45.824 2.62789C45.8396 2.59382 45.8619 2.56327 45.8897 2.53809Z" fill="#C6C6C6"/>
<path d="M46.8371 4.73469C46.8622 4.71426 46.8943 4.70432 46.9265 4.70696C46.9424 4.70801 46.9573 4.71502 46.9682 4.72659C46.9792 4.73816 46.9853 4.75343 46.9854 4.76934C46.9854 4.79568 46.9577 4.81369 46.9369 4.83101C46.8846 4.8694 46.8497 4.92699 46.8399 4.99111C46.8399 5.02784 46.8399 5.07219 46.8115 5.09367C46.8002 5.09965 46.7873 5.10174 46.7748 5.09961C46.7622 5.09747 46.7508 5.09124 46.7422 5.08189C46.7338 5.07166 46.7276 5.05976 46.7242 5.04697C46.7207 5.03419 46.72 5.02082 46.722 5.00774C46.7482 4.91159 46.7879 4.81965 46.8399 4.73469H46.8371Z" fill="#C6C6C6"/>
<path d="M49.3702 0.902631C49.3897 0.928639 49.3983 0.961169 49.3944 0.993426C49.3928 1.00936 49.3852 1.02406 49.373 1.03451C49.3609 1.04496 49.3452 1.05035 49.3292 1.04956C49.3029 1.0454 49.2863 1.02045 49.2697 0.998968C49.2334 0.945253 49.1774 0.908114 49.1138 0.895704C49.077 0.890853 49.032 0.895706 49.0126 0.863134C49.0068 0.851687 49.0051 0.838653 49.0076 0.8261C49.0101 0.813548 49.0168 0.802188 49.0264 0.793826C49.037 0.785805 49.0491 0.780115 49.062 0.777128C49.0749 0.774142 49.0882 0.77393 49.1012 0.776504C49.1271 0.781579 49.1521 0.79045 49.1754 0.802836C49.213 0.805386 49.2496 0.815553 49.283 0.83271C49.3165 0.849867 49.3462 0.873653 49.3702 0.902631Z" fill="#C6C6C6"/>
<path d="M46.1503 1.28294C46.17 1.30888 46.1786 1.34147 46.1745 1.37374C46.173 1.38954 46.1654 1.40415 46.1535 1.41458C46.1415 1.42501 46.1259 1.43048 46.1101 1.42987C46.0837 1.42571 46.0665 1.40076 46.0505 1.37928C46.0142 1.32567 45.9581 1.28857 45.8946 1.27601C45.8586 1.27116 45.8135 1.27602 45.7934 1.24344C45.7878 1.23192 45.7861 1.21884 45.7888 1.20628C45.7914 1.19373 45.7982 1.18241 45.808 1.17414C45.8185 1.16612 45.8306 1.16043 45.8435 1.15744C45.8564 1.15445 45.8698 1.15424 45.8828 1.15681C45.9778 1.18664 46.0681 1.22981 46.151 1.28502L46.1503 1.28294Z" fill="#C6C6C6"/>
<path d="M48.9758 4.95361C48.9953 4.97959 49.004 5.01213 49 5.04439C48.9982 5.06026 48.9906 5.07487 48.9785 5.08529C48.9664 5.0957 48.9508 5.10116 48.9348 5.10054C48.9085 5.09638 48.8912 5.07074 48.8753 5.04995C48.839 4.99623 48.783 4.95909 48.7194 4.94668C48.6826 4.94183 48.6383 4.94669 48.6182 4.91411C48.6125 4.90259 48.6109 4.88951 48.6135 4.87695C48.6162 4.86439 48.6229 4.85308 48.6327 4.84481C48.6433 4.83682 48.6554 4.83116 48.6683 4.82817C48.6812 4.82519 48.6945 4.82495 48.7075 4.82748C48.7333 4.83276 48.7583 4.84162 48.7817 4.85381C48.8191 4.85646 48.8556 4.86666 48.889 4.88382C48.9223 4.90097 48.9519 4.92471 48.9758 4.95361Z" fill="#C6C6C6"/>
<path d="M50.197 3.51001C50.2166 3.53596 50.2253 3.56853 50.2212 3.6008C50.2196 3.61673 50.212 3.63144 50.1999 3.64189C50.1878 3.65234 50.1721 3.65772 50.1561 3.65693C50.1298 3.65277 50.1131 3.62782 50.0964 3.60634C50.0785 3.57972 50.0555 3.5569 50.0288 3.53918C50.002 3.52146 49.972 3.50918 49.9405 3.50308C49.9045 3.49822 49.8594 3.50308 49.8394 3.4705C49.8336 3.45901 49.8319 3.4459 49.8345 3.43331C49.8372 3.42072 49.844 3.40941 49.8539 3.40121C49.8645 3.39323 49.8766 3.38756 49.8895 3.38457C49.9024 3.38159 49.9158 3.38135 49.9288 3.38388C50.0237 3.41398 50.1139 3.45713 50.197 3.51208V3.51001Z" fill="#C6C6C6"/>
<path d="M46.4614 1.89673C46.4809 1.92274 46.4896 1.95526 46.4857 1.98752C46.4841 2.00344 46.4764 2.01816 46.4643 2.02861C46.4522 2.03906 46.4366 2.04445 46.4206 2.04366C46.3942 2.0395 46.3769 2.01386 46.3609 1.99307C46.3247 1.93935 46.2686 1.90221 46.205 1.8898C46.1683 1.88495 46.1232 1.8898 46.1038 1.85722C46.0982 1.8457 46.0966 1.83263 46.0992 1.82007C46.1018 1.80752 46.1086 1.7962 46.1184 1.78793C46.129 1.77994 46.1411 1.77428 46.154 1.77129C46.1669 1.76831 46.1803 1.76806 46.1933 1.77059C46.2191 1.77586 46.244 1.78474 46.2674 1.79694C46.3048 1.79958 46.3413 1.80978 46.3746 1.82694C46.408 1.84409 46.4375 1.86783 46.4614 1.89673Z" fill="#C6C6C6"/>
<path d="M50.0902 1.93295C50.0521 1.97427 49.9994 1.99912 49.9433 2.00224C49.9157 2.00427 49.8884 1.99572 49.8669 1.97834C49.8454 1.96097 49.8314 1.93607 49.8276 1.90869C49.835 1.86246 49.8598 1.82082 49.8969 1.79226C49.9774 1.71438 50.0238 1.60768 50.0258 1.49563C50.0258 1.43187 50.0042 1.35703 50.0507 1.31406C50.0684 1.2996 50.0906 1.29169 50.1134 1.29169C50.1363 1.29169 50.1584 1.2996 50.1761 1.31406C50.193 1.32953 50.2063 1.34841 50.2153 1.36944C50.2243 1.39048 50.2287 1.41318 50.2282 1.43603C50.2059 1.60699 50.1592 1.77387 50.0895 1.93156L50.0902 1.93295Z" fill="#C6C6C6"/>
<path d="M47.6791 5.10347C47.6408 5.14489 47.5878 5.16975 47.5315 5.17278C47.504 5.17478 47.4768 5.16621 47.4554 5.14882C47.4341 5.13143 47.4201 5.10653 47.4164 5.07921C47.424 5.03303 47.4487 4.99143 47.4857 4.96278C47.5257 4.92424 47.5577 4.87821 47.5798 4.82732C47.6019 4.77642 47.6137 4.72165 47.6147 4.66617C47.6147 4.60241 47.5932 4.52755 47.6396 4.48459C47.6573 4.47012 47.6794 4.46222 47.7023 4.46222C47.7252 4.46222 47.7474 4.47012 47.7651 4.48459C47.7819 4.50008 47.7952 4.51897 47.8042 4.54C47.8131 4.56102 47.8175 4.58371 47.817 4.60657C47.7944 4.77744 47.7477 4.94426 47.6784 5.10208L47.6791 5.10347Z" fill="#C6C6C6"/>
<path d="M49.7853 3.98518C49.8357 3.96014 49.8938 3.95567 49.9474 3.9727C49.9739 3.98048 49.9965 3.99809 50.0104 4.02193C50.0243 4.04576 50.0286 4.07402 50.0223 4.10091C50.0064 4.14457 49.9586 4.16536 49.917 4.18615C49.8141 4.23062 49.7331 4.31414 49.6918 4.41832C49.6717 4.47862 49.6633 4.55693 49.6044 4.5798C49.5825 4.58661 49.559 4.58563 49.5378 4.57704C49.5166 4.56845 49.499 4.55277 49.488 4.53267C49.4776 4.51232 49.4717 4.48998 49.4706 4.46716C49.4696 4.44433 49.4733 4.42154 49.4817 4.4003C49.5625 4.24788 49.6647 4.10784 49.7853 3.98448V3.98518Z" fill="#C6C6C6"/>
<path d="M46.271 4.05106C46.3112 4.0904 46.3345 4.14383 46.3361 4.20006C46.3377 4.22764 46.3287 4.25478 46.3109 4.27592C46.2931 4.29705 46.2679 4.31058 46.2404 4.31372C46.194 4.31372 46.1586 4.2756 46.1254 4.24441C46.0878 4.20308 46.0425 4.16956 45.9919 4.14578C45.9414 4.122 45.8867 4.10841 45.8309 4.10581C45.7671 4.10581 45.6922 4.12451 45.6492 4.0767C45.6355 4.05836 45.6286 4.03586 45.6296 4.01299C45.6306 3.99013 45.6396 3.96831 45.6548 3.95126C45.6707 3.93469 45.6899 3.92168 45.7112 3.91308C45.7324 3.90448 45.7552 3.90048 45.7782 3.90136C45.9483 3.92706 46.114 3.97676 46.2702 4.04898L46.271 4.05106Z" fill="#C6C6C6"/>
<path d="M11.8826 17.7825L11.8448 10.8479L8.46089 16.4924H6.8063L3.44092 11.0347V17.7819H0V4.69879H3.06429L7.6899 12.2499L12.2023 4.69879H15.2672L15.3049 17.7825H11.8826Z" fill="white"/>
<path d="M25.9817 8.63294C26.8716 9.399 27.3166 10.5733 27.3166 12.1559V17.7819H23.992V16.4733C23.478 17.458 22.4754 17.9501 20.984 17.9497C20.2784 17.967 19.5779 17.8264 18.9343 17.5385C18.4 17.3007 17.9462 16.9145 17.6276 16.4262C17.3295 15.9466 17.1761 15.3921 17.1857 14.8284C17.1672 14.3935 17.2591 13.961 17.453 13.5707C17.6468 13.1804 17.9364 12.8448 18.295 12.595C19.3277 11.9904 20.5214 11.7132 21.7167 11.8006H23.7472C23.6846 10.729 22.9638 10.1932 21.585 10.1932C21.0808 10.1957 20.58 10.2746 20.0998 10.4271C19.6376 10.563 19.2043 10.7816 18.8211 11.0722L17.618 8.6609C18.25 8.25784 18.946 7.96389 19.6766 7.79144C20.4719 7.58758 21.2898 7.48402 22.1111 7.48319C23.4987 7.38883 24.8737 7.79727 25.9817 8.63294ZM23.0676 15.4081C23.3874 15.2006 23.6263 14.8907 23.7446 14.5297V13.6514H22.2032C21.1628 13.6514 20.6426 13.9941 20.6426 14.6797C20.638 14.8236 20.6681 14.9665 20.7302 15.0965C20.7924 15.2265 20.8849 15.3398 21 15.4271C21.2845 15.6281 21.6291 15.7269 21.9775 15.7074C22.3622 15.7151 22.7408 15.6111 23.0669 15.4081H23.0676Z" fill="white"/>
<path d="M34.1932 14.231L33.1403 15.2962V17.7826H29.5677V3.91388H33.1403V11.186L36.7844 7.65355H41.0149L36.7844 11.99L41.3723 17.7845H37.0478L34.1932 14.231Z" fill="white"/>
<path d="M42.6376 5.98838C42.4482 5.81842 42.2968 5.61085 42.1932 5.37908C42.0896 5.14731 42.036 4.89651 42.036 4.64288C42.036 4.38925 42.0896 4.13845 42.1932 3.90668C42.2968 3.67491 42.4482 3.46735 42.6376 3.29739C43.075 2.92286 43.64 2.72888 44.2167 2.75525C44.7886 2.72887 45.3504 2.9118 45.7958 3.26943C45.9897 3.42963 46.1445 3.63139 46.2487 3.85958C46.3529 4.08776 46.4037 4.33644 46.3975 4.58695C46.4042 4.84847 46.3539 5.10833 46.25 5.3487C46.1462 5.58907 45.9912 5.80425 45.7958 5.97948C45.3475 6.33497 44.7916 6.52936 44.2181 6.53109C43.6446 6.53282 43.0874 6.34179 42.6369 5.98902L42.6376 5.98838ZM42.4304 7.65165H46.003V17.7851H42.4304V7.65165Z" fill="white"/>
<path d="M49.9323 17.651C49.0621 17.4474 48.2348 17.093 47.4882 16.6043L48.7105 13.8751C49.3453 14.2826 50.0355 14.5975 50.7602 14.8101C51.5027 15.0416 52.2759 15.1613 53.0541 15.1653C54.4832 15.1653 55.1978 14.8103 55.1978 14.1001C55.1965 13.9153 55.1367 13.7355 55.027 13.5862C54.9174 13.437 54.7633 13.3257 54.5866 13.2682C53.9505 13.0185 53.2929 12.827 52.6219 12.6962C51.7799 12.5255 50.9506 12.2974 50.1401 12.0136C49.4799 11.7736 48.8914 11.3718 48.4292 10.8454C47.9272 10.2367 47.6723 9.46346 47.7145 8.67748C47.7054 7.90702 47.9353 7.1525 48.3729 6.51656C48.8663 5.83055 49.5486 5.30087 50.3376 4.9912C51.3569 4.5903 52.4475 4.39958 53.5432 4.43063C54.404 4.43019 55.262 4.52742 56.1005 4.72045C56.8793 4.89 57.6273 5.17676 58.319 5.57083L57.1721 8.31839C56.0603 7.68399 54.8063 7.33696 53.5247 7.30911C52.9658 7.26873 52.4065 7.38174 51.9078 7.63579C51.755 7.72013 51.6275 7.84331 51.5383 7.99272C51.4491 8.14214 51.4015 8.31243 51.4002 8.48618C51.4048 8.66327 51.4653 8.83442 51.5733 8.97532C51.6813 9.11623 51.8312 9.21972 52.0018 9.2711C52.629 9.51098 53.2774 9.69247 53.9383 9.81324C54.7847 9.98137 55.618 10.2093 56.4317 10.4952C57.0884 10.7372 57.6756 11.1349 58.1425 11.6538C58.6512 12.2566 58.91 13.0292 58.8663 13.8148C58.8738 14.5756 58.6439 15.3201 58.2084 15.9458C57.709 16.6299 57.0243 17.1589 56.2341 17.4712C55.2192 17.8774 54.1312 18.0721 53.0375 18.0432C51.9897 18.0461 50.9461 17.9143 49.9323 17.651Z" fill="white"/>
<path d="M77.1051 7.65167L73.4763 17.782H70.0169L68.0989 12.2684L66.1061 17.782H62.6454L59.0166 7.65167H62.4006L64.4873 13.7823L66.6495 7.65167H69.6953L71.8012 13.8383L73.9634 7.65167H77.1051Z" fill="white"/>
<path d="M86.0519 8.63295C86.9418 9.39902 87.3867 10.5733 87.3867 12.1559V17.7819H84.0589V16.4733C83.5449 17.458 82.5423 17.9501 81.051 17.9497C80.3454 17.967 79.6449 17.8264 79.0013 17.5385C78.4669 17.3007 78.0132 16.9145 77.6945 16.4263C77.3965 15.9467 77.243 15.3921 77.2526 14.8284C77.2341 14.3935 77.326 13.961 77.5199 13.5707C77.7137 13.1804 78.0034 12.8449 78.3619 12.5951C79.3946 11.9903 80.5884 11.7132 81.7837 11.8006H83.8142C83.7515 10.729 83.0308 10.1933 81.6519 10.1933C81.1478 10.1957 80.647 10.2746 80.1668 10.4272C79.7046 10.563 79.2713 10.7816 78.8881 11.0723L77.6848 8.66091C78.3169 8.25785 79.0129 7.96389 79.7435 7.79146C80.5388 7.58758 81.3568 7.48402 82.1781 7.48321C83.5667 7.38807 84.943 7.79655 86.0519 8.63295ZM83.1377 15.4081C83.4575 15.2005 83.6964 14.8906 83.8148 14.5297V13.6514H82.2727C81.2323 13.6514 80.7121 13.9942 80.7121 14.6797C80.7075 14.8236 80.7375 14.9665 80.7997 15.0965C80.8619 15.2265 80.9543 15.3399 81.0694 15.4271C81.3537 15.6284 81.6986 15.7272 82.047 15.7074C82.4319 15.7153 82.8114 15.6113 83.1377 15.4081Z" fill="white"/>
<path d="M98.5795 8.1283C99.3401 8.55977 99.9651 9.19282 100.385 9.95683C100.824 10.8103 101.053 11.7551 101.053 12.7136C101.053 13.6721 100.824 14.6169 100.385 15.4704C99.9659 16.2356 99.341 16.8698 98.5801 17.3021C97.8091 17.7353 96.9366 17.9579 96.051 17.9472C95.5295 17.9731 95.0082 17.8919 94.5197 17.7086C94.0311 17.5254 93.5859 17.2439 93.2116 16.8819V21.4053H89.6398V7.65163H93.0429V8.66091C93.4223 8.25157 93.8901 7.93298 94.411 7.72901C94.932 7.52504 95.4927 7.44101 96.051 7.4832C96.9364 7.47265 97.8086 7.69522 98.5795 8.1283ZM96.8405 14.484C97.2307 13.9769 97.4422 13.3562 97.4422 12.7177C97.4422 12.0793 97.2307 11.4586 96.8405 10.9515C96.6397 10.7473 96.3999 10.5851 96.1351 10.4744C95.8704 10.3637 95.5861 10.3066 95.2988 10.3066C95.0116 10.3066 94.7273 10.3637 94.4625 10.4744C94.1978 10.5851 93.9578 10.7473 93.757 10.9515C93.3667 11.4585 93.1553 12.0792 93.1553 12.7177C93.1553 13.3562 93.3667 13.9769 93.757 14.484C93.9578 14.6881 94.1978 14.8503 94.4625 14.9611C94.7273 15.0718 95.0116 15.1288 95.2988 15.1288C95.5861 15.1288 95.8704 15.0718 96.1351 14.9611C96.3999 14.8503 96.6397 14.6881 96.8405 14.484Z" fill="white"/>
<path d="M44.2193 1.40527H44.2186C42.7752 1.40527 41.605 2.56852 41.605 4.00347V4.0041C41.605 5.43904 42.7752 6.60229 44.2186 6.60229H44.2193C45.6627 6.60229 46.8328 5.43904 46.8328 4.0041V4.00347C46.8328 2.56852 45.6627 1.40527 44.2193 1.40527Z" fill="url(#paint0_linear_3_2127)"/>
<path d="M46.2242 4.00363C46.2242 2.90252 45.3263 2.00989 44.2187 2.00989C43.1111 2.00989 42.2131 2.90252 42.2131 4.00363C42.2131 5.10475 43.1111 5.99738 44.2187 5.99738C45.3263 5.99738 46.2242 5.10475 46.2242 4.00363Z" fill="white"/>
<path d="M43.8943 5.06388C43.7101 5.06467 43.5269 5.03661 43.3515 4.98075C43.2581 4.95804 43.1718 4.91302 43.0999 4.8496C43.028 4.78618 42.9728 4.70627 42.939 4.61682C42.913 4.47976 42.9167 4.33878 42.9498 4.20322C42.9828 4.06767 43.0444 3.94064 43.1306 3.83056C43.1888 3.7397 43.2273 3.63774 43.2435 3.53122C43.2531 3.42763 43.2888 3.32812 43.3474 3.24192C43.406 3.15572 43.4855 3.08562 43.5786 3.03811C43.6983 2.97643 43.8313 2.94463 43.9661 2.94545C44.1091 2.94585 44.2503 2.97749 44.3796 3.03811L44.3949 3.04598L44.4062 3.05834C44.905 3.58457 44.6135 4.85551 44.6011 4.91167L44.5779 5.0094L44.4915 4.98805L44.4232 5.0021C44.2497 5.04214 44.0724 5.06286 43.8943 5.06388Z" fill="#A6BE2E"/>
<path d="M43.961 3.04254C44.0881 3.04283 44.2136 3.07062 44.3288 3.12397C44.7972 3.61764 44.4983 4.88689 44.4983 4.88689H44.4909C44.2934 4.93157 44.0922 4.95808 43.8898 4.96608C43.7161 4.96681 43.5433 4.94027 43.378 4.88745C42.813 4.70381 43.0091 4.16802 43.2085 3.88609C43.4079 3.60415 43.265 3.30818 43.6198 3.12453C43.7246 3.07073 43.8408 3.04279 43.9588 3.04309M43.9588 2.84541C43.808 2.84463 43.6593 2.88029 43.5255 2.94931C43.419 3.00338 43.3279 3.08312 43.2605 3.18124C43.1931 3.27935 43.1515 3.39271 43.1395 3.51093C43.1259 3.60439 43.0931 3.69405 43.043 3.77432C42.9477 3.89724 42.8801 4.03911 42.8449 4.19029C42.8097 4.34147 42.8077 4.49842 42.839 4.65045C42.8773 4.75485 42.9407 4.84835 43.0238 4.92276C43.1068 4.99717 43.2068 5.05023 43.3153 5.07728C43.5006 5.13641 43.6941 5.16617 43.8887 5.16545C44.0735 5.16355 44.2574 5.14113 44.4372 5.09862L44.4819 5.08907L44.6451 5.12951L44.6909 4.93407C44.7434 4.69381 44.7753 4.44957 44.7864 4.20396C44.8469 3.77502 44.7337 3.33973 44.4717 2.99367L44.4485 2.96952L44.4186 2.9538C44.2752 2.88554 44.1183 2.85004 43.9593 2.8499L43.9588 2.84541Z" fill="#1A1818"/>
<path d="M44.7057 2.84496C44.5194 2.90971 44.3546 3.02427 44.2295 3.17607C44.1044 3.32786 44.0239 3.51101 43.9967 3.70536C43.9825 3.8209 43.9804 3.9376 43.9905 4.05356L44.0261 4.7348C44.0233 4.77228 44.0304 4.80983 44.0469 4.84366C44.0634 4.87748 44.0885 4.90638 44.1199 4.92744C44.2286 5.03734 44.3577 5.12526 44.5 5.18635C44.5827 5.21159 44.6698 5.2194 44.7557 5.20927C44.8416 5.19914 44.9244 5.1713 44.9989 5.12753C45.0733 5.08376 45.1377 5.02502 45.188 4.95508C45.2383 4.88513 45.2734 4.80551 45.291 4.72132C45.2957 4.66118 45.3058 4.60158 45.3215 4.54329C45.3491 4.48276 45.3846 4.42612 45.4271 4.37481C45.5311 4.22035 45.5889 4.0397 45.5937 3.85388C45.5985 3.66806 45.5502 3.48471 45.4543 3.32515C45.4511 3.23828 45.4268 3.15347 45.3835 3.07792C45.3403 3.00237 45.2793 2.93831 45.2058 2.89118C45.1323 2.84405 45.0485 2.81524 44.9615 2.80719C44.8744 2.79914 44.7866 2.8121 44.7057 2.84496Z" fill="#F26711"/>
<path d="M44.6758 5.31488C44.6038 5.31516 44.5324 5.3032 44.4645 5.27951C44.3096 5.21373 44.1693 5.11831 44.0515 4.9987C44.0104 4.96892 43.9773 4.92949 43.9552 4.88392C43.9331 4.83836 43.9228 4.78807 43.925 4.73754L43.8893 4.0563C43.8787 3.93339 43.8812 3.80971 43.8967 3.68731C43.9263 3.47394 44.015 3.27296 44.153 3.1069C44.291 2.94085 44.4728 2.81629 44.678 2.74717C44.7758 2.71232 44.8803 2.69993 44.9836 2.71092C45.0869 2.72191 45.1864 2.75599 45.2746 2.81063C45.4248 2.92788 45.5226 3.09914 45.5469 3.28744C45.6468 3.46245 45.6959 3.66162 45.6886 3.86273C45.6813 4.06385 45.618 4.25899 45.5057 4.4264L45.4786 4.46403C45.4515 4.49738 45.429 4.53422 45.4119 4.57355C45.4022 4.60591 45.3961 4.63926 45.3938 4.67296C45.3938 4.69317 45.3893 4.71395 45.3859 4.73417C45.3678 4.83306 45.3281 4.92678 45.2695 5.0087C45.2109 5.09061 45.1349 5.15871 45.0469 5.20817C44.9351 5.27632 44.8069 5.31318 44.6758 5.31488ZM44.9317 2.91003C44.8636 2.91099 44.7959 2.921 44.7305 2.9398C44.5628 2.99969 44.4149 3.10402 44.3025 3.24152C44.1902 3.37902 44.1179 3.54445 44.0933 3.71989C44.0803 3.82876 44.0786 3.93866 44.0882 4.04787L44.1238 4.72911C44.1201 4.75345 44.1239 4.77833 44.1347 4.80049C44.1455 4.82264 44.1628 4.84104 44.1843 4.85324C44.2835 4.95419 44.4013 5.03539 44.5312 5.09248C44.6 5.11229 44.6722 5.11788 44.7433 5.10889C44.8144 5.09991 44.8829 5.07653 44.9445 5.04022C45.0062 5.00392 45.0597 4.95544 45.1018 4.89778C45.1439 4.84012 45.1737 4.7745 45.1893 4.70496C45.1893 4.68755 45.1938 4.67015 45.1961 4.6533C45.2013 4.54154 45.2441 4.43475 45.3175 4.35002L45.3424 4.31577C45.4354 4.17716 45.4871 4.0152 45.4914 3.84862C45.4957 3.68204 45.4524 3.51765 45.3666 3.37449L45.3542 3.35427V3.33069C45.3392 3.19167 45.2705 3.06385 45.1627 2.97406C45.0942 2.9302 45.0136 2.9088 44.9322 2.91284L44.9317 2.91003Z" fill="#1A1818"/>
<path d="M43.5001 2.34894C43.5458 2.35141 43.5888 2.37157 43.6199 2.40512C43.6353 2.42139 43.6439 2.4429 43.6439 2.46525C43.6439 2.4876 43.6353 2.5091 43.6199 2.52537C43.5871 2.54473 43.5481 2.55095 43.5108 2.54278C43.42 2.53257 43.3288 2.55864 43.2572 2.61527C43.2188 2.64954 43.1809 2.70067 43.1295 2.69337C43.1113 2.68936 43.0951 2.67923 43.0835 2.66469C43.072 2.65015 43.0659 2.63209 43.0662 2.61358C43.0672 2.59507 43.0722 2.57698 43.0808 2.56051C43.0894 2.54404 43.1013 2.52957 43.116 2.51806C43.1451 2.49488 43.1774 2.47596 43.212 2.46187C43.2496 2.42436 43.2946 2.39497 43.3442 2.37553C43.3938 2.3561 43.4468 2.34705 43.5001 2.34894Z" fill="#C6C6C6"/>
<path d="M43.9284 2.57034C43.9024 2.57534 43.8754 2.5701 43.8532 2.55574C43.8421 2.54886 43.8341 2.53808 43.8308 2.52556C43.8274 2.51305 43.829 2.49974 43.8351 2.48831C43.8502 2.47328 43.8703 2.46428 43.8916 2.46303C43.9175 2.45943 43.9425 2.45077 43.9651 2.43757C43.9877 2.42436 44.0075 2.40685 44.0232 2.38605C44.0402 2.36132 44.0537 2.32986 44.0831 2.32424C44.0938 2.32393 44.1043 2.32727 44.1128 2.33371C44.1214 2.34015 44.1274 2.3493 44.13 2.35964C44.1321 2.37017 44.132 2.38103 44.1295 2.39149C44.1271 2.40195 44.1224 2.41178 44.1159 2.42032C44.0601 2.47912 43.9963 2.52965 43.9261 2.57034H43.9284Z" fill="#C6C6C6"/>
<path d="M45.8785 3.98899C45.8525 3.99404 45.8256 3.98879 45.8034 3.97438C45.7923 3.9675 45.7843 3.95672 45.781 3.94421C45.7776 3.93169 45.7792 3.91838 45.7853 3.90695C45.8004 3.892 45.8205 3.88302 45.8418 3.88167C45.8678 3.87816 45.8928 3.86954 45.9154 3.85633C45.938 3.84311 45.9577 3.82556 45.9734 3.80469C45.9904 3.77996 46.0039 3.7485 46.0333 3.74288C46.044 3.74257 46.0545 3.74591 46.063 3.75235C46.0716 3.75879 46.0776 3.76794 46.0802 3.77828C46.0823 3.78881 46.0821 3.79967 46.0797 3.81013C46.0773 3.82059 46.0727 3.83042 46.0661 3.83896C46.0105 3.89783 45.9465 3.94836 45.8763 3.98899H45.8785Z" fill="#C6C6C6"/>
<path d="M42.5232 3.76542C42.5438 3.74871 42.5701 3.74065 42.5966 3.74294C42.6097 3.74379 42.6219 3.74956 42.6308 3.75905C42.6397 3.76855 42.6447 3.78107 42.6447 3.79407C42.6447 3.81542 42.6221 3.83003 42.6051 3.84408C42.5625 3.8752 42.534 3.92188 42.526 3.97387C42.526 4.00365 42.526 4.03961 42.5028 4.05646C42.4937 4.06131 42.4832 4.063 42.473 4.06127C42.4628 4.05955 42.4534 4.05449 42.4464 4.04691C42.4395 4.0386 42.4346 4.02895 42.4317 4.01859C42.4289 4.00823 42.4283 3.9974 42.43 3.9868C42.4334 3.96575 42.4399 3.94531 42.4492 3.92611C42.45 3.89574 42.4569 3.86584 42.4697 3.83822C42.4824 3.8106 42.5006 3.78584 42.5232 3.76542Z" fill="#C6C6C6"/>
<path d="M43.3758 5.36346C43.3963 5.34689 43.4224 5.33884 43.4487 5.34098C43.4616 5.34183 43.4738 5.34751 43.4827 5.35689C43.4916 5.36627 43.4966 5.37865 43.4967 5.39155C43.4967 5.4129 43.4741 5.42751 43.4572 5.44155C43.4146 5.47268 43.3861 5.51937 43.3781 5.57135C43.3781 5.60113 43.3781 5.63709 43.3549 5.65451C43.3458 5.65935 43.3352 5.66104 43.325 5.65932C43.3148 5.65759 43.3055 5.65253 43.2984 5.64495C43.2916 5.63666 43.2866 5.62701 43.2837 5.61664C43.2809 5.60628 43.2803 5.59544 43.282 5.58484C43.3033 5.50688 43.3357 5.43234 43.3781 5.36346H43.3758Z" fill="#C6C6C6"/>
<path d="M45.3604 2.43946C45.3763 2.46055 45.3834 2.48692 45.3802 2.51307C45.3789 2.52599 45.3727 2.53791 45.3628 2.54638C45.3529 2.55485 45.3401 2.55922 45.3271 2.55858C45.3056 2.55521 45.2921 2.53498 45.2785 2.51757C45.249 2.47402 45.2033 2.44391 45.1514 2.43384C45.1215 2.42991 45.0848 2.43385 45.0689 2.40744C45.0643 2.39816 45.0628 2.38759 45.0649 2.37741C45.0669 2.36723 45.0723 2.35803 45.0803 2.35125C45.0888 2.34474 45.0987 2.34013 45.1092 2.33771C45.1197 2.33529 45.1306 2.33511 45.1412 2.3372C45.1623 2.34132 45.1827 2.34851 45.2017 2.35855C45.2323 2.36062 45.2621 2.36886 45.2894 2.38277C45.3167 2.39668 45.3409 2.41597 45.3604 2.43946Z" fill="#C6C6C6"/>
<path d="M43.0396 2.9867C43.0556 3.00773 43.0627 3.03415 43.0594 3.06031C43.0581 3.07313 43.052 3.08497 43.0422 3.09343C43.0324 3.10188 43.0198 3.10632 43.0068 3.10582C42.9854 3.10245 42.9713 3.08222 42.9583 3.06481C42.9286 3.02135 42.883 2.99126 42.8312 2.98108C42.8018 2.97715 42.7651 2.98109 42.7487 2.95468C42.7441 2.94534 42.7427 2.93473 42.7449 2.92455C42.747 2.91437 42.7526 2.90519 42.7606 2.89849C42.7691 2.89198 42.779 2.88737 42.7895 2.88495C42.8 2.88253 42.8109 2.88236 42.8215 2.88444C42.899 2.90863 42.9726 2.94362 43.0402 2.98839L43.0396 2.9867Z" fill="#C6C6C6"/>
<path d="M44.8666 5.65805C44.8825 5.67911 44.8896 5.7055 44.8863 5.73165C44.8849 5.74452 44.8787 5.75636 44.8688 5.76481C44.859 5.77325 44.8462 5.77768 44.8332 5.77717C44.8118 5.7738 44.7977 5.75301 44.7847 5.73616C44.7551 5.69261 44.7094 5.6625 44.6576 5.65243C44.6276 5.6485 44.5915 5.65244 44.5751 5.62603C44.5705 5.61669 44.5692 5.60608 44.5713 5.5959C44.5735 5.58572 44.579 5.57654 44.587 5.56984C44.5956 5.56336 44.6054 5.55877 44.6159 5.55635C44.6264 5.55393 44.6373 5.55374 44.6479 5.55579C44.669 5.56007 44.6894 5.56726 44.7084 5.57714C44.7389 5.57928 44.7687 5.58756 44.7959 5.60146C44.823 5.61537 44.8471 5.63462 44.8666 5.65805Z" fill="#C6C6C6"/>
<path d="M46.0345 4.55338C46.0505 4.57441 46.0576 4.60082 46.0543 4.62698C46.053 4.6399 46.0468 4.65183 46.0369 4.6603C46.027 4.66877 46.0142 4.67313 46.0012 4.67249C45.9797 4.66912 45.9661 4.64889 45.9525 4.63148C45.9379 4.60989 45.9192 4.59139 45.8974 4.57703C45.8756 4.56266 45.8511 4.55271 45.8254 4.54776C45.7961 4.54382 45.7593 4.54776 45.743 4.52135C45.7383 4.51203 45.7369 4.5014 45.739 4.49119C45.7412 4.48099 45.7467 4.47181 45.7548 4.46517C45.7634 4.45869 45.7733 4.4541 45.7839 4.45168C45.7944 4.44926 45.8053 4.44906 45.8159 4.45111C45.8932 4.47552 45.9668 4.51051 46.0345 4.55506V4.55338Z" fill="#C6C6C6"/>
<path d="M42.9894 3.24533C43.0052 3.26642 43.0123 3.29279 43.0091 3.31894C43.0079 3.33185 43.0016 3.34378 42.9917 3.35226C42.9818 3.36073 42.9691 3.3651 42.956 3.36446C42.9346 3.36109 42.9204 3.3403 42.9074 3.32344C42.8779 3.27989 42.8322 3.24978 42.7803 3.23972C42.7504 3.23579 42.7137 3.23971 42.6978 3.2133C42.6932 3.20396 42.6919 3.19337 42.6941 3.18318C42.6962 3.173 42.7017 3.16383 42.7097 3.15712C42.7183 3.15065 42.7282 3.14605 42.7387 3.14363C42.7493 3.14121 42.7602 3.14102 42.7707 3.14307C42.7918 3.14734 42.8121 3.15453 42.8312 3.16443C42.8617 3.16657 42.8914 3.17484 42.9186 3.18875C42.9458 3.20266 42.9699 3.22191 42.9894 3.24533Z" fill="#C6C6C6"/>
<path d="M45.8561 3.33713C45.841 3.35339 45.8202 3.36318 45.7979 3.36441C45.787 3.3652 45.7762 3.36184 45.7677 3.355C45.7592 3.34816 45.7536 3.33835 45.7521 3.32757C45.7551 3.30938 45.7649 3.29298 45.7796 3.28174C45.8115 3.25107 45.8298 3.20907 45.8306 3.16495C45.8306 3.13985 45.8221 3.11038 45.8404 3.09347C45.8475 3.08777 45.8562 3.08466 45.8653 3.08466C45.8743 3.08466 45.8831 3.08777 45.8901 3.09347C45.8968 3.09955 45.9021 3.10699 45.9056 3.11527C45.9092 3.12355 45.9109 3.13249 45.9107 3.14149C45.9019 3.20879 45.8834 3.2745 45.8558 3.33658L45.8561 3.33713Z" fill="#C6C6C6"/>
<path d="M43.982 5.84527C43.9508 5.87886 43.9076 5.89902 43.8617 5.90147C43.8393 5.90309 43.8171 5.89615 43.7997 5.88205C43.7822 5.86795 43.7708 5.84776 43.7679 5.82561C43.774 5.78817 43.7942 5.75444 43.8244 5.73121C43.8569 5.69997 43.883 5.66265 43.9011 5.62138C43.9191 5.58012 43.9287 5.53572 43.9295 5.49073C43.9295 5.43904 43.912 5.37835 43.9498 5.34351C43.9642 5.33178 43.9823 5.32538 44.0009 5.32538C44.0195 5.32538 44.0377 5.33178 44.0521 5.34351C44.0658 5.35607 44.0766 5.37139 44.0839 5.38844C44.0912 5.40549 44.0948 5.42388 44.0944 5.44241C44.076 5.58095 44.038 5.7162 43.9815 5.84415L43.982 5.84527Z" fill="#C6C6C6"/>
<path d="M45.6988 4.93859C45.7399 4.9183 45.7873 4.91467 45.831 4.92848C45.8526 4.93478 45.871 4.94906 45.8823 4.96839C45.8937 4.98771 45.8971 5.01063 45.8921 5.03242C45.8791 5.06782 45.8401 5.08468 45.8062 5.10154C45.7223 5.13759 45.6563 5.2053 45.6226 5.28977C45.6062 5.33865 45.5994 5.40215 45.5514 5.42069C45.5336 5.42621 45.5144 5.42542 45.4971 5.41845C45.4798 5.41149 45.4654 5.39877 45.4565 5.38248C45.448 5.36597 45.4432 5.34787 45.4423 5.32936C45.4415 5.31086 45.4445 5.29238 45.4514 5.27516C45.5172 5.15158 45.6005 5.03805 45.6988 4.93803V4.93859Z" fill="#C6C6C6"/>
<path d="M42.9191 4.99083C42.9435 5.01121 42.9577 5.03889 42.9587 5.06803C42.9597 5.08232 42.9542 5.09638 42.9434 5.10733C42.9325 5.11828 42.9172 5.12529 42.9005 5.12692C42.8723 5.12692 42.8508 5.10717 42.8306 5.09101C42.8077 5.06959 42.7802 5.05223 42.7494 5.03991C42.7187 5.02758 42.6854 5.02055 42.6515 5.0192C42.6127 5.0192 42.5672 5.02889 42.541 5.00411C42.5327 4.99461 42.5285 4.98295 42.5291 4.97111C42.5297 4.95926 42.5352 4.94795 42.5444 4.93912C42.5541 4.93054 42.5658 4.9238 42.5787 4.91934C42.5916 4.91488 42.6055 4.91281 42.6194 4.91327C42.7229 4.92658 42.8236 4.95233 42.9186 4.98975L42.9191 4.99083Z" fill="#C6C6C6"/>
<defs>
<linearGradient id="paint0_linear_3_2127" x1="46.1364" y1="2.00989" x2="42.5131" y2="6.56377" gradientUnits="userSpaceOnUse">
<stop stop-color="#00F8FF"/>
<stop offset="0.244792" stop-color="#4838FF"/>
<stop offset="0.526042" stop-color="#C110EF"/>
<stop offset="0.744792" stop-color="#EC12AA"/>
<stop offset="1" stop-color="#FD0616"/>
</linearGradient>
</defs>
</svg>
